{
.appVersion = "1075";
copyright = "Copyright (c) 2013-2017 by Alessio Laiso (hello@alessiolaiso.com). Licensed under the SIL Open Font License, Version 1.1";
customParameters = (
{
name = license;

glyphs = (
{
glyphname = .notdef;
layers = (
{
layerId = "C87851D2-2817-4F36-A784-A5AE84D7BDA8";
paths = (
{
closed = 1;
nodes = (
"214 532 LINE",
"217 525 OFFCURVE",
"223 522 OFFCURVE",
"231 522 CURVE SMOOTH",
"235 522 OFFCURVE",
"239 523 OFFCURVE",
"244 526 CURVE SMOOTH",
"249 529 OFFCURVE",
"255 532 OFFCURVE",
"262 536 CURVE SMOOTH",
"269 540 OFFCURVE",
"278 543 OFFCURVE",
"288 546 CURVE SMOOTH",
"298 549 OFFCURVE",
"309 550 OFFCURVE",
"323 550 CURVE SMOOTH",
"342 550 OFFCURVE",
"357 546 OFFCURVE",
"368 536 CURVE SMOOTH",
"379 526 OFFCURVE",
"383 512 OFFCURVE",
"381 495 CURVE",
"379 482 OFFCURVE",
"376 470 OFFCURVE",
"369 460 CURVE SMOOTH",
"362 450 OFFCURVE",
"354 442 OFFCURVE",
"345 434 CURVE SMOOTH",
"336 426 OFFCURVE",
"327 420 OFFCURVE",
"317 413 CURVE SMOOTH",
"307 406 OFFCURVE",
"297 399 OFFCURVE",
"289 392 CURVE SMOOTH",
"281 385 OFFCURVE",
"274 377 OFFCURVE",
"269 369 CURVE SMOOTH",
"264 361 OFFCURVE",
"261 350 OFFCURVE",
"261 339 CURVE SMOOTH",
"259 281 LINE",
"320 281 LINE",
"335 333 LINE",
"337 341 OFFCURVE",
"342 348 OFFCURVE",
"349 354 CURVE SMOOTH",
"356 360 OFFCURVE",
"363 367 OFFCURVE",
"372 373 CURVE SMOOTH",
"381 379 OFFCURVE",
"390 386 OFFCURVE",
"400 393 CURVE SMOOTH",
"410 400 OFFCURVE",
"419 408 OFFCURVE",
"428 418 CURVE SMOOTH",
"437 428 OFFCURVE",
"444 440 OFFCURVE",
"451 453 CURVE SMOOTH",
"458 466 OFFCURVE",
"462 483 OFFCURVE",
"464 501 CURVE SMOOTH",
"466 520 OFFCURVE",
"465 536 OFFCURVE",
"460 551 CURVE SMOOTH",
"455 566 OFFCURVE",
"447 579 OFFCURVE",
"436 590 CURVE SMOOTH",
"425 601 OFFCURVE",
"411 609 OFFCURVE",
"395 615 CURVE SMOOTH",
"379 621 OFFCURVE",
"360 624 OFFCURVE",
"339 624 CURVE SMOOTH",
"324 624 OFFCURVE",
"310 622 OFFCURVE",
"296 619 CURVE SMOOTH",
"282 616 OFFCURVE",
"270 613 OFFCURVE",
"258 608 CURVE SMOOTH",
"246 603 OFFCURVE",
"234 597 OFFCURVE",
"224 591 CURVE SMOOTH",
"214 585 OFFCURVE",
"204 577 OFFCURVE",
"195 570 CURVE"
);
},
{
closed = 1;
nodes = (
"214 130 OFFCURVE",
"218 117 OFFCURVE",
"227 107 CURVE SMOOTH",
"236 97 OFFCURVE",
"248 91 OFFCURVE",
"264 91 CURVE SMOOTH",
"271 91 OFFCURVE",
"279 92 OFFCURVE",
"286 95 CURVE SMOOTH",
"293 98 OFFCURVE",
"299 102 OFFCURVE",
"304 107 CURVE SMOOTH",
"309 112 OFFCURVE",
"314 117 OFFCURVE",
"318 124 CURVE SMOOTH",
"322 131 OFFCURVE",
"324 138 OFFCURVE",
"325 146 CURVE SMOOTH",
"326 154 OFFCURVE",
"325 161 OFFCURVE",
"323 168 CURVE SMOOTH",
"321 175 OFFCURVE",
"318 180 OFFCURVE",
"314 185 CURVE SMOOTH",
"310 190 OFFCURVE",
"304 194 OFFCURVE",
"298 197 CURVE SMOOTH",
"292 200 OFFCURVE",
"285 201 OFFCURVE",
"278 201 CURVE SMOOTH",
"262 201 OFFCURVE",
"248 196 OFFCURVE",
"236 185 CURVE SMOOTH",
"224 174 OFFCURVE",
"218 162 OFFCURVE",
"216 146 CURVE SMOOTH"
);
},
{
closed = 1;
nodes = (
"110 716 LINE",
"22 0 LINE",
"510 0 LINE",
"597 716 LINE"
);
},
{
closed = 1;
nodes = (
"51 27 LINE",
"132 689 LINE",
"566 689 LINE",
"484 27 LINE"
);
}
);
width = 622;
}
);
note = .notdef;
},
{
glyphname = exclam;
layers = (
{
layerId = "C87851D2-2817-4F36-A784-A5AE84D7BDA8";
paths = (
{
closed = 1;
nodes = (
"199 716 LINE",
"115 716 LINE",
"80 430 LINE SMOOTH",
"78 415 OFFCURVE",
"76 400 OFFCURVE",
"75 386 CURVE SMOOTH",
"74 372 OFFCURVE",
"73 357 OFFCURVE",
"72 343 CURVE SMOOTH",
"71 329 OFFCURVE",
"70 314 OFFCURVE",
"70 299 CURVE SMOOTH",
"70 284 OFFCURVE",
"69 267 OFFCURVE",
"69 250 CURVE",
"130 250 LINE",
"134 267 OFFCURVE",
"138 284 OFFCURVE",
"141 299 CURVE SMOOTH",
"144 314 OFFCURVE",
"147 329 OFFCURVE",
"150 343 CURVE SMOOTH",
"153 357 OFFCURVE",
"156 372 OFFCURVE",
"158 386 CURVE SMOOTH",
"160 400 OFFCURVE",
"162 415 OFFCURVE",
"164 430 CURVE SMOOTH"
);
},
{
closed = 1;
nodes = (
"11 46 OFFCURVE",
"12 38 OFFCURVE",
"14 30 CURVE SMOOTH",
"16 22 OFFCURVE",
"19 16 OFFCURVE",
"24 10 CURVE SMOOTH",
"29 4 OFFCURVE",
"35 0 OFFCURVE",
"42 -3 CURVE SMOOTH",
"49 -6 OFFCURVE",
"57 -8 OFFCURVE",
"66 -8 CURVE SMOOTH",
"75 -8 OFFCURVE",
"83 -6 OFFCURVE",
"91 -3 CURVE SMOOTH",
"99 0 OFFCURVE",
"107 4 OFFCURVE",
"113 10 CURVE SMOOTH",
"119 16 OFFCURVE",
"125 22 OFFCURVE",
"129 30 CURVE SMOOTH",
"133 38 OFFCURVE",
"136 46 OFFCURVE",
"137 55 CURVE SMOOTH",
"138 64 OFFCURVE",
"137 72 OFFCURVE",
"135 80 CURVE SMOOTH",
"133 88 OFFCURVE",
"129 93 OFFCURVE",
"124 99 CURVE SMOOTH",
"119 105 OFFCURVE",
"113 110 OFFCURVE",
"106 113 CURVE SMOOTH",
"99 116 OFFCURVE",
"91 118 OFFCURVE",
"82 118 CURVE SMOOTH",
"73 118 OFFCURVE",
"65 116 OFFCURVE",
"57 113 CURVE SMOOTH",
"49 110 OFFCURVE",
"41 105 OFFCURVE",
"35 99 CURVE SMOOTH",
"29 93 OFFCURVE",
"24 88 OFFCURVE",
"20 80 CURVE SMOOTH",
"16 72 OFFCURVE",
"13 64 OFFCURVE",
"12 55 CURVE SMOOTH"
);
}
);
width = 225;
}
);
note = exclam;
unicode = 0021;
},
{
glyphname = quotedbl;
lastChange = "2017-01-26 15:47:04 +0000";
layers = (
{
layerId = "C87851D2-2817-4F36-A784-A5AE84D7BDA8";
paths = (
{
closed = 1;
nodes = (
"156 716 LINE",
"79 716 LINE",
"61 572 LINE",
"60 494 LINE",
"61 483 OFFCURVE",
"63 475 OFFCURVE",
"67 469 CURVE SMOOTH",
"71 463 OFFCURVE",
"77 460 OFFCURVE",
"86 460 CURVE SMOOTH",
"96 460 OFFCURVE",
"104 463 OFFCURVE",
"109 469 CURVE SMOOTH",
"114 475 OFFCURVE",
"119 483 OFFCURVE",
"121 494 CURVE",
"139 572 LINE"
);
},
{
closed = 1;
nodes = (
"323 716 LINE",
"245 716 LINE",
"228 572 LINE",
"226 494 LINE",
"227 483 OFFCURVE",
"229 475 OFFCURVE",
"233 469 CURVE SMOOTH",
"237 463 OFFCURVE",
"243 460 OFFCURVE",
"252 460 CURVE SMOOTH",
"262 460 OFFCURVE",
"271 463 OFFCURVE",
"276 469 CURVE SMOOTH",
"281 475 OFFCURVE",
"286 483 OFFCURVE",
"288 494 CURVE SMOOTH",
"305 572 LINE"
);
}
);
width = 350;
}
);
leftKerningGroup = ordfeminine;
note = quotedbl;
rightKerningGroup = ordfeminine;
unicode = 0022;
},
{
glyphname = numbersign;
layers = (
{
layerId = "C87851D2-2817-4F36-A784-A5AE84D7BDA8";
paths = (
{
closed = 1;
nodes = (
"373 212 LINE",
"492 212 LINE",
"500 240 LINE",
"501 242 OFFCURVE",
"501 244 OFFCURVE",
"501 246 CURVE SMOOTH",
"501 248 OFFCURVE",
"502 249 OFFCURVE",
"502 251 CURVE",
"503 261 OFFCURVE",
"502 267 OFFCURVE",
"498 271 CURVE SMOOTH",
"494 275 OFFCURVE",
"488 277 OFFCURVE",
"480 277 CURVE SMOOTH",
"391 277 LINE",
"443 440 LINE",
"512 440 LINE SMOOTH",
"525 440 OFFCURVE",
"534 443 OFFCURVE",
"541 447 CURVE SMOOTH",
"548 451 OFFCURVE",
"553 458 OFFCURVE",
"556 468 CURVE SMOOTH",
"567 506 LINE",
"461 506 LINE",
"519 683 LINE",
"520 685 OFFCURVE",
"520 687 OFFCURVE",
"520 690 CURVE",
"521 698 OFFCURVE",
"520 704 OFFCURVE",
"515 709 CURVE SMOOTH",
"510 714 OFFCURVE",
"503 716 OFFCURVE",
"495 716 CURVE SMOOTH",
"455 716 LINE",
"387 506 LINE",
"264 506 LINE",
"332 716 LINE",
"292 716 LINE SMOOTH",
"282 716 OFFCURVE",
"273 714 OFFCURVE",
"265 708 CURVE SMOOTH",
"257 702 OFFCURVE",
"251 694 OFFCURVE",
"248 684 CURVE SMOOTH",
"190 505 LINE",
"111 505 LINE SMOOTH",
"98 505 OFFCURVE",
"89 503 OFFCURVE",
"82 498 CURVE SMOOTH",
"75 493 OFFCURVE",
"71 487 OFFCURVE",
"68 477 CURVE SMOOTH",
"57 440 LINE",
"173 440 LINE",
"120 277 LINE",
"18 277 LINE",
"11 248 LINE",
"10 246 OFFCURVE",
"9 244 OFFCURVE",
"9 242 CURVE SMOOTH",
"9 240 OFFCURVE",
"8 239 OFFCURVE",
"8 237 CURVE",
"7 228 OFFCURVE",
"8 221 OFFCURVE",
"12 217 CURVE SMOOTH",
"16 213 OFFCURVE",
"22 211 OFFCURVE",
"30 211 CURVE SMOOTH",
"103 211 LINE",
"34 0 LINE",
"74 0 LINE SMOOTH",
"84 0 OFFCURVE",
"92 3 OFFCURVE",
"100 8 CURVE SMOOTH",
"108 13 OFFCURVE",
"115 22 OFFCURVE",
"119 34 CURVE SMOOTH",
"176 211 LINE",
"300 211 LINE",
"243 38 LINE",
"242 36 OFFCURVE",
"242 35 OFFCURVE",
"242 34 CURVE SMOOTH",
"242 33 OFFCURVE",
"241 31 OFFCURVE",
"241 30 CURVE",
"240 21 OFFCURVE",
"241 14 OFFCURVE",
"246 8 CURVE SMOOTH",
"251 2 OFFCURVE",
"257 0 OFFCURVE",
"265 0 CURVE SMOOTH",
"305 0 LINE"
);
},
{
closed = 1;
nodes = (
"194 277 LINE",
"246 440 LINE",
"370 440 LINE",
"317 277 LINE"
);
}
);
width = 568;
}
);
note = numbersign;
unicode = 0023;
},
{
glyphname = dollar;
layers = (
{
layerId = "C87851D2-2817-4F36-A784-A5AE84D7BDA8";
paths = (
{
closed = 1;
nodes = (
"147 -119 LINE",
"180 -119 LINE SMOOTH",
"187 -119 OFFCURVE",
"193 -117 OFFCURVE",
"198 -112 CURVE SMOOTH",
"203 -107 OFFCURVE",
"207 -101 OFFCURVE",
"208 -95 CURVE SMOOTH",
"225 -7 LINE",
"261 -5 OFFCURVE",
"294 3 OFFCURVE",
"323 15 CURVE SMOOTH",
"352 27 OFFCURVE",
"377 44 OFFCURVE",
"399 64 CURVE SMOOTH",
"421 84 OFFCURVE",
"438 107 OFFCURVE",
"451 133 CURVE SMOOTH",
"464 159 OFFCURVE",
"473 188 OFFCURVE",
"477 218 CURVE SMOOTH",
"481 249 OFFCURVE",
"478 274 OFFCURVE",
"469 294 CURVE SMOOTH",
"460 314 OFFCURVE",
"447 332 OFFCURVE",
"430 346 CURVE SMOOTH",
"413 360 OFFCURVE",
"393 370 OFFCURVE",
"371 379 CURVE SMOOTH",
"349 388 OFFCURVE",
"326 396 OFFCURVE",
"303 403 CURVE",
"349 645 LINE",
"365 643 OFFCURVE",
"379 639 OFFCURVE",
"391 633 CURVE SMOOTH",
"403 627 OFFCURVE",
"414 623 OFFCURVE",
"423 617 CURVE",
"432 612 OFFCURVE",
"440 606 OFFCURVE",
"446 602 CURVE SMOOTH",
"452 598 OFFCURVE",
"457 596 OFFCURVE",
"462 596 CURVE SMOOTH",
"471 596 OFFCURVE",
"479 601 OFFCURVE",
"487 611 CURVE SMOOTH",
"513 644 LINE",
"495 663 OFFCURVE",
"475 680 OFFCURVE",
"451 694 CURVE SMOOTH",
"427 708 OFFCURVE",
"397 716 OFFCURVE",
"363 720 CURVE",
"383 820 LINE",
"350 820 LINE SMOOTH",
"343 820 OFFCURVE",
"336 817 OFFCURVE",
"331 812 CURVE SMOOTH",
"326 807 OFFCURVE",
"323 801 OFFCURVE",
"322 795 CURVE SMOOTH",
"308 723 LINE",
"273 722 OFFCURVE",
"241 716 OFFCURVE",
"213 704 CURVE SMOOTH",
"185 692 OFFCURVE",
"161 678 OFFCURVE",
"141 660 CURVE SMOOTH",
"121 642 OFFCURVE",
"104 621 OFFCURVE",
"92 598 CURVE SMOOTH",
"80 575 OFFCURVE",
"72 550 OFFCURVE",
"69 526 CURVE SMOOTH",
"65 494 OFFCURVE",
"67 468 OFFCURVE",
"75 446 CURVE SMOOTH",
"83 424 OFFCURVE",
"95 406 OFFCURVE",
"111 392 CURVE SMOOTH",
"127 378 OFFCURVE",
"147 367 OFFCURVE",
"168 358 CURVE SMOOTH",
"189 349 OFFCURVE",
"212 341 OFFCURVE",
"234 334 CURVE",
"182 68 LINE",
"160 71 OFFCURVE",
"141 76 OFFCURVE",
"126 84 CURVE SMOOTH",
"111 92 OFFCURVE",
"98 100 OFFCURVE",
"87 108 CURVE SMOOTH",
"76 116 OFFCURVE",
"67 123 OFFCURVE",
"60 129 CURVE SMOOTH",
"53 135 OFFCURVE",
"46 139 OFFCURVE",
"40 139 CURVE SMOOTH",
"35 139 OFFCURVE",
"31 137 OFFCURVE",
"26 135 CURVE SMOOTH",
"21 133 OFFCURVE",
"18 130 OFFCURVE",
"15 126 CURVE SMOOTH",
"-16 85 LINE",
"5 60 OFFCURVE",
"31 40 OFFCURVE",
"62 24 CURVE SMOOTH",
"93 8 OFFCURVE",
"128 -2 OFFCURVE",
"168 -6 CURVE"
);
},
{
closed = 1;
nodes = (
"388 185 OFFCURVE",
"383 168 OFFCURVE",
"375 152 CURVE SMOOTH",
"367 136 OFFCURVE",
"357 124 OFFCURVE",
"344 112 CURVE SMOOTH",
"331 100 OFFCURVE",
"316 91 OFFCURVE",
"298 83 CURVE SMOOTH",
"280 75 OFFCURVE",
"261 70 OFFCURVE",
"239 68 CURVE",
"286 318 LINE",
"302 313 OFFCURVE",
"316 306 OFFCURVE",
"330 300 CURVE SMOOTH",
"344 294 OFFCURVE",
"355 287 OFFCURVE",
"365 278 CURVE SMOOTH",
"375 269 OFFCURVE",
"382 258 OFFCURVE",
"387 246 CURVE SMOOTH",
"392 234 OFFCURVE",
"392 221 OFFCURVE",
"390 204 CURVE SMOOTH"
);
},
{
closed = 1;
nodes = (
"156 549 OFFCURVE",
"159 563 OFFCURVE",
"166 575 CURVE SMOOTH",
"173 587 OFFCURVE",
"182 598 OFFCURVE",
"193 608 CURVE SMOOTH",
"204 618 OFFCURVE",
"218 626 OFFCURVE",
"235 633 CURVE SMOOTH",
"252 640 OFFCURVE",
"271 644 OFFCURVE",
"293 646 CURVE",
"250 421 LINE",
"235 426 OFFCURVE",
"222 432 OFFCURVE",
"209 439 CURVE SMOOTH",
"196 446 OFFCURVE",
"186 453 OFFCURVE",
"177 462 CURVE SMOOTH",
"168 471 OFFCURVE",
"161 482 OFFCURVE",
"157 494 CURVE SMOOTH",
"153 506 OFFCURVE",
"152 519 OFFCURVE",
"154 535 CURVE SMOOTH"
);
}
);
width = 516;
}
);
note = dollar;
unicode = 0024;
},
{
glyphname = percent;
layers = (
{
layerId = "C87851D2-2817-4F36-A784-A5AE84D7BDA8";
paths = (
{
closed = 1;
nodes = (
"363 573 OFFCURVE",
"361 598 OFFCURVE",
"356 620 CURVE SMOOTH",
"351 642 OFFCURVE",
"341 661 OFFCURVE",
"329 676 CURVE SMOOTH",
"317 691 OFFCURVE",
"302 704 OFFCURVE",
"283 712 CURVE SMOOTH",
"264 720 OFFCURVE",
"244 724 OFFCURVE",
"222 724 CURVE SMOOTH",
"199 724 OFFCURVE",
"178 720 OFFCURVE",
"158 712 CURVE SMOOTH",
"138 704 OFFCURVE",
"119 691 OFFCURVE",
"103 676 CURVE SMOOTH",
"87 661 OFFCURVE",
"74 642 OFFCURVE",
"63 620 CURVE SMOOTH",
"52 598 OFFCURVE",
"45 573 OFFCURVE",
"41 544 CURVE SMOOTH",
"38 516 OFFCURVE",
"39 490 OFFCURVE",
"44 468 CURVE SMOOTH",
"49 446 OFFCURVE",
"59 427 OFFCURVE",
"71 412 CURVE SMOOTH",
"83 397 OFFCURVE",
"99 386 OFFCURVE",
"117 378 CURVE SMOOTH",
"135 370 OFFCURVE",
"155 366 OFFCURVE",
"178 366 CURVE SMOOTH",
"199 366 OFFCURVE",
"220 370 OFFCURVE",
"240 378 CURVE SMOOTH",
"260 386 OFFCURVE",
"279 397 OFFCURVE",
"295 412 CURVE SMOOTH",
"311 427 OFFCURVE",
"325 446 OFFCURVE",
"336 468 CURVE SMOOTH",
"347 490 OFFCURVE",
"356 516 OFFCURVE",
"359 544 CURVE SMOOTH"
);
},
{
closed = 1;
nodes = (
"286 522 OFFCURVE",
"282 503 OFFCURVE",
"275 488 CURVE SMOOTH",
"268 473 OFFCURVE",
"261 461 OFFCURVE",
"252 451 CURVE SMOOTH",
"243 441 OFFCURVE",
"232 435 OFFCURVE",
"221 431 CURVE SMOOTH",
"210 427 OFFCURVE",
"197 424 OFFCURVE",
"185 424 CURVE SMOOTH",
"173 424 OFFCURVE",
"161 427 OFFCURVE",
"151 431 CURVE SMOOTH",
"141 435 OFFCURVE",
"132 441 OFFCURVE",
"125 451 CURVE SMOOTH",
"118 461 OFFCURVE",
"114 473 OFFCURVE",
"111 488 CURVE SMOOTH",
"108 503 OFFCURVE",
"108 522 OFFCURVE",
"111 544 CURVE SMOOTH",
"114 566 OFFCURVE",
"119 585 OFFCURVE",
"125 600 CURVE SMOOTH",
"131 615 OFFCURVE",
"139 627 OFFCURVE",
"148 637 CURVE SMOOTH",
"157 647 OFFCURVE",
"168 654 OFFCURVE",
"179 658 CURVE SMOOTH",
"190 662 OFFCURVE",
"203 665 OFFCURVE",
"215 665 CURVE SMOOTH",
"227 665 OFFCURVE",
"239 662 OFFCURVE",
"249 658 CURVE SMOOTH",
"259 654 OFFCURVE",
"267 647 OFFCURVE",
"274 637 CURVE SMOOTH",
"281 627 OFFCURVE",
"286 614 OFFCURVE",
"289 599 CURVE SMOOTH",
"292 584 OFFCURVE",
"292 566 OFFCURVE",
"289 544 CURVE SMOOTH"
);
},
{
closed = 1;
nodes = (
"22 0 LINE",
"88 0 LINE SMOOTH",
"94 0 OFFCURVE",
"99 1 OFFCURVE",
"104 4 CURVE SMOOTH",
"109 7 OFFCURVE",
"114 10 OFFCURVE",
"118 14 CURVE",
"727 716 LINE",
"663 716 LINE SMOOTH",
"655 716 OFFCURVE",
"649 715 OFFCURVE",
"644 712 CURVE SMOOTH",
"639 709 OFFCURVE",
"633 704 OFFCURVE",
"628 698 CURVE SMOOTH"
);
},
{
closed = 1;
nodes = (
"713 198 OFFCURVE",
"711 224 OFFCURVE",
"706 246 CURVE SMOOTH",
"701 268 OFFCURVE",
"692 287 OFFCURVE",
"680 302 CURVE SMOOTH",
"668 317 OFFCURVE",
"651 329 OFFCURVE",
"633 337 CURVE SMOOTH",
"615 345 OFFCURVE",
"594 349 OFFCURVE",
"572 349 CURVE SMOOTH",
"549 349 OFFCURVE",
"528 345 OFFCURVE",
"508 337 CURVE SMOOTH",
"488 329 OFFCURVE",
"470 317 OFFCURVE",
"454 302 CURVE SMOOTH",
"438 287 OFFCURVE",
"424 268 OFFCURVE",
"413 246 CURVE SMOOTH",
"402 224 OFFCURVE",
"396 198 OFFCURVE",
"392 169 CURVE SMOOTH",
"389 141 OFFCURVE",
"390 116 OFFCURVE",
"395 94 CURVE SMOOTH",
"400 72 OFFCURVE",
"409 53 OFFCURVE",
"421 38 CURVE SMOOTH",
"433 23 OFFCURVE",
"449 12 OFFCURVE",
"467 4 CURVE SMOOTH",
"485 -4 OFFCURVE",
"505 -8 OFFCURVE",
"528 -8 CURVE SMOOTH",
"549 -8 OFFCURVE",
"570 -4 OFFCURVE",
"590 4 CURVE SMOOTH",
"610 12 OFFCURVE",
"629 23 OFFCURVE",
"645 38 CURVE SMOOTH",
"661 53 OFFCURVE",
"676 72 OFFCURVE",
"687 94 CURVE SMOOTH",
"698 116 OFFCURVE",
"706 141 OFFCURVE",
"709 169 CURVE SMOOTH"
);
},
{
closed = 1;
nodes = (
"637 147 OFFCURVE",
"633 129 OFFCURVE",
"626 114 CURVE SMOOTH",
"619 99 OFFCURVE",
"611 87 OFFCURVE",
"602 77 CURVE SMOOTH",
"593 67 OFFCURVE",
"582 61 OFFCURVE",
"571 57 CURVE SMOOTH",
"560 53 OFFCURVE",
"548 50 OFFCURVE",
"536 50 CURVE SMOOTH",
"524 50 OFFCURVE",
"512 53 OFFCURVE",
"502 57 CURVE SMOOTH",
"492 61 OFFCURVE",
"483 67 OFFCURVE",
"476 77 CURVE SMOOTH",
"469 87 OFFCURVE",
"465 99 OFFCURVE",
"462 114 CURVE SMOOTH",
"459 129 OFFCURVE",
"459 147 OFFCURVE",
"462 169 CURVE SMOOTH",
"465 191 OFFCURVE",
"469 209 OFFCURVE",
"475 225 CURVE SMOOTH",
"481 241 OFFCURVE",
"490 253 OFFCURVE",
"499 263 CURVE SMOOTH",
"508 273 OFFCURVE",
"519 280 OFFCURVE",
"530 284 CURVE SMOOTH",
"541 288 OFFCURVE",
"553 290 OFFCURVE",
"565 290 CURVE SMOOTH",
"577 290 OFFCURVE",
"589 288 OFFCURVE",
"599 284 CURVE SMOOTH",
"609 280 OFFCURVE",
"618 273 OFFCURVE",
"625 263 CURVE SMOOTH",
"632 253 OFFCURVE",
"637 241 OFFCURVE",
"640 225 CURVE SMOOTH",
"643 209 OFFCURVE",
"643 191 OFFCURVE",
"640 169 CURVE SMOOTH"
);
}
);
width = 747;
}
);
note = percent;
unicode = 0025;
},
{
glyphname = ampersand;
layers = (
{
layerId = "C87851D2-2817-4F36-A784-A5AE84D7BDA8";
paths = (
{
closed = 1;
nodes = (
"334 724 OFFCURVE",
"307 720 OFFCURVE",
"282 711 CURVE SMOOTH",
"257 702 OFFCURVE",
"236 689 OFFCURVE",
"217 673 CURVE SMOOTH",
"198 657 OFFCURVE",
"183 638 OFFCURVE",
"172 617 CURVE SMOOTH",
"161 596 OFFCURVE",
"153 573 OFFCURVE",
"150 549 CURVE SMOOTH",
"147 523 OFFCURVE",
"148 497 OFFCURVE",
"155 473 CURVE SMOOTH",
"162 449 OFFCURVE",
"174 424 OFFCURVE",
"191 398 CURVE",
"167 388 OFFCURVE",
"145 376 OFFCURVE",
"124 362 CURVE SMOOTH",
"103 348 OFFCURVE",
"85 333 OFFCURVE",
"69 315 CURVE SMOOTH",
"53 297 OFFCURVE",
"40 278 OFFCURVE",
"30 257 CURVE SMOOTH",
"20 236 OFFCURVE",
"13 214 OFFCURVE",
"10 191 CURVE SMOOTH",
"6 160 OFFCURVE",
"9 132 OFFCURVE",
"18 107 CURVE SMOOTH",
"27 82 OFFCURVE",
"41 62 OFFCURVE",
"59 45 CURVE SMOOTH",
"77 28 OFFCURVE",
"98 14 OFFCURVE",
"123 5 CURVE SMOOTH",
"148 -4 OFFCURVE",
"173 -8 OFFCURVE",
"200 -8 CURVE SMOOTH",
"249 -8 OFFCURVE",
"295 0 OFFCURVE",
"338 18 CURVE SMOOTH",
"381 36 OFFCURVE",
"420 60 OFFCURVE",
"455 90 CURVE",
"518 18 LINE SMOOTH",
"524 11 OFFCURVE",
"530 5 OFFCURVE",
"536 3 CURVE SMOOTH",
"542 1 OFFCURVE",
"549 0 OFFCURVE",
"559 0 CURVE SMOOTH",
"645 0 LINE",
"514 152 LINE",
"540 184 OFFCURVE",
"561 219 OFFCURVE",
"577 256 CURVE SMOOTH",
"593 293 OFFCURVE",
"605 331 OFFCURVE",
"610 369 CURVE",
"555 369 LINE SMOOTH",
"549 369 OFFCURVE",
"544 367 OFFCURVE",
"540 363 CURVE SMOOTH",
"536 359 OFFCURVE",
"533 354 OFFCURVE",
"532 348 CURVE",
"526 323 OFFCURVE",
"519 299 OFFCURVE",
"508 275 CURVE SMOOTH",
"497 251 OFFCURVE",
"484 226 OFFCURVE",
"469 204 CURVE",
"289 414 LINE SMOOTH",
"278 427 OFFCURVE",
"268 438 OFFCURVE",
"260 450 CURVE SMOOTH",
"252 462 OFFCURVE",
"247 473 OFFCURVE",
"243 484 CURVE SMOOTH",
"239 495 OFFCURVE",
"236 505 OFFCURVE",
"234 516 CURVE SMOOTH",
"232 527 OFFCURVE",
"233 537 OFFCURVE",
"234 549 CURVE",
"236 564 OFFCURVE",
"240 578 OFFCURVE",
"247 591 CURVE SMOOTH",
"254 604 OFFCURVE",
"262 615 OFFCURVE",
"273 625 CURVE",
"284 634 OFFCURVE",
"296 642 OFFCURVE",
"310 647 CURVE SMOOTH",
"324 652 OFFCURVE",
"339 655 OFFCURVE",
"356 655 CURVE SMOOTH",
"371 655 OFFCURVE",
"384 652 OFFCURVE",
"395 647 CURVE SMOOTH",
"406 642 OFFCURVE",
"415 636 OFFCURVE",
"422 628 CURVE SMOOTH",
"429 620 OFFCURVE",
"435 612 OFFCURVE",
"439 603 CURVE SMOOTH",
"443 594 OFFCURVE",
"446 585 OFFCURVE",
"447 576 CURVE",
"448 570 OFFCURVE",
"450 565 OFFCURVE",
"454 563 CURVE SMOOTH",
"458 561 OFFCURVE",
"461 560 OFFCURVE",
"465 560 CURVE SMOOTH",
"470 560 LINE",
"527 571 LINE",
"528 591 OFFCURVE",
"525 611 OFFCURVE",
"518 629 CURVE SMOOTH",
"511 647 OFFCURVE",
"501 664 OFFCURVE",
"487 678 CURVE SMOOTH",
"473 692 OFFCURVE",
"456 704 OFFCURVE",
"435 712 CURVE SMOOTH",
"414 720 OFFCURVE",
"390 724 OFFCURVE",
"364 724 CURVE SMOOTH"
);
},
{
closed = 1;
nodes = (
"105 229 OFFCURVE",
"117 259 OFFCURVE",
"138 285 CURVE SMOOTH",
"159 311 OFFCURVE",
"189 334 OFFCURVE",
"227 353 CURVE",
"412 139 LINE",
"387 116 OFFCURVE",
"358 99 OFFCURVE",
"327 85 CURVE SMOOTH",
"296 71 OFFCURVE",
"261 64 OFFCURVE",
"224 64 CURVE SMOOTH",
"207 64 OFFCURVE",
"190 67 OFFCURVE",
"174 73 CURVE SMOOTH",
"158 79 OFFCURVE",
"144 88 OFFCURVE",
"132 99 CURVE SMOOTH",
"120 110 OFFCURVE",
"112 125 OFFCURVE",
"106 141 CURVE SMOOTH",
"100 157 OFFCURVE",
"98 176 OFFCURVE",
"101 198 CURVE SMOOTH"
);
}
);
width = 656;
}
);
note = ampersand;
unicode = 0026;
},
{
glyphname = quotesingle;
lastChange = "2017-01-26 15:47:04 +0000";
layers = (
{
layerId = "C87851D2-2817-4F36-A784-A5AE84D7BDA8";
paths = (
{
closed = 1;
nodes = (
"156 716 LINE",
"79 716 LINE",
"61 572 LINE",
"60 494 LINE",
"61 483 OFFCURVE",
"63 475 OFFCURVE",
"67 469 CURVE SMOOTH",
"71 463 OFFCURVE",
"77 460 OFFCURVE",
"86 460 CURVE SMOOTH",
"96 460 OFFCURVE",
"104 463 OFFCURVE",
"109 469 CURVE SMOOTH",
"114 475 OFFCURVE",
"119 483 OFFCURVE",
"121 494 CURVE",
"139 572 LINE"
);
}
);
width = 184;
}
);
leftKerningGroup = ordfeminine;
note = quotesingle;
rightKerningGroup = ordfeminine;
unicode = 0027;
},
{
glyphname = parenleft;
layers = (
{
layerId = "C87851D2-2817-4F36-A784-A5AE84D7BDA8";
paths = (
{
closed = 1;
nodes = (
"116 385 OFFCURVE",
"134 455 OFFCURVE",
"160 522 CURVE SMOOTH",
"186 589 OFFCURVE",
"221 653 OFFCURVE",
"263 714 CURVE SMOOTH",
"267 720 OFFCURVE",
"269 727 OFFCURVE",
"270 732 CURVE SMOOTH",
"271 737 OFFCURVE",
"270 740 OFFCURVE",
"268 743 CURVE SMOOTH",
"266 746 OFFCURVE",
"263 749 OFFCURVE",
"260 751 CURVE SMOOTH",
"224 776 LINE",
"194 737 OFFCURVE",
"168 699 OFFCURVE",
"146 661 CURVE SMOOTH",
"124 623 OFFCURVE",
"104 586 OFFCURVE",
"89 548 CURVE SMOOTH",
"74 510 OFFCURVE",
"62 472 OFFCURVE",
"52 433 CURVE SMOOTH",
"42 394 OFFCURVE",
"35 354 OFFCURVE",
"30 314 CURVE SMOOTH",
"25 273 OFFCURVE",
"23 234 OFFCURVE",
"23 196 CURVE SMOOTH",
"23 158 OFFCURVE",
"26 119 OFFCURVE",
"32 81 CURVE SMOOTH",
"38 43 OFFCURVE",
"48 6 OFFCURVE",
"61 -32 CURVE SMOOTH",
"74 -70 OFFCURVE",
"90 -108 OFFCURVE",
"110 -146 CURVE",
"153 -122 LINE",
"157 -120 OFFCURVE",
"160 -117 OFFCURVE",
"163 -114 CURVE SMOOTH",
"166 -111 OFFCURVE",
"167 -108 OFFCURVE",
"168 -103 CURVE",
"168 -95 LINE SMOOTH",
"168 -92 OFFCURVE",
"167 -90 OFFCURVE",
"165 -86 CURVE",
"138 -25 OFFCURVE",
"119 40 OFFCURVE",
"109 107 CURVE SMOOTH",
"99 174 OFFCURVE",
"98 243 OFFCURVE",
"107 314 CURVE SMOOTH"
);
}
);
width = 259;
}
);
note = parenleft;
unicode = 0028;
},
{
glyphname = parenright;
layers = (
{
layerId = "C87851D2-2817-4F36-A784-A5AE84D7BDA8";
paths = (
{
closed = 1;
nodes = (
"134 243 OFFCURVE",
"117 174 OFFCURVE",
"90 107 CURVE SMOOTH",
"63 40 OFFCURVE",
"29 -25 OFFCURVE",
"-13 -86 CURVE",
"-15 -90 OFFCURVE",
"-17 -92 OFFCURVE",
"-18 -95 CURVE SMOOTH",
"-19 -98 OFFCURVE",
"-20 -100 OFFCURVE",
"-20 -103 CURVE",
"-21 -108 OFFCURVE",
"-20 -111 OFFCURVE",
"-18 -114 CURVE SMOOTH",
"-16 -117 OFFCURVE",
"-13 -120 OFFCURVE",
"-10 -122 CURVE SMOOTH",
"26 -146 LINE",
"56 -108 OFFCURVE",
"82 -70 OFFCURVE",
"104 -32 CURVE SMOOTH",
"126 6 OFFCURVE",
"145 43 OFFCURVE",
"161 81 CURVE SMOOTH",
"176 119 OFFCURVE",
"188 158 OFFCURVE",
"198 196 CURVE SMOOTH",
"208 234 OFFCURVE",
"215 274 OFFCURVE",
"220 315 CURVE SMOOTH",
"225 355 OFFCURVE",
"228 394 OFFCURVE",
"228 433 CURVE SMOOTH",
"228 472 OFFCURVE",
"224 510 OFFCURVE",
"218 548 CURVE SMOOTH",
"212 586 OFFCURVE",
"202 623 OFFCURVE",
"189 661 CURVE SMOOTH",
"176 699 OFFCURVE",
"160 737 OFFCURVE",
"140 776 CURVE",
"97 751 LINE",
"93 749 OFFCURVE",
"90 746 OFFCURVE",
"87 743 CURVE SMOOTH",
"84 740 OFFCURVE",
"83 737 OFFCURVE",
"82 732 CURVE SMOOTH",
"81 727 OFFCURVE",
"82 720 OFFCURVE",
"85 714 CURVE SMOOTH",
"113 653 OFFCURVE",
"131 589 OFFCURVE",
"141 522 CURVE SMOOTH",
"151 455 OFFCURVE",
"152 385 OFFCURVE",
"143 314 CURVE SMOOTH"
);
}
);
width = 261;
}
);
note = parenright;
unicode = 0029;
},
{
glyphname = asterisk;
lastChange = "2017-01-26 15:47:04 +0000";
layers = (
{
layerId = "C87851D2-2817-4F36-A784-A5AE84D7BDA8";
paths = (
{
closed = 1;
nodes = (
"153 432 LINE",
"197 432 LINE",
"209 530 LINE SMOOTH",
"211 543 OFFCURVE",
"209 555 OFFCURVE",
"205 566 CURVE",
"208 561 OFFCURVE",
"212 557 OFFCURVE",
"216 553 CURVE SMOOTH",
"220 549 OFFCURVE",
"225 546 OFFCURVE",
"231 542 CURVE SMOOTH",
"311 492 LINE",
"338 530 LINE",
"258 580 LINE",
"253 584 OFFCURVE",
"247 586 OFFCURVE",
"242 588 CURVE SMOOTH",
"237 590 OFFCURVE",
"231 591 OFFCURVE",
"225 592 CURVE",
"231 593 OFFCURVE",
"237 594 OFFCURVE",
"243 596 CURVE SMOOTH",
"249 598 OFFCURVE",
"255 600 OFFCURVE",
"261 604 CURVE",
"353 654 LINE",
"335 692 LINE",
"243 642 LINE",
"237 638 OFFCURVE",
"232 636 OFFCURVE",
"227 632 CURVE SMOOTH",
"222 628 OFFCURVE",
"217 623 OFFCURVE",
"213 618 CURVE",
"219 628 OFFCURVE",
"222 640 OFFCURVE",
"224 654 CURVE SMOOTH",
"236 753 LINE",
"192 753 LINE",
"180 654 LINE SMOOTH",
"179 647 OFFCURVE",
"180 641 OFFCURVE",
"180 635 CURVE SMOOTH",
"180 629 OFFCURVE",
"182 622 OFFCURVE",
"184 616 CURVE",
"178 627 OFFCURVE",
"169 635 OFFCURVE",
"158 642 CURVE SMOOTH",
"78 692 LINE",
"51 655 LINE",
"132 604 LINE SMOOTH",
"138 600 OFFCURVE",
"142 598 OFFCURVE",
"148 596 CURVE SMOOTH",
"154 594 OFFCURVE",
"160 593 OFFCURVE",
"167 592 CURVE",
"155 591 OFFCURVE",
"142 587 OFFCURVE",
"129 580 CURVE SMOOTH",
"36 530 LINE",
"54 492 LINE",
"146 542 LINE SMOOTH",
"158 549 OFFCURVE",
"167 556 OFFCURVE",
"175 564 CURVE",
"172 559 OFFCURVE",
"170 554 OFFCURVE",
"168 548 CURVE SMOOTH",
"166 542 OFFCURVE",
"166 536 OFFCURVE",
"165 530 CURVE"
);
}
);
width = 371;
}
);
leftKerningGroup = quotedbl;
note = asterisk;
rightKerningGroup = quotedbl;
unicode = 002A;
},
{
glyphname = plus;
layers = (
{
layerId = "C87851D2-2817-4F36-A784-A5AE84D7BDA8";
paths = (
{
closed = 1;
nodes = (
"322 583 LINE",
"249 583 LINE",
"222 370 LINE",
"20 370 LINE",
"12 302 LINE",
"214 302 LINE",
"188 87 LINE",
"261 87 LINE",
"287 302 LINE",
"490 302 LINE",
"499 370 LINE",
"295 370 LINE"
);
}
);
width = 507;
}
);
note = plus;
unicode = 002B;
},
{
glyphname = comma;
lastChange = "2017-01-26 15:47:04 +0000";
layers = (
{
layerId = "C87851D2-2817-4F36-A784-A5AE84D7BDA8";
paths = (
{
closed = 1;
nodes = (
"50 53 OFFCURVE",
"51 45 OFFCURVE",
"53 37 CURVE SMOOTH",
"55 29 OFFCURVE",
"58 23 OFFCURVE",
"62 17 CURVE SMOOTH",
"66 11 OFFCURVE",
"72 7 OFFCURVE",
"79 4 CURVE SMOOTH",
"86 1 OFFCURVE",
"93 0 OFFCURVE",
"102 0 CURVE SMOOTH",
"108 0 LINE",
"105 -11 OFFCURVE",
"101 -21 OFFCURVE",
"95 -31 CURVE SMOOTH",
"89 -41 OFFCURVE",
"83 -50 OFFCURVE",
"77 -58 CURVE SMOOTH",
"71 -66 OFFCURVE",
"64 -73 OFFCURVE",
"58 -79 CURVE SMOOTH",
"52 -85 OFFCURVE",
"48 -90 OFFCURVE",
"44 -94 CURVE SMOOTH",
"39 -99 OFFCURVE",
"36 -103 OFFCURVE",
"35 -107 CURVE",
"34 -112 OFFCURVE",
"36 -117 OFFCURVE",
"40 -121 CURVE",
"53 -136 LINE",
"70 -123 OFFCURVE",
"84 -109 OFFCURVE",
"98 -94 CURVE SMOOTH",
"112 -79 OFFCURVE",
"124 -64 OFFCURVE",
"134 -48 CURVE SMOOTH",
"144 -32 OFFCURVE",
"152 -16 OFFCURVE",
"158 0 CURVE SMOOTH",
"164 16 OFFCURVE",
"169 32 OFFCURVE",
"171 47 CURVE SMOOTH",
"172 57 OFFCURVE",
"172 67 OFFCURVE",
"170 75 CURVE SMOOTH",
"168 83 OFFCURVE",
"165 91 OFFCURVE",
"161 97 CURVE SMOOTH",
"157 103 OFFCURVE",
"150 109 OFFCURVE",
"143 113 CURVE SMOOTH",
"136 117 OFFCURVE",
"127 118 OFFCURVE",
"117 118 CURVE SMOOTH",
"108 118 OFFCURVE",
"101 117 OFFCURVE",
"93 114 CURVE SMOOTH",
"85 111 OFFCURVE",
"78 106 OFFCURVE",
"72 101 CURVE SMOOTH",
"66 96 OFFCURVE",
"62 90 OFFCURVE",
"58 83 CURVE SMOOTH",
"54 76 OFFCURVE",
"52 70 OFFCURVE",
"51 62 CURVE SMOOTH"
);
}
);
width = 229;
}
);
leftKerningGroup = comma;
note = comma;
rightKerningGroup = comma;
unicode = 002C;
},
{
glyphname = hyphen;
lastChange = "2017-01-26 15:47:04 +0000";
layers = (
{
layerId = "C87851D2-2817-4F36-A784-A5AE84D7BDA8";
paths = (
{
closed = 1;
nodes = (
"62 338 LINE",
"52 262 LINE",
"300 262 LINE",
"309 338 LINE"
);
}
);
width = 360;
}
);
leftKerningGroup = emdash;
note = hyphen;
rightKerningGroup = emdash;
unicode = 002D;
},
{
glyphname = period;
lastChange = "2017-01-26 15:47:04 +0000";
layers = (
{
layerId = "C87851D2-2817-4F36-A784-A5AE84D7BDA8";
paths = (
{
closed = 1;
nodes = (
"40 46 OFFCURVE",
"40 38 OFFCURVE",
"42 30 CURVE SMOOTH",
"44 22 OFFCURVE",
"48 16 OFFCURVE",
"53 10 CURVE SMOOTH",
"58 4 OFFCURVE",
"64 0 OFFCURVE",
"71 -3 CURVE SMOOTH",
"78 -6 OFFCURVE",
"86 -8 OFFCURVE",
"95 -8 CURVE SMOOTH",
"104 -8 OFFCURVE",
"112 -6 OFFCURVE",
"120 -3 CURVE SMOOTH",
"128 0 OFFCURVE",
"136 4 OFFCURVE",
"142 10 CURVE SMOOTH",
"148 16 OFFCURVE",
"153 22 OFFCURVE",
"157 30 CURVE SMOOTH",
"161 38 OFFCURVE",
"164 46 OFFCURVE",
"165 55 CURVE SMOOTH",
"166 64 OFFCURVE",
"165 72 OFFCURVE",
"163 80 CURVE SMOOTH",
"161 88 OFFCURVE",
"158 93 OFFCURVE",
"153 99 CURVE SMOOTH",
"148 105 OFFCURVE",
"141 110 OFFCURVE",
"134 113 CURVE SMOOTH",
"127 116 OFFCURVE",
"119 118 OFFCURVE",
"110 118 CURVE SMOOTH",
"101 118 OFFCURVE",
"93 116 OFFCURVE",
"85 113 CURVE SMOOTH",
"77 110 OFFCURVE",
"70 105 OFFCURVE",
"64 99 CURVE SMOOTH",
"58 93 OFFCURVE",
"52 88 OFFCURVE",
"48 80 CURVE SMOOTH",
"44 72 OFFCURVE",
"42 64 OFFCURVE",
"41 55 CURVE SMOOTH"
);
}
);
width = 223;
}
);
leftKerningGroup = comma;
note = period;
rightKerningGroup = comma;
unicode = 002E;
},
{
glyphname = slash;
layers = (
{
layerId = "C87851D2-2817-4F36-A784-A5AE84D7BDA8";
paths = (
{
closed = 1;
nodes = (
"469 736 LINE",
"431 736 LINE SMOOTH",
"420 736 OFFCURVE",
"411 734 OFFCURVE",
"402 728 CURVE SMOOTH",
"393 722 OFFCURVE",
"386 715 OFFCURVE",
"380 704 CURVE SMOOTH",
"-12 -45 LINE",
"26 -45 LINE SMOOTH",
"36 -45 OFFCURVE",
"45 -42 OFFCURVE",
"55 -36 CURVE SMOOTH",
"65 -30 OFFCURVE",
"73 -22 OFFCURVE",
"79 -10 CURVE SMOOTH"
);
}
);
width = 462;
}
);
note = slash;
unicode = 002F;
},
{
glyphname = zero;
layers = (
{
layerId = "C87851D2-2817-4F36-A784-A5AE84D7BDA8";
paths = (
{
closed = 1;
nodes = (
"565 421 OFFCURVE",
"565 475 OFFCURVE",
"557 521 CURVE SMOOTH",
"549 567 OFFCURVE",
"535 605 OFFCURVE",
"515 635 CURVE SMOOTH",
"495 665 OFFCURVE",
"471 687 OFFCURVE",
"441 702 CURVE SMOOTH",
"411 717 OFFCURVE",
"377 724 OFFCURVE",
"341 724 CURVE SMOOTH",
"304 724 OFFCURVE",
"269 717 OFFCURVE",
"236 702 CURVE SMOOTH",
"203 687 OFFCURVE",
"173 665 OFFCURVE",
"146 635 CURVE SMOOTH",
"119 605 OFFCURVE",
"96 567 OFFCURVE",
"77 521 CURVE SMOOTH",
"58 475 OFFCURVE",
"45 421 OFFCURVE",
"37 358 CURVE SMOOTH",
"29 295 OFFCURVE",
"29 241 OFFCURVE",
"37 195 CURVE SMOOTH",
"45 149 OFFCURVE",
"58 111 OFFCURVE",
"78 81 CURVE SMOOTH",
"98 51 OFFCURVE",
"122 29 OFFCURVE",
"152 14 CURVE SMOOTH",
"182 -1 OFFCURVE",
"214 -8 OFFCURVE",
"251 -8 CURVE SMOOTH",
"287 -8 OFFCURVE",
"322 -1 OFFCURVE",
"356 14 CURVE SMOOTH",
"390 29 OFFCURVE",
"420 51 OFFCURVE",
"447 81 CURVE SMOOTH",
"474 111 OFFCURVE",
"498 149 OFFCURVE",
"517 195 CURVE SMOOTH",
"536 241 OFFCURVE",
"549 295 OFFCURVE",
"557 358 CURVE SMOOTH"
);
},
{
closed = 1;
nodes = (
"457 303 OFFCURVE",
"448 257 OFFCURVE",
"434 220 CURVE SMOOTH",
"420 183 OFFCURVE",
"404 154 OFFCURVE",
"386 131 CURVE SMOOTH",
"368 108 OFFCURVE",
"348 92 OFFCURVE",
"326 82 CURVE SMOOTH",
"304 72 OFFCURVE",
"283 67 OFFCURVE",
"261 67 CURVE SMOOTH",
"239 67 OFFCURVE",
"218 72 OFFCURVE",
"199 82 CURVE SMOOTH",
"180 92 OFFCURVE",
"164 108 OFFCURVE",
"151 131 CURVE SMOOTH",
"138 154 OFFCURVE",
"131 183 OFFCURVE",
"126 220 CURVE SMOOTH",
"121 257 OFFCURVE",
"122 303 OFFCURVE",
"129 358 CURVE SMOOTH",
"136 413 OFFCURVE",
"145 459 OFFCURVE",
"159 496 CURVE SMOOTH",
"173 533 OFFCURVE",
"189 562 OFFCURVE",
"207 585 CURVE SMOOTH",
"225 608 OFFCURVE",
"245 624 OFFCURVE",
"267 634 CURVE SMOOTH",
"289 644 OFFCURVE",
"310 649 OFFCURVE",
"332 649 CURVE SMOOTH",
"354 649 OFFCURVE",
"375 644 OFFCURVE",
"394 634 CURVE SMOOTH",
"413 624 OFFCURVE",
"428 608 OFFCURVE",
"441 585 CURVE SMOOTH",
"454 562 OFFCURVE",
"462 533 OFFCURVE",
"467 496 CURVE SMOOTH",
"472 459 OFFCURVE",
"471 413 OFFCURVE",
"464 358 CURVE SMOOTH"
);
}
);
width = 597;
}
);
note = zero;
unicode = 0030;
},
{
glyphname = one;
layers = (
{
layerId = "C87851D2-2817-4F36-A784-A5AE84D7BDA8";
paths = (
{
closed = 1;
nodes = (
"372 59 OFFCURVE",
"330 62 OFFCURVE",
"252 68 CURVE",
"332 718 LINE",
"260 718 LINE",
"24 534 LINE",
"47 495 LINE SMOOTH",
"51 488 OFFCURVE",
"59 484 OFFCURVE",
"70 484 CURVE SMOOTH",
"76 484 OFFCURVE",
"82 487 OFFCURVE",
"89 492 CURVE",
"230 601 LINE",
"227 586 OFFCURVE",
"225 571 OFFCURVE",
"223 556 CURVE SMOOTH",
"163 68 LINE",
"22 58 LINE",
"12 56 OFFCURVE",
"7 50 OFFCURVE",
"6 40 CURVE SMOOTH",
"5 30 LINE",
"1 0 LINE",
"385 0 LINE",
"390 40 LINE SMOOTH",
"391 50 OFFCURVE",
"387 56 OFFCURVE",
"378 58 CURVE"
);
}
);
width = 419;
}
);
note = one;
unicode = 0031;
},
{
glyphname = two;
layers = (
{
layerId = "C87851D2-2817-4F36-A784-A5AE84D7BDA8";
paths = (
{
closed = 1;
nodes = (
"340 265 LINE SMOOTH",
"401 320 OFFCURVE",
"463 375 OFFCURVE",
"499 451 CURVE SMOOTH",
"519 492 OFFCURVE",
"531 558 OFFCURVE",
"514 609 CURVE SMOOTH",
"491 682 OFFCURVE",
"426 724 OFFCURVE",
"330 724 CURVE SMOOTH",
"299 724 OFFCURVE",
"271 720 OFFCURVE",
"243 711 CURVE SMOOTH",
"155 683 OFFCURVE",
"96 615 OFFCURVE",
"71 522 CURVE",
"117 514 LINE",
"121 513 OFFCURVE",
"124 513 OFFCURVE",
"128 513 CURVE SMOOTH",
"148 513 OFFCURVE",
"157 525 OFFCURVE",
"164 541 CURVE",
"169 557 OFFCURVE",
"177 571 OFFCURVE",
"187 584 CURVE SMOOTH",
"213 619 OFFCURVE",
"256 648 OFFCURVE",
"316 648 CURVE SMOOTH",
"374 648 OFFCURVE",
"412 623 OFFCURVE",
"426 578 CURVE SMOOTH",
"437 540 OFFCURVE",
"426 493 OFFCURVE",
"413 463 CURVE SMOOTH",
"383 395 OFFCURVE",
"329 348 OFFCURVE",
"275 299 CURVE SMOOTH",
"17 68 LINE",
"6 59 OFFCURVE",
"-2 47 OFFCURVE",
"-4 31 CURVE SMOOTH",
"-8 0 LINE",
"470 0 LINE",
"477 62 LINE SMOOTH",
"481 95 OFFCURVE",
"485 126 OFFCURVE",
"489 159 CURVE",
"441 159 LINE SMOOTH",
"431 159 OFFCURVE",
"421 152 OFFCURVE",
"418 142 CURVE",
"417 138 OFFCURVE",
"412 112 OFFCURVE",
"406 84 CURVE",
"209 84 LINE SMOOTH",
"180 84 OFFCURVE",
"152 79 OFFCURVE",
"128 73 CURVE"
);
}
);
width = 546;
}
);
note = two;
unicode = 0032;
},
{
glyphname = three;
layers = (
{
layerId = "C87851D2-2817-4F36-A784-A5AE84D7BDA8";
paths = (
{
closed = 1;
nodes = (
"287 724 OFFCURVE",
"259 720 OFFCURVE",
"231 711 CURVE SMOOTH",
"203 702 OFFCURVE",
"179 689 OFFCURVE",
"156 672 CURVE SMOOTH",
"133 655 OFFCURVE",
"113 634 OFFCURVE",
"97 609 CURVE SMOOTH",
"81 584 OFFCURVE",
"69 555 OFFCURVE",
"60 522 CURVE",
"105 514 LINE",
"111 514 LINE",
"117 514 LINE SMOOTH",
"125 514 OFFCURVE",
"132 516 OFFCURVE",
"138 520 CURVE SMOOTH",
"144 524 OFFCURVE",
"148 531 OFFCURVE",
"152 541 CURVE SMOOTH",
"158 556 OFFCURVE",
"166 571 OFFCURVE",
"176 584 CURVE SMOOTH",
"186 597 OFFCURVE",
"197 608 OFFCURVE",
"210 618 CURVE",
"223 627 OFFCURVE",
"237 635 OFFCURVE",
"253 640 CURVE SMOOTH",
"269 645 OFFCURVE",
"286 648 OFFCURVE",
"304 648 CURVE SMOOTH",
"322 648 OFFCURVE",
"338 645 OFFCURVE",
"353 640 CURVE SMOOTH",
"368 635 OFFCURVE",
"381 628 OFFCURVE",
"391 618 CURVE SMOOTH",
"401 608 OFFCURVE",
"408 595 OFFCURVE",
"413 580 CURVE SMOOTH",
"418 565 OFFCURVE",
"419 547 OFFCURVE",
"416 526 CURVE",
"414 507 OFFCURVE",
"409 490 OFFCURVE",
"401 475 CURVE SMOOTH",
"393 460 OFFCURVE",
"381 447 OFFCURVE",
"366 436 CURVE SMOOTH",
"351 425 OFFCURVE",
"332 416 OFFCURVE",
"310 410 CURVE SMOOTH",
"288 404 OFFCURVE",
"261 400 OFFCURVE",
"231 400 CURVE",
"223 335 LINE",
"260 335 OFFCURVE",
"291 332 OFFCURVE",
"314 325 CURVE SMOOTH",
"337 318 OFFCURVE",
"354 310 OFFCURVE",
"366 298 CURVE SMOOTH",
"378 286 OFFCURVE",
"386 272 OFFCURVE",
"389 256 CURVE SMOOTH",
"392 240 OFFCURVE",
"392 222 OFFCURVE",
"390 203 CURVE SMOOTH",
"388 187 OFFCURVE",
"383 172 OFFCURVE",
"375 156 CURVE SMOOTH",
"367 140 OFFCURVE",
"356 125 OFFCURVE",
"342 112 CURVE SMOOTH",
"328 99 OFFCURVE",
"311 88 OFFCURVE",
"291 80 CURVE SMOOTH",
"271 72 OFFCURVE",
"248 68 OFFCURVE",
"223 68 CURVE SMOOTH",
"198 68 OFFCURVE",
"178 72 OFFCURVE",
"162 79 CURVE SMOOTH",
"146 86 OFFCURVE",
"133 95 OFFCURVE",
"123 106 CURVE SMOOTH",
"113 117 OFFCURVE",
"105 128 OFFCURVE",
"100 140 CURVE SMOOTH",
"95 152 OFFCURVE",
"90 163 OFFCURVE",
"87 173 CURVE",
"87 175 OFFCURVE",
"86 176 OFFCURVE",
"86 178 CURVE SMOOTH",
"86 179 OFFCURVE",
"85 181 OFFCURVE",
"84 182 CURVE",
"82 188 OFFCURVE",
"79 192 OFFCURVE",
"74 195 CURVE SMOOTH",
"69 198 OFFCURVE",
"64 199 OFFCURVE",
"57 199 CURVE SMOOTH",
"50 199 OFFCURVE",
"42 198 OFFCURVE",
"35 195 CURVE SMOOTH",
"-4 179 LINE",
"1 152 OFFCURVE",
"8 128 OFFCURVE",
"17 105 CURVE SMOOTH",
"26 82 OFFCURVE",
"39 62 OFFCURVE",
"56 45 CURVE SMOOTH",
"73 28 OFFCURVE",
"93 16 OFFCURVE",
"119 6 CURVE SMOOTH",
"145 -4 OFFCURVE",
"177 -8 OFFCURVE",
"215 -8 CURVE SMOOTH",
"248 -8 OFFCURVE",
"280 -3 OFFCURVE",
"310 7 CURVE SMOOTH",
"340 17 OFFCURVE",
"367 31 OFFCURVE",
"391 49 CURVE SMOOTH",
"415 67 OFFCURVE",
"434 90 OFFCURVE",
"450 116 CURVE SMOOTH",
"466 142 OFFCURVE",
"476 172 OFFCURVE",
"480 205 CURVE SMOOTH",
"485 249 OFFCURVE",
"478 285 OFFCURVE",
"458 314 CURVE SMOOTH",
"438 343 OFFCURVE",
"405 364 OFFCURVE",
"360 376 CURVE",
"380 382 OFFCURVE",
"399 390 OFFCURVE",
"415 399 CURVE SMOOTH",
"431 408 OFFCURVE",
"446 419 OFFCURVE",
"458 433 CURVE SMOOTH",
"470 447 OFFCURVE",
"481 462 OFFCURVE",
"489 480 CURVE SMOOTH",
"497 498 OFFCURVE",
"502 518 OFFCURVE",
"505 541 CURVE SMOOTH",
"508 569 OFFCURVE",
"507 593 OFFCURVE",
"499 616 CURVE SMOOTH",
"491 639 OFFCURVE",
"480 658 OFFCURVE",
"463 674 CURVE SMOOTH",
"446 690 OFFCURVE",
"426 702 OFFCURVE",
"401 711 CURVE SMOOTH",
"376 720 OFFCURVE",
"348 724 OFFCURVE",
"318 724 CURVE SMOOTH"
);
}
);
width = 536;
}
);
note = three;
unicode = 0033;
},
{
glyphname = four;
layers = (
{
layerId = "C87851D2-2817-4F36-A784-A5AE84D7BDA8";
paths = (
{
closed = 1;
nodes = (
"435 258 LINE",
"491 716 LINE",
"408 716 LINE",
"3 254 LINE",
"6 208 LINE",
"7 202 OFFCURVE",
"10 198 OFFCURVE",
"14 194 CURVE SMOOTH",
"18 190 OFFCURVE",
"23 188 OFFCURVE",
"30 188 CURVE SMOOTH",
"348 188 LINE",
"325 0 LINE",
"403 0 LINE",
"426 188 LINE",
"515 188 LINE SMOOTH",
"522 188 OFFCURVE",
"527 190 OFFCURVE",
"531 194 CURVE SMOOTH",
"535 198 OFFCURVE",
"536 203 OFFCURVE",
"537 208 CURVE",
"544 258 LINE"
);
},
{
closed = 1;
nodes = (
"357 258 LINE",
"100 258 LINE",
"404 613 LINE",
"401 602 OFFCURVE",
"399 592 OFFCURVE",
"397 582 CURVE SMOOTH",
"395 572 OFFCURVE",
"394 563 OFFCURVE",
"393 554 CURVE SMOOTH"
);
}
);
width = 553;
}
);
note = four;
unicode = 0034;
},
{
glyphname = five;
layers = (
{
layerId = "C87851D2-2817-4F36-A784-A5AE84D7BDA8";
paths = (
{
closed = 1;
nodes = (
"507 716 LINE",
"167 716 LINE",
"68 382 LINE",
"122 365 LINE",
"143 372 OFFCURVE",
"164 377 OFFCURVE",
"184 380 CURVE SMOOTH",
"204 383 OFFCURVE",
"222 384 OFFCURVE",
"240 384 CURVE SMOOTH",
"266 384 OFFCURVE",
"289 381 OFFCURVE",
"308 374 CURVE SMOOTH",
"327 367 OFFCURVE",
"342 357 OFFCURVE",
"354 344 CURVE SMOOTH",
"366 331 OFFCURVE",
"374 316 OFFCURVE",
"378 298 CURVE SMOOTH",
"382 280 OFFCURVE",
"383 260 OFFCURVE",
"380 238 CURVE SMOOTH",
"377 212 OFFCURVE",
"370 189 OFFCURVE",
"360 168 CURVE SMOOTH",
"350 147 OFFCURVE",
"337 130 OFFCURVE",
"321 115 CURVE SMOOTH",
"305 100 OFFCURVE",
"286 88 OFFCURVE",
"265 80 CURVE SMOOTH",
"244 72 OFFCURVE",
"221 68 OFFCURVE",
"196 68 CURVE SMOOTH",
"174 68 OFFCURVE",
"155 71 OFFCURVE",
"139 76 CURVE SMOOTH",
"123 81 OFFCURVE",
"110 88 OFFCURVE",
"99 94 CURVE SMOOTH",
"88 100 OFFCURVE",
"79 106 OFFCURVE",
"71 111 CURVE SMOOTH",
"63 116 OFFCURVE",
"55 119 OFFCURVE",
"49 119 CURVE SMOOTH",
"39 119 OFFCURVE",
"31 115 OFFCURVE",
"24 106 CURVE",
"-8 68 LINE",
"2 58 OFFCURVE",
"13 48 OFFCURVE",
"26 39 CURVE SMOOTH",
"39 30 OFFCURVE",
"54 22 OFFCURVE",
"70 15 CURVE SMOOTH",
"86 8 OFFCURVE",
"103 2 OFFCURVE",
"122 -2 CURVE SMOOTH",
"141 -6 OFFCURVE",
"161 -8 OFFCURVE",
"182 -8 CURVE SMOOTH",
"218 -8 OFFCURVE",
"252 -2 OFFCURVE",
"285 10 CURVE SMOOTH",
"318 22 OFFCURVE",
"347 38 OFFCURVE",
"373 60 CURVE SMOOTH",
"399 82 OFFCURVE",
"421 108 OFFCURVE",
"438 139 CURVE SMOOTH",
"455 170 OFFCURVE",
"465 204 OFFCURVE",
"470 242 CURVE SMOOTH",
"474 273 OFFCURVE",
"473 302 OFFCURVE",
"466 328 CURVE SMOOTH",
"459 354 OFFCURVE",
"448 377 OFFCURVE",
"431 396 CURVE SMOOTH",
"414 415 OFFCURVE",
"392 431 OFFCURVE",
"365 442 CURVE SMOOTH",
"338 453 OFFCURVE",
"305 458 OFFCURVE",
"268 458 CURVE SMOOTH",
"236 458 OFFCURVE",
"201 454 OFFCURVE",
"163 446 CURVE",
"219 634 LINE",
"444 634 LINE SMOOTH",
"463 634 OFFCURVE",
"477 638 OFFCURVE",
"486 646 CURVE SMOOTH",
"495 654 OFFCURVE",
"500 665 OFFCURVE",
"502 678 CURVE SMOOTH"
);
}
);
width = 522;
}
);
note = five;
unicode = 0035;
},
{
glyphname = six;
layers = (
{
layerId = "C87851D2-2817-4F36-A784-A5AE84D7BDA8";
paths = (
{
closed = 1;
nodes = (
"289 439 OFFCURVE",
"266 435 OFFCURVE",
"245 429 CURVE SMOOTH",
"224 423 OFFCURVE",
"203 414 OFFCURVE",
"185 402 CURVE",
"472 716 LINE",
"393 716 LINE SMOOTH",
"382 716 OFFCURVE",
"373 714 OFFCURVE",
"364 710 CURVE SMOOTH",
"355 706 OFFCURVE",
"347 701 OFFCURVE",
"342 695 CURVE SMOOTH",
"131 450 LINE SMOOTH",
"96 409 OFFCURVE",
"68 371 OFFCURVE",
"50 336 CURVE SMOOTH",
"32 301 OFFCURVE",
"21 267 OFFCURVE",
"17 236 CURVE SMOOTH",
"12 199 OFFCURVE",
"14 165 OFFCURVE",
"21 135 CURVE SMOOTH",
"28 105 OFFCURVE",
"42 79 OFFCURVE",
"60 58 CURVE SMOOTH",
"78 37 OFFCURVE",
"100 21 OFFCURVE",
"128 9 CURVE SMOOTH",
"156 -3 OFFCURVE",
"188 -8 OFFCURVE",
"224 -8 CURVE SMOOTH",
"260 -8 OFFCURVE",
"294 -2 OFFCURVE",
"326 10 CURVE SMOOTH",
"358 22 OFFCURVE",
"386 39 OFFCURVE",
"410 60 CURVE SMOOTH",
"434 81 OFFCURVE",
"454 106 OFFCURVE",
"469 134 CURVE SMOOTH",
"484 162 OFFCURVE",
"495 193 OFFCURVE",
"499 226 CURVE SMOOTH",
"503 260 OFFCURVE",
"501 290 OFFCURVE",
"493 316 CURVE SMOOTH",
"485 342 OFFCURVE",
"472 365 OFFCURVE",
"455 383 CURVE SMOOTH",
"438 401 OFFCURVE",
"417 415 OFFCURVE",
"393 425 CURVE SMOOTH",
"369 435 OFFCURVE",
"342 439 OFFCURVE",
"313 439 CURVE SMOOTH"
);
},
{
closed = 1;
nodes = (
"103 241 OFFCURVE",
"110 260 OFFCURVE",
"119 278 CURVE SMOOTH",
"128 296 OFFCURVE",
"141 312 OFFCURVE",
"156 326 CURVE SMOOTH",
"171 340 OFFCURVE",
"189 351 OFFCURVE",
"209 359 CURVE SMOOTH",
"229 367 OFFCURVE",
"252 371 OFFCURVE",
"276 371 CURVE SMOOTH",
"298 371 OFFCURVE",
"318 368 OFFCURVE",
"336 361 CURVE SMOOTH",
"354 354 OFFCURVE",
"368 343 OFFCURVE",
"380 330 CURVE SMOOTH",
"392 317 OFFCURVE",
"400 301 OFFCURVE",
"405 282 CURVE SMOOTH",
"410 263 OFFCURVE",
"411 242 OFFCURVE",
"408 219 CURVE SMOOTH",
"405 197 OFFCURVE",
"400 177 OFFCURVE",
"390 158 CURVE SMOOTH",
"380 139 OFFCURVE",
"368 124 OFFCURVE",
"352 110 CURVE SMOOTH",
"336 96 OFFCURVE",
"318 86 OFFCURVE",
"298 78 CURVE SMOOTH",
"278 70 OFFCURVE",
"256 66 OFFCURVE",
"232 66 CURVE SMOOTH",
"208 66 OFFCURVE",
"188 69 OFFCURVE",
"170 77 CURVE SMOOTH",
"152 85 OFFCURVE",
"138 95 OFFCURVE",
"127 109 CURVE SMOOTH",
"116 123 OFFCURVE",
"107 139 OFFCURVE",
"103 158 CURVE SMOOTH",
"99 177 OFFCURVE",
"98 198 OFFCURVE",
"101 221 CURVE SMOOTH"
);
}
);
width = 523;
}
);
note = six;
unicode = 0036;
},
{
glyphname = seven;
layers = (
{
layerId = "C87851D2-2817-4F36-A784-A5AE84D7BDA8";
paths = (
{
closed = 1;
nodes = (
"53 716 LINE",
"32 542 LINE",
"81 542 LINE SMOOTH",
"92 542 OFFCURVE",
"99 548 OFFCURVE",
"103 559 CURVE",
"105 563 OFFCURVE",
"110 588 OFFCURVE",
"119 634 CURVE",
"439 634 LINE",
"428 623 OFFCURVE",
"418 609 OFFCURVE",
"406 591 CURVE SMOOTH",
"32 0 LINE",
"96 0 LINE SMOOTH",
"118 0 OFFCURVE",
"135 11 OFFCURVE",
"148 32 CURVE SMOOTH",
"518 630 LINE SMOOTH",
"527 644 OFFCURVE",
"534 659 OFFCURVE",
"536 676 CURVE SMOOTH",
"540 716 LINE"
);
}
);
width = 541;
}
);
note = seven;
unicode = 0037;
},
{
glyphname = eight;
layers = (
{
layerId = "C87851D2-2817-4F36-A784-A5AE84D7BDA8";
paths = (
{
closed = 1;
nodes = (
"268 -8 OFFCURVE",
"300 -4 OFFCURVE",
"331 6 CURVE SMOOTH",
"362 16 OFFCURVE",
"390 29 OFFCURVE",
"413 47 CURVE SMOOTH",
"436 65 OFFCURVE",
"455 86 OFFCURVE",
"470 111 CURVE SMOOTH",
"485 136 OFFCURVE",
"494 165 OFFCURVE",
"498 196 CURVE SMOOTH",
"504 242 OFFCURVE",
"496 280 OFFCURVE",
"476 310 CURVE SMOOTH",
"456 340 OFFCURVE",
"424 361 OFFCURVE",
"381 374 CURVE",
"420 388 OFFCURVE",
"451 408 OFFCURVE",
"474 436 CURVE SMOOTH",
"497 464 OFFCURVE",
"510 497 OFFCURVE",
"515 536 CURVE SMOOTH",
"518 562 OFFCURVE",
"517 587 OFFCURVE",
"509 610 CURVE SMOOTH",
"501 633 OFFCURVE",
"489 653 OFFCURVE",
"472 670 CURVE SMOOTH",
"455 687 OFFCURVE",
"433 700 OFFCURVE",
"408 710 CURVE SMOOTH",
"383 720 OFFCURVE",
"354 724 OFFCURVE",
"322 724 CURVE SMOOTH",
"289 724 OFFCURVE",
"259 720 OFFCURVE",
"231 710 CURVE SMOOTH",
"203 700 OFFCURVE",
"179 687 OFFCURVE",
"158 670 CURVE SMOOTH",
"137 653 OFFCURVE",
"120 633 OFFCURVE",
"107 610 CURVE SMOOTH",
"94 587 OFFCURVE",
"85 562 OFFCURVE",
"82 536 CURVE SMOOTH",
"77 497 OFFCURVE",
"83 464 OFFCURVE",
"99 436 CURVE SMOOTH",
"115 408 OFFCURVE",
"140 387 OFFCURVE",
"176 373 CURVE",
"130 360 OFFCURVE",
"93 340 OFFCURVE",
"65 310 CURVE SMOOTH",
"37 280 OFFCURVE",
"21 242 OFFCURVE",
"15 196 CURVE SMOOTH",
"11 165 OFFCURVE",
"13 136 OFFCURVE",
"22 111 CURVE SMOOTH",
"31 86 OFFCURVE",
"45 65 OFFCURVE",
"64 47 CURVE SMOOTH",
"83 29 OFFCURVE",
"107 16 OFFCURVE",
"135 6 CURVE SMOOTH",
"164 -4 OFFCURVE",
"196 -8 OFFCURVE",
"232 -8 CURVE SMOOTH"
);
},
{
closed = 1;
nodes = (
"217 63 OFFCURVE",
"197 67 OFFCURVE",
"179 73 CURVE SMOOTH",
"161 79 OFFCURVE",
"146 88 OFFCURVE",
"135 100 CURVE SMOOTH",
"124 112 OFFCURVE",
"116 127 OFFCURVE",
"111 143 CURVE SMOOTH",
"106 159 OFFCURVE",
"105 177 OFFCURVE",
"107 197 CURVE SMOOTH",
"110 222 OFFCURVE",
"117 243 OFFCURVE",
"127 261 CURVE SMOOTH",
"137 279 OFFCURVE",
"151 292 OFFCURVE",
"166 303 CURVE SMOOTH",
"181 314 OFFCURVE",
"197 323 OFFCURVE",
"216 328 CURVE SMOOTH",
"235 333 OFFCURVE",
"254 335 OFFCURVE",
"274 335 CURVE SMOOTH",
"294 335 OFFCURVE",
"312 333 OFFCURVE",
"329 328 CURVE SMOOTH",
"346 323 OFFCURVE",
"362 314 OFFCURVE",
"374 303 CURVE SMOOTH",
"386 292 OFFCURVE",
"396 279 OFFCURVE",
"402 261 CURVE SMOOTH",
"408 243 OFFCURVE",
"409 222 OFFCURVE",
"406 197 CURVE SMOOTH",
"404 177 OFFCURVE",
"398 159 OFFCURVE",
"389 143 CURVE SMOOTH",
"380 127 OFFCURVE",
"369 112 OFFCURVE",
"355 100 CURVE SMOOTH",
"341 88 OFFCURVE",
"323 79 OFFCURVE",
"304 73 CURVE SMOOTH",
"285 67 OFFCURVE",
"263 63 OFFCURVE",
"240 63 CURVE SMOOTH"
);
},
{
closed = 1;
nodes = (
"260 407 OFFCURVE",
"240 411 OFFCURVE",
"224 418 CURVE SMOOTH",
"208 425 OFFCURVE",
"197 434 OFFCURVE",
"188 446 CURVE SMOOTH",
"179 458 OFFCURVE",
"173 472 OFFCURVE",
"170 487 CURVE SMOOTH",
"167 502 OFFCURVE",
"167 518 OFFCURVE",
"169 534 CURVE SMOOTH",
"171 551 OFFCURVE",
"176 566 OFFCURVE",
"183 581 CURVE SMOOTH",
"190 596 OFFCURVE",
"200 609 OFFCURVE",
"212 620 CURVE SMOOTH",
"224 631 OFFCURVE",
"239 640 OFFCURVE",
"256 646 CURVE SMOOTH",
"273 652 OFFCURVE",
"292 655 OFFCURVE",
"313 655 CURVE SMOOTH",
"334 655 OFFCURVE",
"353 652 OFFCURVE",
"368 646 CURVE SMOOTH",
"383 640 OFFCURVE",
"397 631 OFFCURVE",
"406 620 CURVE SMOOTH",
"415 609 OFFCURVE",
"421 596 OFFCURVE",
"425 581 CURVE SMOOTH",
"429 566 OFFCURVE",
"430 551 OFFCURVE",
"428 534 CURVE SMOOTH",
"426 518 OFFCURVE",
"422 502 OFFCURVE",
"415 487 CURVE SMOOTH",
"408 472 OFFCURVE",
"400 458 OFFCURVE",
"388 446 CURVE SMOOTH",
"376 434 OFFCURVE",
"361 425 OFFCURVE",
"344 418 CURVE SMOOTH",
"327 411 OFFCURVE",
"306 407 OFFCURVE",
"283 407 CURVE SMOOTH"
);
}
);
width = 550;
}
);
note = eight;
unicode = 0038;
},
{
glyphname = nine;
layers = (
{
layerId = "C87851D2-2817-4F36-A784-A5AE84D7BDA8";
paths = (
{
closed = 1;
nodes = (
"236 294 OFFCURVE",
"261 298 OFFCURVE",
"285 306 CURVE SMOOTH",
"309 314 OFFCURVE",
"331 324 OFFCURVE",
"351 339 CURVE",
"344 330 OFFCURVE",
"337 322 OFFCURVE",
"330 313 CURVE SMOOTH",
"323 304 OFFCURVE",
"315 296 OFFCURVE",
"306 286 CURVE SMOOTH",
"53 0 LINE",
"135 0 LINE SMOOTH",
"145 0 OFFCURVE",
"155 2 OFFCURVE",
"163 6 CURVE SMOOTH",
"171 10 OFFCURVE",
"178 15 OFFCURVE",
"183 21 CURVE SMOOTH",
"389 273 LINE SMOOTH",
"404 292 OFFCURVE",
"418 309 OFFCURVE",
"430 327 CURVE SMOOTH",
"442 345 OFFCURVE",
"453 362 OFFCURVE",
"463 380 CURVE SMOOTH",
"473 398 OFFCURVE",
"480 415 OFFCURVE",
"486 434 CURVE SMOOTH",
"492 452 OFFCURVE",
"496 472 OFFCURVE",
"499 493 CURVE SMOOTH",
"503 527 OFFCURVE",
"502 559 OFFCURVE",
"495 587 CURVE SMOOTH",
"488 615 OFFCURVE",
"475 640 OFFCURVE",
"457 660 CURVE SMOOTH",
"439 680 OFFCURVE",
"418 697 OFFCURVE",
"391 708 CURVE SMOOTH",
"364 719 OFFCURVE",
"334 725 OFFCURVE",
"300 725 CURVE SMOOTH",
"265 725 OFFCURVE",
"232 719 OFFCURVE",
"202 707 CURVE SMOOTH",
"172 695 OFFCURVE",
"144 679 OFFCURVE",
"121 659 CURVE SMOOTH",
"98 639 OFFCURVE",
"78 615 OFFCURVE",
"63 588 CURVE SMOOTH",
"48 561 OFFCURVE",
"39 531 OFFCURVE",
"35 500 CURVE SMOOTH",
"31 467 OFFCURVE",
"33 438 OFFCURVE",
"41 412 CURVE SMOOTH",
"49 386 OFFCURVE",
"60 365 OFFCURVE",
"76 347 CURVE SMOOTH",
"92 329 OFFCURVE",
"112 317 OFFCURVE",
"135 308 CURVE SMOOTH",
"158 299 OFFCURVE",
"183 294 OFFCURVE",
"210 294 CURVE SMOOTH"
);
},
{
closed = 1;
nodes = (
"413 486 OFFCURVE",
"408 468 OFFCURVE",
"399 451 CURVE SMOOTH",
"390 434 OFFCURVE",
"378 419 OFFCURVE",
"364 406 CURVE SMOOTH",
"350 393 OFFCURVE",
"332 382 OFFCURVE",
"313 374 CURVE SMOOTH",
"294 366 OFFCURVE",
"272 363 OFFCURVE",
"248 363 CURVE SMOOTH",
"226 363 OFFCURVE",
"208 366 OFFCURVE",
"191 372 CURVE SMOOTH",
"174 378 OFFCURVE",
"161 388 OFFCURVE",
"150 400 CURVE SMOOTH",
"139 412 OFFCURVE",
"131 427 OFFCURVE",
"127 445 CURVE SMOOTH",
"123 463 OFFCURVE",
"122 483 OFFCURVE",
"125 506 CURVE SMOOTH",
"128 527 OFFCURVE",
"134 546 OFFCURVE",
"143 564 CURVE SMOOTH",
"152 582 OFFCURVE",
"164 597 OFFCURVE",
"178 610 CURVE SMOOTH",
"192 623 OFFCURVE",
"209 632 OFFCURVE",
"228 639 CURVE SMOOTH",
"247 646 OFFCURVE",
"268 650 OFFCURVE",
"290 650 CURVE SMOOTH",
"311 650 OFFCURVE",
"329 647 OFFCURVE",
"346 640 CURVE SMOOTH",
"363 633 OFFCURVE",
"377 624 OFFCURVE",
"388 611 CURVE SMOOTH",
"399 598 OFFCURVE",
"407 582 OFFCURVE",
"412 564 CURVE SMOOTH",
"417 546 OFFCURVE",
"418 526 OFFCURVE",
"415 504 CURVE SMOOTH"
);
}
);
width = 520;
}
);
note = nine;
unicode = 0039;
},
{
glyphname = colon;
layers = (
{
layerId = "C87851D2-2817-4F36-A784-A5AE84D7BDA8";
paths = (
{
closed = 1;
nodes = (
"29 46 OFFCURVE",
"30 38 OFFCURVE",
"32 30 CURVE SMOOTH",
"34 22 OFFCURVE",
"37 16 OFFCURVE",
"42 10 CURVE SMOOTH",
"47 4 OFFCURVE",
"53 0 OFFCURVE",
"60 -3 CURVE SMOOTH",
"67 -6 OFFCURVE",
"75 -8 OFFCURVE",
"84 -8 CURVE SMOOTH",
"93 -8 OFFCURVE",
"101 -6 OFFCURVE",
"109 -3 CURVE SMOOTH",
"117 0 OFFCURVE",
"125 4 OFFCURVE",
"131 10 CURVE SMOOTH",
"137 16 OFFCURVE",
"143 22 OFFCURVE",
"147 30 CURVE SMOOTH",
"151 38 OFFCURVE",
"154 46 OFFCURVE",
"155 55 CURVE SMOOTH",
"156 64 OFFCURVE",
"155 72 OFFCURVE",
"153 80 CURVE SMOOTH",
"151 88 OFFCURVE",
"147 93 OFFCURVE",
"142 99 CURVE SMOOTH",
"137 105 OFFCURVE",
"131 110 OFFCURVE",
"124 113 CURVE SMOOTH",
"117 116 OFFCURVE",
"109 118 OFFCURVE",
"100 118 CURVE SMOOTH",
"91 118 OFFCURVE",
"83 116 OFFCURVE",
"75 113 CURVE SMOOTH",
"67 110 OFFCURVE",
"59 105 OFFCURVE",
"53 99 CURVE SMOOTH",
"47 93 OFFCURVE",
"42 88 OFFCURVE",
"38 80 CURVE SMOOTH",
"34 72 OFFCURVE",
"31 64 OFFCURVE",
"30 55 CURVE SMOOTH"
);
},
{
closed = 1;
nodes = (
"75 421 OFFCURVE",
"76 413 OFFCURVE",
"78 405 CURVE SMOOTH",
"80 397 OFFCURVE",
"83 392 OFFCURVE",
"88 386 CURVE SMOOTH",
"93 380 OFFCURVE",
"99 375 OFFCURVE",
"106 372 CURVE SMOOTH",
"113 369 OFFCURVE",
"121 368 OFFCURVE",
"130 368 CURVE SMOOTH",
"139 368 OFFCURVE",
"147 369 OFFCURVE",
"155 372 CURVE SMOOTH",
"163 375 OFFCURVE",
"171 380 OFFCURVE",
"177 386 CURVE SMOOTH",
"183 392 OFFCURVE",
"189 397 OFFCURVE",
"193 405 CURVE SMOOTH",
"197 413 OFFCURVE",
"200 421 OFFCURVE",
"201 430 CURVE SMOOTH",
"202 439 OFFCURVE",
"201 447 OFFCURVE",
"199 455 CURVE SMOOTH",
"197 463 OFFCURVE",
"193 469 OFFCURVE",
"188 475 CURVE SMOOTH",
"183 481 OFFCURVE",
"177 485 OFFCURVE",
"170 488 CURVE SMOOTH",
"163 491 OFFCURVE",
"155 493 OFFCURVE",
"146 493 CURVE SMOOTH",
"137 493 OFFCURVE",
"129 491 OFFCURVE",
"121 488 CURVE SMOOTH",
"113 485 OFFCURVE",
"105 481 OFFCURVE",
"99 475 CURVE SMOOTH",
"93 469 OFFCURVE",
"88 463 OFFCURVE",
"84 455 CURVE SMOOTH",
"80 447 OFFCURVE",
"77 439 OFFCURVE",
"76 430 CURVE SMOOTH"
);
}
);
width = 239;
}
);
note = colon;
unicode = 003A;
},
{
glyphname = semicolon;
layers = (
{
layerId = "C87851D2-2817-4F36-A784-A5AE84D7BDA8";
paths = (
{
closed = 1;
nodes = (
"38 53 OFFCURVE",
"38 45 OFFCURVE",
"40 37 CURVE SMOOTH",
"42 29 OFFCURVE",
"46 23 OFFCURVE",
"50 17 CURVE SMOOTH",
"54 11 OFFCURVE",
"59 7 OFFCURVE",
"66 4 CURVE SMOOTH",
"73 1 OFFCURVE",
"80 0 OFFCURVE",
"89 0 CURVE SMOOTH",
"96 0 LINE",
"93 -11 OFFCURVE",
"88 -21 OFFCURVE",
"82 -31 CURVE SMOOTH",
"76 -41 OFFCURVE",
"70 -50 OFFCURVE",
"64 -58 CURVE SMOOTH",
"58 -66 OFFCURVE",
"52 -73 OFFCURVE",
"46 -79 CURVE SMOOTH",
"31 -94 LINE SMOOTH",
"26 -99 OFFCURVE",
"24 -103 OFFCURVE",
"23 -107 CURVE",
"22 -112 OFFCURVE",
"23 -117 OFFCURVE",
"27 -121 CURVE SMOOTH",
"41 -136 LINE",
"58 -123 OFFCURVE",
"72 -109 OFFCURVE",
"86 -94 CURVE SMOOTH",
"100 -79 OFFCURVE",
"111 -64 OFFCURVE",
"121 -48 CURVE SMOOTH",
"131 -32 OFFCURVE",
"140 -16 OFFCURVE",
"146 0 CURVE SMOOTH",
"152 16 OFFCURVE",
"156 32 OFFCURVE",
"158 47 CURVE SMOOTH",
"159 57 OFFCURVE",
"159 67 OFFCURVE",
"157 75 CURVE SMOOTH",
"155 83 OFFCURVE",
"152 91 OFFCURVE",
"148 97 CURVE SMOOTH",
"144 103 OFFCURVE",
"138 109 OFFCURVE",
"131 113 CURVE SMOOTH",
"124 117 OFFCURVE",
"115 118 OFFCURVE",
"105 118 CURVE SMOOTH",
"96 118 OFFCURVE",
"88 117 OFFCURVE",
"80 114 CURVE SMOOTH",
"72 111 OFFCURVE",
"66 106 OFFCURVE",
"60 101 CURVE SMOOTH",
"54 96 OFFCURVE",
"50 90 OFFCURVE",
"46 83 CURVE SMOOTH",
"42 76 OFFCURVE",
"40 70 OFFCURVE",
"39 62 CURVE SMOOTH"
);
},
{
closed = 1;
nodes = (
"80 421 OFFCURVE",
"81 413 OFFCURVE",
"83 405 CURVE SMOOTH",
"85 397 OFFCURVE",
"88 392 OFFCURVE",
"93 386 CURVE SMOOTH",
"98 380 OFFCURVE",
"104 375 OFFCURVE",
"111 372 CURVE SMOOTH",
"118 369 OFFCURVE",
"126 368 OFFCURVE",
"135 368 CURVE SMOOTH",
"144 368 OFFCURVE",
"152 369 OFFCURVE",
"160 372 CURVE SMOOTH",
"168 375 OFFCURVE",
"176 380 OFFCURVE",
"182 386 CURVE SMOOTH",
"188 392 OFFCURVE",
"194 397 OFFCURVE",
"198 405 CURVE SMOOTH",
"202 413 OFFCURVE",
"205 421 OFFCURVE",
"206 430 CURVE SMOOTH",
"207 439 OFFCURVE",
"206 447 OFFCURVE",
"204 455 CURVE SMOOTH",
"202 463 OFFCURVE",
"198 469 OFFCURVE",
"193 475 CURVE SMOOTH",
"188 481 OFFCURVE",
"182 485 OFFCURVE",
"175 488 CURVE SMOOTH",
"168 491 OFFCURVE",
"160 493 OFFCURVE",
"151 493 CURVE SMOOTH",
"142 493 OFFCURVE",
"134 491 OFFCURVE",
"126 488 CURVE SMOOTH",
"118 485 OFFCURVE",
"110 481 OFFCURVE",
"104 475 CURVE SMOOTH",
"98 469 OFFCURVE",
"93 463 OFFCURVE",
"89 455 CURVE SMOOTH",
"85 447 OFFCURVE",
"82 439 OFFCURVE",
"81 430 CURVE SMOOTH"
);
}
);
width = 242;
}
);
note = semicolon;
unicode = 003B;
},
{
glyphname = less;
layers = (
{
layerId = "C87851D2-2817-4F36-A784-A5AE84D7BDA8";
paths = (
{
closed = 1;
nodes = (
"26 355 LINE",
"22 318 LINE",
"384 117 LINE",
"392 181 LINE",
"393 186 OFFCURVE",
"391 192 OFFCURVE",
"389 196 CURVE SMOOTH",
"387 200 OFFCURVE",
"383 204 OFFCURVE",
"377 207 CURVE SMOOTH",
"166 320 LINE SMOOTH",
"160 323 OFFCURVE",
"153 327 OFFCURVE",
"146 330 CURVE SMOOTH",
"139 333 OFFCURVE",
"131 334 OFFCURVE",
"123 336 CURVE",
"132 338 OFFCURVE",
"140 341 OFFCURVE",
"148 343 CURVE SMOOTH",
"156 345 OFFCURVE",
"163 348 OFFCURVE",
"170 352 CURVE",
"409 466 LINE",
"416 469 OFFCURVE",
"421 473 OFFCURVE",
"424 477 CURVE SMOOTH",
"427 481 OFFCURVE",
"429 486 OFFCURVE",
"430 492 CURVE",
"438 556 LINE"
);
}
);
width = 458;
}
);
note = less;
unicode = 003C;
},
{
glyphname = equal;
layers = (
{
layerId = "C87851D2-2817-4F36-A784-A5AE84D7BDA8";
paths = (
{
closed = 1;
nodes = (
"57 287 LINE",
"49 220 LINE",
"478 220 LINE",
"487 287 LINE"
);
},
{
closed = 1;
nodes = (
"78 454 LINE",
"70 387 LINE",
"499 387 LINE",
"507 454 LINE"
);
}
);
width = 554;
}
);
note = equal;
unicode = 003D;
},
{
glyphname = greater;
layers = (
{
layerId = "C87851D2-2817-4F36-A784-A5AE84D7BDA8";
paths = (
{
closed = 1;
nodes = (
"22 117 LINE",
"433 318 LINE",
"437 355 LINE",
"75 556 LINE",
"68 492 LINE",
"67 486 OFFCURVE",
"68 481 OFFCURVE",
"70 477 CURVE SMOOTH",
"72 473 OFFCURVE",
"76 469 OFFCURVE",
"82 466 CURVE SMOOTH",
"293 352 LINE",
"299 348 OFFCURVE",
"305 345 OFFCURVE",
"312 343 CURVE SMOOTH",
"319 341 OFFCURVE",
"327 338 OFFCURVE",
"335 336 CURVE",
"326 334 OFFCURVE",
"318 333 OFFCURVE",
"311 330 CURVE SMOOTH",
"304 327 OFFCURVE",
"296 324 OFFCURVE",
"289 321 CURVE",
"51 207 LINE",
"44 204 OFFCURVE",
"38 200 OFFCURVE",
"35 196 CURVE SMOOTH",
"32 192 OFFCURVE",
"30 186 OFFCURVE",
"29 181 CURVE"
);
}
);
width = 455;
}
);
note = greater;
unicode = 003E;
},
{
glyphname = question;
layers = (
{
layerId = "C87851D2-2817-4F36-A784-A5AE84D7BDA8";
paths = (
{
closed = 1;
nodes = (
"43 615 LINE SMOOTH",
"47 607 OFFCURVE",
"53 604 OFFCURVE",
"61 604 CURVE SMOOTH",
"65 604 OFFCURVE",
"71 606 OFFCURVE",
"78 611 CURVE SMOOTH",
"85 616 OFFCURVE",
"93 622 OFFCURVE",
"104 628 CURVE SMOOTH",
"115 634 OFFCURVE",
"128 639 OFFCURVE",
"143 644 CURVE SMOOTH",
"158 649 OFFCURVE",
"176 652 OFFCURVE",
"196 652 CURVE SMOOTH",
"211 652 OFFCURVE",
"224 649 OFFCURVE",
"237 645 CURVE SMOOTH",
"250 641 OFFCURVE",
"260 634 OFFCURVE",
"269 626 CURVE SMOOTH",
"278 618 OFFCURVE",
"285 608 OFFCURVE",
"289 596 CURVE SMOOTH",
"293 584 OFFCURVE",
"294 572 OFFCURVE",
"292 558 CURVE",
"290 538 OFFCURVE",
"284 521 OFFCURVE",
"275 506 CURVE SMOOTH",
"266 491 OFFCURVE",
"254 478 OFFCURVE",
"241 466 CURVE SMOOTH",
"228 454 OFFCURVE",
"215 445 OFFCURVE",
"201 435 CURVE SMOOTH",
"187 425 OFFCURVE",
"173 416 OFFCURVE",
"160 406 CURVE",
"147 397 OFFCURVE",
"137 387 OFFCURVE",
"128 376 CURVE SMOOTH",
"119 365 OFFCURVE",
"114 353 OFFCURVE",
"112 339 CURVE SMOOTH",
"111 333 LINE",
"107 250 LINE",
"168 250 LINE",
"186 327 LINE",
"189 338 OFFCURVE",
"195 348 OFFCURVE",
"205 357 CURVE SMOOTH",
"215 366 OFFCURVE",
"226 375 OFFCURVE",
"239 384 CURVE SMOOTH",
"252 393 OFFCURVE",
"265 402 OFFCURVE",
"280 412 CURVE SMOOTH",
"295 422 OFFCURVE",
"310 434 OFFCURVE",
"323 448 CURVE SMOOTH",
"336 462 OFFCURVE",
"347 479 OFFCURVE",
"357 497 CURVE SMOOTH",
"367 515 OFFCURVE",
"373 537 OFFCURVE",
"376 562 CURVE SMOOTH",
"379 587 OFFCURVE",
"378 610 OFFCURVE",
"371 630 CURVE SMOOTH",
"364 650 OFFCURVE",
"353 667 OFFCURVE",
"338 681 CURVE SMOOTH",
"323 695 OFFCURVE",
"306 705 OFFCURVE",
"284 713 CURVE SMOOTH",
"262 721 OFFCURVE",
"238 725 OFFCURVE",
"212 725 CURVE SMOOTH",
"192 725 OFFCURVE",
"174 723 OFFCURVE",
"156 719 CURVE SMOOTH",
"138 715 OFFCURVE",
"122 710 OFFCURVE",
"106 703 CURVE SMOOTH",
"90 696 OFFCURVE",
"76 689 OFFCURVE",
"62 680 CURVE SMOOTH",
"48 671 OFFCURVE",
"36 662 OFFCURVE",
"24 652 CURVE"
);
},
{
closed = 1;
nodes = (
"48 46 OFFCURVE",
"49 38 OFFCURVE",
"51 30 CURVE SMOOTH",
"53 22 OFFCURVE",
"56 17 OFFCURVE",
"61 11 CURVE SMOOTH",
"66 5 OFFCURVE",
"73 0 OFFCURVE",
"80 -3 CURVE SMOOTH",
"87 -6 OFFCURVE",
"94 -7 OFFCURVE",
"103 -7 CURVE SMOOTH",
"112 -7 OFFCURVE",
"121 -6 OFFCURVE",
"129 -3 CURVE SMOOTH",
"137 0 OFFCURVE",
"144 5 OFFCURVE",
"150 11 CURVE SMOOTH",
"156 17 OFFCURVE",
"162 22 OFFCURVE",
"166 30 CURVE SMOOTH",
"170 38 OFFCURVE",
"173 46 OFFCURVE",
"174 55 CURVE SMOOTH",
"175 64 OFFCURVE",
"174 72 OFFCURVE",
"172 80 CURVE SMOOTH",
"170 88 OFFCURVE",
"166 94 OFFCURVE",
"161 100 CURVE SMOOTH",
"156 106 OFFCURVE",
"150 110 OFFCURVE",
"143 113 CURVE SMOOTH",
"136 116 OFFCURVE",
"128 118 OFFCURVE",
"119 118 CURVE SMOOTH",
"110 118 OFFCURVE",
"102 116 OFFCURVE",
"94 113 CURVE SMOOTH",
"86 110 OFFCURVE",
"78 106 OFFCURVE",
"72 100 CURVE SMOOTH",
"66 94 OFFCURVE",
"61 88 OFFCURVE",
"57 80 CURVE SMOOTH",
"53 72 OFFCURVE",
"50 64 OFFCURVE",
"49 55 CURVE SMOOTH"
);
}
);
width = 388;
}
);
note = question;
unicode = 003F;
},
{
glyphname = at;
lastChange = "2017-01-26 15:47:04 +0000";
layers = (
{
layerId = "C87851D2-2817-4F36-A784-A5AE84D7BDA8";
paths = (
{
closed = 1;
nodes = (
"569 93 OFFCURVE",
"596 99 OFFCURVE",
"622 112 CURVE SMOOTH",
"648 125 OFFCURVE",
"670 142 OFFCURVE",
"691 164 CURVE SMOOTH",
"712 186 OFFCURVE",
"729 214 OFFCURVE",
"743 244 CURVE SMOOTH",
"757 274 OFFCURVE",
"766 308 OFFCURVE",
"770 344 CURVE SMOOTH",
"774 380 OFFCURVE",
"774 413 OFFCURVE",
"769 443 CURVE SMOOTH",
"764 473 OFFCURVE",
"755 501 OFFCURVE",
"742 526 CURVE SMOOTH",
"729 551 OFFCURVE",
"714 573 OFFCURVE",
"694 592 CURVE SMOOTH",
"674 611 OFFCURVE",
"652 627 OFFCURVE",
"627 640 CURVE SMOOTH",
"602 653 OFFCURVE",
"577 663 OFFCURVE",
"548 670 CURVE SMOOTH",
"519 677 OFFCURVE",
"490 680 OFFCURVE",
"459 680 CURVE SMOOTH",
"423 680 OFFCURVE",
"388 675 OFFCURVE",
"354 665 CURVE SMOOTH",
"320 656 OFFCURVE",
"287 642 OFFCURVE",
"256 625 CURVE SMOOTH",
"225 608 OFFCURVE",
"197 587 OFFCURVE",
"171 563 CURVE SMOOTH",
"145 539 OFFCURVE",
"121 512 OFFCURVE",
"101 483 CURVE SMOOTH",
"81 454 OFFCURVE",
"64 423 OFFCURVE",
"51 389 CURVE SMOOTH",
"38 355 OFFCURVE",
"28 320 OFFCURVE",
"24 284 CURVE SMOOTH",
"16 221 OFFCURVE",
"19 164 OFFCURVE",
"34 114 CURVE SMOOTH",
"49 64 OFFCURVE",
"73 21 OFFCURVE",
"105 -13 CURVE SMOOTH",
"137 -47 OFFCURVE",
"177 -74 OFFCURVE",
"224 -92 CURVE SMOOTH",
"271 -110 OFFCURVE",
"324 -119 OFFCURVE",
"382 -119 CURVE SMOOTH",
"440 -119 OFFCURVE",
"492 -113 OFFCURVE",
"539 -99 CURVE SMOOTH",
"586 -85 OFFCURVE",
"629 -66 OFFCURVE",
"668 -42 CURVE",
"659 -9 LINE SMOOTH",
"657 -1 OFFCURVE",
"652 3 OFFCURVE",
"645 3 CURVE SMOOTH",
"641 3 OFFCURVE",
"636 1 OFFCURVE",
"631 -2 CURVE SMOOTH",
"601 -19 OFFCURVE",
"566 -33 OFFCURVE",
"526 -44 CURVE SMOOTH",
"486 -55 OFFCURVE",
"440 -60 OFFCURVE",
"389 -60 CURVE SMOOTH",
"341 -60 OFFCURVE",
"298 -53 OFFCURVE",
"258 -38 CURVE SMOOTH",
"218 -23 OFFCURVE",
"185 -2 OFFCURVE",
"158 27 CURVE SMOOTH",
"131 56 OFFCURVE",
"111 92 OFFCURVE",
"98 135 CURVE SMOOTH",
"85 178 OFFCURVE",
"83 227 OFFCURVE",
"90 284 CURVE SMOOTH",
"96 332 OFFCURVE",
"109 377 OFFCURVE",
"131 418 CURVE SMOOTH",
"153 459 OFFCURVE",
"180 495 OFFCURVE",
"213 525 CURVE SMOOTH",
"246 555 OFFCURVE",
"282 578 OFFCURVE",
"323 595 CURVE SMOOTH",
"364 612 OFFCURVE",
"407 621 OFFCURVE",
"452 621 CURVE SMOOTH",
"493 621 OFFCURVE",
"529 615 OFFCURVE",
"563 603 CURVE SMOOTH",
"597 592 OFFCURVE",
"626 574 OFFCURVE",
"649 551 CURVE SMOOTH",
"672 528 OFFCURVE",
"688 500 OFFCURVE",
"699 465 CURVE SMOOTH",
"710 430 OFFCURVE",
"712 390 OFFCURVE",
"706 344 CURVE SMOOTH",
"702 315 OFFCURVE",
"696 288 OFFCURVE",
"687 264 CURVE SMOOTH",
"678 240 OFFCURVE",
"666 220 OFFCURVE",
"653 203 CURVE SMOOTH",
"640 186 OFFCURVE",
"625 173 OFFCURVE",
"609 164 CURVE SMOOTH",
"593 155 OFFCURVE",
"577 150 OFFCURVE",
"561 150 CURVE SMOOTH",
"553 150 OFFCURVE",
"547 150 OFFCURVE",
"540 152 CURVE SMOOTH",
"533 154 OFFCURVE",
"528 157 OFFCURVE",
"523 161 CURVE SMOOTH",
"518 165 OFFCURVE",
"515 172 OFFCURVE",
"513 180 CURVE SMOOTH",
"511 188 OFFCURVE",
"511 198 OFFCURVE",
"512 210 CURVE",
"514 226 OFFCURVE",
"520 247 OFFCURVE",
"529 272 CURVE SMOOTH",
"598 452 LINE",
"584 459 OFFCURVE",
"568 463 OFFCURVE",
"552 467 CURVE SMOOTH",
"536 471 OFFCURVE",
"516 473 OFFCURVE",
"494 473 CURVE SMOOTH",
"452 473 OFFCURVE",
"415 466 OFFCURVE",
"381 451 CURVE SMOOTH",
"347 436 OFFCURVE",
"318 417 OFFCURVE",
"294 394 CURVE SMOOTH",
"270 371 OFFCURVE",
"250 345 OFFCURVE",
"236 316 CURVE SMOOTH",
"222 287 OFFCURVE",
"212 258 OFFCURVE",
"209 230 CURVE SMOOTH",
"207 211 OFFCURVE",
"207 193 OFFCURVE",
"210 176 CURVE SMOOTH",
"213 159 OFFCURVE",
"219 145 OFFCURVE",
"227 133 CURVE SMOOTH",
"235 121 OFFCURVE",
"246 111 OFFCURVE",
"260 104 CURVE SMOOTH",
"274 97 OFFCURVE",
"291 94 OFFCURVE",
"311 94 CURVE SMOOTH",
"337 94 OFFCURVE",
"362 100 OFFCURVE",
"386 112 CURVE SMOOTH",
"410 124 OFFCURVE",
"433 143 OFFCURVE",
"456 170 CURVE",
"457 144 OFFCURVE",
"465 124 OFFCURVE",
"480 112 CURVE SMOOTH",
"495 100 OFFCURVE",
"515 93 OFFCURVE",
"541 93 CURVE SMOOTH"
);
},
{
closed = 1;
nodes = (
"313 153 OFFCURVE",
"298 161 OFFCURVE",
"289 175 CURVE SMOOTH",
"280 189 OFFCURVE",
"277 209 OFFCURVE",
"280 233 CURVE SMOOTH",
"283 256 OFFCURVE",
"290 278 OFFCURVE",
"301 300 CURVE SMOOTH",
"312 322 OFFCURVE",
"326 342 OFFCURVE",
"343 359 CURVE SMOOTH",
"360 376 OFFCURVE",
"380 390 OFFCURVE",
"402 400 CURVE SMOOTH",
"424 410 OFFCURVE",
"448 416 OFFCURVE",
"473 416 CURVE SMOOTH",
"488 416 OFFCURVE",
"502 414 OFFCURVE",
"515 411 CURVE",
"459 264 LINE SMOOTH",
"451 242 OFFCURVE",
"441 224 OFFCURVE",
"431 210 CURVE SMOOTH",
"421 196 OFFCURVE",
"411 184 OFFCURVE",
"400 176 CURVE SMOOTH",
"389 168 OFFCURVE",
"378 161 OFFCURVE",
"367 158 CURVE SMOOTH",
"356 155 OFFCURVE",
"345 153 OFFCURVE",
"335 153 CURVE SMOOTH"
);
}
);
width = 799;
}
);
leftKerningGroup = O;
note = at;
rightKerningGroup = O;
unicode = 0040;
},
{
glyphname = A;
lastChange = "2017-01-26 15:07:03 +0000";
layers = (
{
anchors = (
{
name = bottom;
position = "{353, 0}";
},
{
name = ogonek;
position = "{658, 10}";
},
{
name = top;
position = "{439, 716}";
}
);
layerId = "C87851D2-2817-4F36-A784-A5AE84D7BDA8";
paths = (
{
closed = 1;
nodes = (
"665 68 LINE",
"485 716 LINE",
"387 716 LINE",
"48 68 LINE",
"6 56 LINE",
"-3 54 OFFCURVE",
"-8 49 OFFCURVE",
"-9 40 CURVE SMOOTH",
"-14 0 LINE",
"192 0 LINE",
"197 40 LINE SMOOTH",
"198 49 OFFCURVE",
"194 54 OFFCURVE",
"185 56 CURVE",
"146 68 LINE",
"220 212 LINE",
"529 212 LINE",
"567 68 LINE",
"524 56 LINE",
"515 54 OFFCURVE",
"510 49 OFFCURVE",
"509 40 CURVE SMOOTH",
"504 0 LINE",
"710 0 LINE",
"714 40 LINE SMOOTH",
"715 49 OFFCURVE",
"711 54 OFFCURVE",
"703 56 CURVE"
);
},
{
closed = 1;
nodes = (
"255 282 LINE",
"395 557 LINE SMOOTH",
"403 573 OFFCURVE",
"413 596 OFFCURVE",
"425 625 CURVE",
"429 598 OFFCURVE",
"433 576 OFFCURVE",
"438 558 CURVE SMOOTH",
"510 282 LINE"
);
}
);
width = 765;
}
);
leftKerningGroup = A;
note = A;
rightKerningGroup = A;
unicode = 0041;
},
{
glyphname = B;
lastChange = "2017-01-26 15:07:03 +0000";
layers = (
{
anchors = (
{
name = bottom;
position = "{283, 0}";
},
{
name = top;
position = "{369, 716}";
}
);
layerId = "C87851D2-2817-4F36-A784-A5AE84D7BDA8";
paths = (
{
closed = 1;
nodes = (
"501 382 OFFCURVE",
"537 404 OFFCURVE",
"564 433 CURVE SMOOTH",
"577 447 OFFCURVE",
"587 462 OFFCURVE",
"595 478 CURVE SMOOTH",
"603 494 OFFCURVE",
"607 515 OFFCURVE",
"610 538 CURVE SMOOTH",
"613 561 OFFCURVE",
"611 585 OFFCURVE",
"604 608 CURVE SMOOTH",
"582 680 OFFCURVE",
"507 716 OFFCURVE",
"379 716 CURVE SMOOTH",
"79 716 LINE",
"74 674 LINE SMOOTH",
"73 664 OFFCURVE",
"76 657 OFFCURVE",
"86 655 CURVE SMOOTH",
"92 654 OFFCURVE",
"111 650 OFFCURVE",
"142 644 CURVE",
"72 73 LINE",
"14 62 LINE SMOOTH",
"4 60 OFFCURVE",
"-3 53 OFFCURVE",
"-4 43 CURVE SMOOTH",
"-9 0 LINE",
"316 0 LINE SMOOTH",
"395 0 OFFCURVE",
"459 18 OFFCURVE",
"509 56 CURVE SMOOTH",
"557 93 OFFCURVE",
"585 142 OFFCURVE",
"593 204 CURVE SMOOTH",
"604 293 OFFCURVE",
"558 347 OFFCURVE",
"455 368 CURVE"
);
},
{
closed = 1;
nodes = (
"239 640 LINE",
"370 640 LINE SMOOTH",
"423 640 OFFCURVE",
"461 630 OFFCURVE",
"484 610 CURVE SMOOTH",
"507 590 OFFCURVE",
"516 560 OFFCURVE",
"511 518 CURVE SMOOTH",
"509 500 OFFCURVE",
"503 483 OFFCURVE",
"495 468 CURVE SMOOTH",
"469 420 OFFCURVE",
"417 396 OFFCURVE",
"337 396 CURVE SMOOTH",
"209 396 LINE"
);
},
{
closed = 1;
nodes = (
"169 77 LINE",
"200 326 LINE",
"355 326 LINE SMOOTH",
"408 326 OFFCURVE",
"445 316 OFFCURVE",
"469 294 CURVE SMOOTH",
"493 272 OFFCURVE",
"503 243 OFFCURVE",
"498 206 CURVE SMOOTH",
"496 187 OFFCURVE",
"490 170 OFFCURVE",
"482 154 CURVE SMOOTH",
"456 102 OFFCURVE",
"404 77 OFFCURVE",
"324 77 CURVE SMOOTH"
);
}
);
width = 626;
}
);
note = B;
unicode = 0042;
},
{
glyphname = C;
lastChange = "2017-01-26 15:47:04 +0000";
layers = (
{
anchors = (
{
name = bottom;
position = "{281, 0}";
},
{
name = top;
position = "{367, 716}";
}
);
layerId = "C87851D2-2817-4F36-A784-A5AE84D7BDA8";
paths = (
{
closed = 1;
nodes = (
"318 724 OFFCURVE",
"226 690 OFFCURVE",
"151 622 CURVE SMOOTH",
"76 554 OFFCURVE",
"31 466 OFFCURVE",
"18 358 CURVE SMOOTH",
"5 249 OFFCURVE",
"26 161 OFFCURVE",
"80 94 CURVE SMOOTH",
"134 26 OFFCURVE",
"212 -8 OFFCURVE",
"315 -8 CURVE SMOOTH",
"425 -8 OFFCURVE",
"515 28 OFFCURVE",
"586 100 CURVE",
"553 142 LINE",
"549 146 OFFCURVE",
"545 148 OFFCURVE",
"540 148 CURVE SMOOTH",
"535 148 OFFCURVE",
"528 145 OFFCURVE",
"522 140 CURVE SMOOTH",
"493 117 OFFCURVE",
"461 100 OFFCURVE",
"427 88 CURVE SMOOTH",
"405 80 OFFCURVE",
"373 76 OFFCURVE",
"331 76 CURVE SMOOTH",
"259 76 OFFCURVE",
"203 100 OFFCURVE",
"164 150 CURVE SMOOTH",
"122 202 OFFCURVE",
"106 271 OFFCURVE",
"117 358 CURVE SMOOTH",
"128 444 OFFCURVE",
"161 513 OFFCURVE",
"216 564 CURVE SMOOTH",
"301 644 OFFCURVE",
"415 661 OFFCURVE",
"559 614 CURVE",
"559 610 OFFCURVE",
"558 594 OFFCURVE",
"557 568 CURVE SMOOTH",
"556 542 OFFCURVE",
"555 527 OFFCURVE",
"556 523 CURVE",
"557 512 OFFCURVE",
"564 506 OFFCURVE",
"575 506 CURVE SMOOTH",
"623 506 LINE",
"637 617 LINE",
"644 673 LINE",
"557 707 OFFCURVE",
"485 724 OFFCURVE",
"428 724 CURVE SMOOTH"
);
}
);
width = 621;
}
);
leftKerningGroup = C;
note = C;
unicode = 0043;
},
{
glyphname = D;
lastChange = "2017-01-26 15:07:03 +0000";
layers = (
{
anchors = (
{
name = bottom;
position = "{339, 0}";
},
{
name = center;
position = "{382, 358}";
},
{
name = top;
position = "{425, 716}";
}
);
layerId = "C87851D2-2817-4F36-A784-A5AE84D7BDA8";
paths = (
{
closed = 1;
nodes = (
"732 465 OFFCURVE",
"710 552 OFFCURVE",
"653 618 CURVE SMOOTH",
"596 684 OFFCURVE",
"516 716 OFFCURVE",
"410 716 CURVE SMOOTH",
"79 716 LINE",
"74 674 LINE SMOOTH",
"73 664 OFFCURVE",
"77 657 OFFCURVE",
"87 655 CURVE SMOOTH",
"93 654 OFFCURVE",
"112 650 OFFCURVE",
"143 644 CURVE",
"72 73 LINE",
"14 62 LINE SMOOTH",
"4 60 OFFCURVE",
"-2 53 OFFCURVE",
"-3 43 CURVE SMOOTH",
"-8 0 LINE",
"322 0 LINE SMOOTH",
"427 0 OFFCURVE",
"517 32 OFFCURVE",
"590 98 CURVE SMOOTH",
"625 129 OFFCURVE",
"653 168 OFFCURVE",
"675 212 CURVE SMOOTH",
"697 256 OFFCURVE",
"712 304 OFFCURVE",
"719 358 CURVE SMOOTH"
);
},
{
closed = 1;
nodes = (
"608 271 OFFCURVE",
"577 202 OFFCURVE",
"525 152 CURVE SMOOTH",
"474 103 OFFCURVE",
"410 78 OFFCURVE",
"332 78 CURVE SMOOTH",
"171 78 LINE",
"239 638 LINE",
"400 638 LINE SMOOTH",
"478 638 OFFCURVE",
"537 613 OFFCURVE",
"576 564 CURVE SMOOTH",
"595 540 OFFCURVE",
"608 511 OFFCURVE",
"616 476 CURVE SMOOTH",
"624 441 OFFCURVE",
"624 402 OFFCURVE",
"619 358 CURVE SMOOTH"
);
}
);
width = 738;
}
);
note = D;
unicode = 0044;
},
{
glyphname = E;
lastChange = "2017-01-26 15:07:03 +0000";
layers = (
{
anchors = (
{
name = bottom;
position = "{257, 0}";
},
{
name = ogonek;
position = "{487, 10}";
},
{
name = top;
position = "{343, 716}";
},
{
name = topleft;
position = "{76, 716}";
}
);
layerId = "C87851D2-2817-4F36-A784-A5AE84D7BDA8";
paths = (
{
closed = 1;
nodes = (
"79 716 LINE",
"74 674 LINE SMOOTH",
"73 664 OFFCURVE",
"77 657 OFFCURVE",
"87 655 CURVE SMOOTH",
"93 654 OFFCURVE",
"112 650 OFFCURVE",
"143 644 CURVE",
"72 73 LINE",
"14 62 LINE SMOOTH",
"4 60 OFFCURVE",
"-2 53 OFFCURVE",
"-3 43 CURVE SMOOTH",
"-8 0 LINE",
"505 0 LINE",
"526 167 LINE",
"478 167 LINE SMOOTH",
"466 167 OFFCURVE",
"458 161 OFFCURVE",
"454 150 CURVE SMOOTH",
"453 147 OFFCURVE",
"448 123 OFFCURVE",
"439 79 CURVE",
"171 79 LINE",
"201 324 LINE",
"465 324 LINE",
"474 400 LINE",
"210 400 LINE",
"239 638 LINE",
"507 638 LINE",
"505 590 OFFCURVE",
"505 564 OFFCURVE",
"505 561 CURVE",
"506 549 OFFCURVE",
"512 544 OFFCURVE",
"524 544 CURVE SMOOTH",
"572 544 LINE",
"593 716 LINE"
);
}
);
width = 574;
}
);
note = E;
unicode = 0045;
},
{
glyphname = F;
lastChange = "2017-01-26 15:07:03 +0000";
layers = (
{
anchors = (
{
name = bottom;
position = "{262, 0}";
},
{
name = top;
position = "{348, 716}";
}
);
layerId = "C87851D2-2817-4F36-A784-A5AE84D7BDA8";
paths = (
{
closed = 1;
nodes = (
"151 716 LINE",
"79 716 LINE",
"74 674 LINE SMOOTH",
"73 664 OFFCURVE",
"77 657 OFFCURVE",
"87 655 CURVE SMOOTH",
"93 654 OFFCURVE",
"112 650 OFFCURVE",
"143 644 CURVE",
"72 73 LINE",
"14 62 LINE SMOOTH",
"4 60 OFFCURVE",
"-2 53 OFFCURVE",
"-3 43 CURVE SMOOTH",
"-8 0 LINE",
"233 0 LINE",
"238 43 LINE SMOOTH",
"239 53 OFFCURVE",
"236 60 OFFCURVE",
"226 62 CURVE SMOOTH",
"197 68 OFFCURVE",
"178 71 OFFCURVE",
"170 73 CURVE",
"199 308 LINE",
"471 308 LINE",
"481 387 LINE",
"209 387 LINE",
"239 638 LINE",
"524 638 LINE",
"522 590 OFFCURVE",
"522 564 OFFCURVE",
"522 561 CURVE",
"523 549 OFFCURVE",
"529 544 OFFCURVE",
"540 544 CURVE SMOOTH",
"589 544 LINE",
"610 716 LINE"
);
}
);
width = 583;
}
);
note = F;
unicode = 0046;
},
{
glyphname = G;
lastChange = "2017-01-26 15:47:04 +0000";
layers = (
{
anchors = (
{
name = bottom;
position = "{309, 0}";
},
{
name = top;
position = "{395, 716}";
}
);
layerId = "C87851D2-2817-4F36-A784-A5AE84D7BDA8";
paths = (
{
closed = 1;
nodes = (
"266 70 OFFCURVE",
"207 95 OFFCURVE",
"165 146 CURVE SMOOTH",
"122 198 OFFCURVE",
"106 269 OFFCURVE",
"117 358 CURVE SMOOTH",
"128 445 OFFCURVE",
"160 513 OFFCURVE",
"214 564 CURVE SMOOTH",
"240 588 OFFCURVE",
"270 608 OFFCURVE",
"304 621 CURVE SMOOTH",
"338 634 OFFCURVE",
"381 640 OFFCURVE",
"429 640 CURVE SMOOTH",
"477 640 OFFCURVE",
"520 635 OFFCURVE",
"556 625 CURVE",
"565 622 OFFCURVE",
"578 619 OFFCURVE",
"593 614 CURVE",
"591 559 OFFCURVE",
"589 528 OFFCURVE",
"589 523 CURVE",
"590 512 OFFCURVE",
"596 506 OFFCURVE",
"608 506 CURVE SMOOTH",
"656 506 LINE",
"676 673 LINE",
"589 707 OFFCURVE",
"508 724 OFFCURVE",
"430 724 CURVE SMOOTH",
"319 724 OFFCURVE",
"225 691 OFFCURVE",
"150 623 CURVE SMOOTH",
"76 556 OFFCURVE",
"32 468 OFFCURVE",
"18 358 CURVE SMOOTH",
"5 250 OFFCURVE",
"27 161 OFFCURVE",
"85 93 CURVE SMOOTH",
"143 25 OFFCURVE",
"224 -8 OFFCURVE",
"328 -8 CURVE SMOOTH",
"438 -8 OFFCURVE",
"532 17 OFFCURVE",
"610 69 CURVE",
"644 344 LINE",
"424 344 LINE",
"417 289 LINE",
"416 284 OFFCURVE",
"418 280 OFFCURVE",
"421 276 CURVE SMOOTH",
"424 272 OFFCURVE",
"429 270 OFFCURVE",
"435 270 CURVE SMOOTH",
"546 270 LINE",
"527 112 LINE",
"471 84 OFFCURVE",
"409 70 OFFCURVE",
"344 70 CURVE SMOOTH"
);
}
);
width = 678;
}
);
leftKerningGroup = C;
note = G;
unicode = 0047;
},
{
glyphname = H;
lastChange = "2017-01-26 15:07:03 +0000";
layers = (
{
anchors = (
{
name = bottom;
position = "{359, 0}";
},
{
name = center;
position = "{402, 358}";
},
{
name = top;
position = "{445, 716}";
},
{
name = topleft;
position = "{76, 716}";
}
);
layerId = "C87851D2-2817-4F36-A784-A5AE84D7BDA8";
paths = (
{
closed = 1;
nodes = (
"781 655 LINE SMOOTH",
"792 657 OFFCURVE",
"798 664 OFFCURVE",
"799 674 CURVE SMOOTH",
"804 716 LINE",
"562 716 LINE",
"557 674 LINE SMOOTH",
"556 664 OFFCURVE",
"559 658 OFFCURVE",
"567 656 CURVE SMOOTH",
"575 654 OFFCURVE",
"595 650 OFFCURVE",
"626 644 CURVE",
"595 397 LINE",
"209 397 LINE",
"240 644 LINE",
"274 651 OFFCURVE",
"295 654 OFFCURVE",
"302 656 CURVE",
"309 657 OFFCURVE",
"314 664 OFFCURVE",
"315 674 CURVE SMOOTH",
"320 716 LINE",
"79 716 LINE",
"74 674 LINE SMOOTH",
"73 664 OFFCURVE",
"75 658 OFFCURVE",
"83 656 CURVE SMOOTH",
"91 654 OFFCURVE",
"111 650 OFFCURVE",
"142 644 CURVE",
"72 73 LINE",
"14 62 LINE SMOOTH",
"4 60 OFFCURVE",
"-3 53 OFFCURVE",
"-4 43 CURVE SMOOTH",
"-9 0 LINE",
"232 0 LINE",
"238 43 LINE",
"239 53 OFFCURVE",
"216 63 OFFCURVE",
"169 73 CURVE",
"201 326 LINE",
"587 326 LINE",
"555 73 LINE",
"497 62 LINE SMOOTH",
"487 60 OFFCURVE",
"481 53 OFFCURVE",
"480 43 CURVE",
"474 0 LINE",
"716 0 LINE",
"722 43 LINE",
"723 53 OFFCURVE",
"720 59 OFFCURVE",
"712 61 CURVE SMOOTH",
"704 63 OFFCURVE",
"685 67 OFFCURVE",
"653 73 CURVE",
"723 644 LINE"
);
}
);
width = 778;
}
);
note = H;
unicode = 0048;
},
{
glyphname = I;
lastChange = "2017-01-26 15:07:03 +0000";
layers = (
{
anchors = (
{
name = bottom;
position = "{117, 0}";
},
{
name = ogonek;
position = "{235, 10}";
},
{
name = top;
position = "{203, 716}";
},
{
name = topleft;
position = "{76, 716}";
}
);
layerId = "C87851D2-2817-4F36-A784-A5AE84D7BDA8";
paths = (
{
closed = 1;
nodes = (
"297 655 LINE SMOOTH",
"308 657 OFFCURVE",
"314 664 OFFCURVE",
"315 674 CURVE SMOOTH",
"320 716 LINE",
"79 716 LINE",
"74 674 LINE SMOOTH",
"73 664 OFFCURVE",
"75 658 OFFCURVE",
"83 656 CURVE SMOOTH",
"91 654 OFFCURVE",
"111 650 OFFCURVE",
"142 644 CURVE",
"72 73 LINE",
"14 62 LINE SMOOTH",
"4 60 OFFCURVE",
"-3 53 OFFCURVE",
"-4 43 CURVE SMOOTH",
"-9 0 LINE",
"232 0 LINE",
"238 43 LINE",
"239 53 OFFCURVE",
"236 59 OFFCURVE",
"228 61 CURVE SMOOTH",
"220 63 OFFCURVE",
"201 67 OFFCURVE",
"169 73 CURVE",
"239 644 LINE"
);
}
);
width = 294;
}
);
note = I;
unicode = 0049;
},
{
glyphname = J;
lastChange = "2017-01-26 15:47:04 +0000";
layers = (
{
anchors = (
{
name = bottom;
position = "{193, 0}";
},
{
name = top;
position = "{279, 716}";
}
);
layerId = "C87851D2-2817-4F36-A784-A5AE84D7BDA8";
paths = (
{
closed = 1;
nodes = (
"71 73 OFFCURVE",
"58 75 OFFCURVE",
"48 78 CURVE SMOOTH",
"38 81 OFFCURVE",
"30 82 OFFCURVE",
"24 82 CURVE SMOOTH",
"18 82 OFFCURVE",
"12 80 OFFCURVE",
"7 76 CURVE SMOOTH",
"2 72 OFFCURVE",
"-4 48 OFFCURVE",
"-12 6 CURVE",
"22 -3 OFFCURVE",
"56 -8 OFFCURVE",
"90 -8 CURVE SMOOTH",
"124 -8 OFFCURVE",
"157 -2 OFFCURVE",
"186 10 CURVE SMOOTH",
"276 46 OFFCURVE",
"329 125 OFFCURVE",
"344 248 CURVE SMOOTH",
"393 644 LINE",
"451 655 LINE SMOOTH",
"461 657 OFFCURVE",
"467 664 OFFCURVE",
"468 674 CURVE",
"474 716 LINE",
"224 716 LINE",
"218 674 LINE",
"217 664 OFFCURVE",
"221 657 OFFCURVE",
"231 655 CURVE SMOOTH",
"237 654 OFFCURVE",
"258 650 OFFCURVE",
"296 644 CURVE",
"247 246 LINE SMOOTH",
"233 131 OFFCURVE",
"180 73 OFFCURVE",
"88 73 CURVE SMOOTH"
);
}
);
width = 445;
}
);
leftKerningGroup = J;
note = J;
rightKerningGroup = J;
unicode = 004A;
},
{
glyphname = K;
lastChange = "2017-01-26 15:07:03 +0000";
layers = (
{
anchors = (
{
name = bottom;
position = "{311, 0}";
},
{
name = top;
position = "{397, 716}";
}
);
layerId = "C87851D2-2817-4F36-A784-A5AE84D7BDA8";
paths = (
{
closed = 1;
nodes = (
"628 60 OFFCURVE",
"612 64 OFFCURVE",
"585 70 CURVE",
"392 340 LINE SMOOTH",
"378 359 OFFCURVE",
"364 371 OFFCURVE",
"350 376 CURVE",
"362 381 OFFCURVE",
"376 392 OFFCURVE",
"393 408 CURVE SMOOTH",
"636 648 LINE",
"662 654 OFFCURVE",
"678 659 OFFCURVE",
"684 660 CURVE SMOOTH",
"694 662 OFFCURVE",
"700 668 OFFCURVE",
"701 678 CURVE SMOOTH",
"704 716 LINE",
"478 716 LINE",
"474 676 LINE SMOOTH",
"473 666 OFFCURVE",
"476 661 OFFCURVE",
"485 659 CURVE SMOOTH",
"490 658 OFFCURVE",
"505 655 OFFCURVE",
"528 650 CURVE",
"299 424 LINE SMOOTH",
"285 410 OFFCURVE",
"267 402 OFFCURVE",
"245 402 CURVE SMOOTH",
"209 402 LINE",
"239 644 LINE",
"247 645 OFFCURVE",
"266 649 OFFCURVE",
"297 655 CURVE SMOOTH",
"308 657 OFFCURVE",
"314 664 OFFCURVE",
"315 674 CURVE SMOOTH",
"320 716 LINE",
"79 716 LINE",
"74 674 LINE SMOOTH",
"73 664 OFFCURVE",
"76 657 OFFCURVE",
"86 655 CURVE SMOOTH",
"92 654 OFFCURVE",
"111 650 OFFCURVE",
"142 644 CURVE",
"72 73 LINE",
"14 62 LINE SMOOTH",
"4 60 OFFCURVE",
"-3 53 OFFCURVE",
"-4 43 CURVE SMOOTH",
"-9 0 LINE",
"232 0 LINE",
"237 43 LINE SMOOTH",
"238 53 OFFCURVE",
"234 60 OFFCURVE",
"224 62 CURVE SMOOTH",
"198 67 OFFCURVE",
"179 71 OFFCURVE",
"168 73 CURVE",
"200 328 LINE",
"244 328 LINE SMOOTH",
"252 328 OFFCURVE",
"260 327 OFFCURVE",
"269 326 CURVE SMOOTH",
"278 325 OFFCURVE",
"287 318 OFFCURVE",
"297 305 CURVE SMOOTH",
"475 66 LINE",
"447 61 OFFCURVE",
"432 59 OFFCURVE",
"428 58 CURVE",
"418 56 OFFCURVE",
"413 50 OFFCURVE",
"412 40 CURVE SMOOTH",
"407 0 LINE",
"642 0 LINE",
"647 40 LINE SMOOTH",
"648 50 OFFCURVE",
"644 57 OFFCURVE",
"634 59 CURVE SMOOTH"
);
}
);
width = 682;
}
);
note = K;
unicode = 004B;
},
{
glyphname = L;
lastChange = "2017-01-26 15:07:03 +0000";
layers = (
{
anchors = (
{
name = bottom;
position = "{243, 0}";
},
{
name = center;
position = "{286, 358}";
},
{
name = top;
position = "{329, 716}";
},
{
name = topright;
position = "{582, 716}";
}
);
layerId = "C87851D2-2817-4F36-A784-A5AE84D7BDA8";
paths = (
{
closed = 1;
nodes = (
"512 156 LINE",
"463 156 LINE SMOOTH",
"453 156 OFFCURVE",
"443 149 OFFCURVE",
"440 139 CURVE",
"439 135 OFFCURVE",
"434 111 OFFCURVE",
"428 82 CURVE",
"170 82 LINE",
"239 644 LINE",
"240 644 OFFCURVE",
"288 653 OFFCURVE",
"297 655 CURVE SMOOTH",
"306 657 OFFCURVE",
"313 664 OFFCURVE",
"314 673 CURVE SMOOTH",
"315 682 OFFCURVE",
"320 716 OFFCURVE",
"320 716 CURVE SMOOTH",
"248 716 LINE",
"247 716 LINE",
"151 716 LINE",
"78 716 LINE SMOOTH",
"78 716 OFFCURVE",
"74 682 OFFCURVE",
"73 673 CURVE SMOOTH",
"72 664 OFFCURVE",
"77 657 OFFCURVE",
"86 655 CURVE SMOOTH",
"95 653 OFFCURVE",
"142 644 OFFCURVE",
"142 644 CURVE",
"72 73 LINE",
"72 73 OFFCURVE",
"22 64 OFFCURVE",
"13 62 CURVE SMOOTH",
"4 60 OFFCURVE",
"-3 52 OFFCURVE",
"-4 43 CURVE SMOOTH",
"-5 34 OFFCURVE",
"-10 0 OFFCURVE",
"-10 0 CURVE",
"63 0 LINE",
"461 0 LINE",
"470 0 LINE",
"492 0 LINE"
);
}
);
width = 546;
}
);
note = L;
unicode = 004C;
},
{
glyphname = M;
lastChange = "2017-01-26 15:07:03 +0000";
layers = (
{
anchors = (
{
name = bottom;
position = "{442, 0}";
},
{
name = top;
position = "{528, 716}";
}
);
layerId = "C87851D2-2817-4F36-A784-A5AE84D7BDA8";
paths = (
{
closed = 1;
nodes = (
"411 126 LINE SMOOTH",
"417 111 OFFCURVE",
"429 103 OFFCURVE",
"444 103 CURVE SMOOTH",
"458 103 LINE SMOOTH",
"473 103 OFFCURVE",
"485 111 OFFCURVE",
"495 126 CURVE SMOOTH",
"796 574 LINE",
"793 557 OFFCURVE",
"790 541 OFFCURVE",
"788 526 CURVE SMOOTH",
"732 73 LINE",
"696 67 OFFCURVE",
"674 64 OFFCURVE",
"664 62 CURVE SMOOTH",
"654 60 OFFCURVE",
"648 53 OFFCURVE",
"647 43 CURVE SMOOTH",
"642 0 LINE",
"881 0 LINE",
"886 43 LINE SMOOTH",
"887 53 OFFCURVE",
"883 60 OFFCURVE",
"873 62 CURVE SMOOTH",
"867 63 OFFCURVE",
"849 67 OFFCURVE",
"817 73 CURVE",
"888 644 LINE",
"888 644 OFFCURVE",
"907 647 OFFCURVE",
"946 655 CURVE SMOOTH",
"957 657 OFFCURVE",
"963 664 OFFCURVE",
"964 674 CURVE SMOOTH",
"969 716 LINE",
"825 716 LINE SMOOTH",
"816 716 OFFCURVE",
"810 716 OFFCURVE",
"805 714 CURVE SMOOTH",
"800 712 OFFCURVE",
"794 708 OFFCURVE",
"789 700 CURVE SMOOTH",
"493 260 LINE SMOOTH",
"483 244 OFFCURVE",
"472 226 OFFCURVE",
"463 207 CURVE",
"457 232 OFFCURVE",
"452 249 OFFCURVE",
"447 259 CURVE",
"254 700 LINE",
"251 708 OFFCURVE",
"246 712 OFFCURVE",
"242 714 CURVE SMOOTH",
"238 716 OFFCURVE",
"231 716 OFFCURVE",
"222 716 CURVE SMOOTH",
"79 716 LINE",
"74 674 LINE SMOOTH",
"73 664 OFFCURVE",
"76 657 OFFCURVE",
"86 655 CURVE SMOOTH",
"92 654 OFFCURVE",
"111 650 OFFCURVE",
"142 644 CURVE",
"72 73 LINE",
"14 62 LINE SMOOTH",
"4 60 OFFCURVE",
"-3 53 OFFCURVE",
"-4 43 CURVE SMOOTH",
"-9 0 LINE",
"230 0 LINE",
"235 43 LINE SMOOTH",
"236 53 OFFCURVE",
"232 59 OFFCURVE",
"223 61 CURVE SMOOTH",
"214 63 OFFCURVE",
"192 67 OFFCURVE",
"157 73 CURVE",
"213 526 LINE SMOOTH",
"215 541 OFFCURVE",
"216 558 OFFCURVE",
"216 575 CURVE"
);
}
);
width = 943;
}
);
note = M;
unicode = 004D;
},
{
glyphname = N;
lastChange = "2017-01-26 15:07:03 +0000";
layers = (
{
anchors = (
{
name = bottom;
position = "{359, 0}";
},
{
name = top;
position = "{445, 716}";
}
);
layerId = "C87851D2-2817-4F36-A784-A5AE84D7BDA8";
paths = (
{
closed = 1;
nodes = (
"233 700 LINE",
"228 707 OFFCURVE",
"224 711 OFFCURVE",
"220 713 CURVE SMOOTH",
"216 715 OFFCURVE",
"210 716 OFFCURVE",
"201 716 CURVE SMOOTH",
"79 716 LINE",
"74 674 LINE SMOOTH",
"73 664 OFFCURVE",
"77 657 OFFCURVE",
"87 655 CURVE SMOOTH",
"93 654 OFFCURVE",
"112 649 OFFCURVE",
"143 643 CURVE",
"72 73 LINE",
"14 61 LINE SMOOTH",
"4 59 OFFCURVE",
"-2 53 OFFCURVE",
"-3 43 CURVE SMOOTH",
"-8 0 LINE",
"230 0 LINE",
"235 43 LINE SMOOTH",
"236 53 OFFCURVE",
"233 59 OFFCURVE",
"223 61 CURVE SMOOTH",
"218 62 OFFCURVE",
"196 66 OFFCURVE",
"157 73 CURVE",
"211 510 LINE SMOOTH",
"213 524 OFFCURVE",
"214 540 OFFCURVE",
"215 557 CURVE",
"563 18 LINE SMOOTH",
"571 6 OFFCURVE",
"582 0 OFFCURVE",
"596 0 CURVE SMOOTH",
"644 0 LINE",
"724 644 LINE",
"782 655 LINE SMOOTH",
"793 657 OFFCURVE",
"799 664 OFFCURVE",
"800 674 CURVE SMOOTH",
"805 716 LINE",
"732 716 LINE",
"647 716 LINE",
"566 716 LINE",
"561 674 LINE SMOOTH",
"560 664 OFFCURVE",
"563 657 OFFCURVE",
"573 655 CURVE SMOOTH",
"578 654 OFFCURVE",
"601 650 OFFCURVE",
"639 643 CURVE",
"585 209 LINE SMOOTH",
"583 191 OFFCURVE",
"582 174 OFFCURVE",
"582 160 CURVE"
);
}
);
width = 777;
}
);
note = N;
unicode = 004E;
},
{
glyphname = O;
lastChange = "2017-01-26 15:47:04 +0000";
layers = (
{
anchors = (
{
name = bottom;
position = "{342, 0}";
},
{
name = center;
position = "{385, 358}";
},
{
name = ogonek;
position = "{639, 10}";
},
{
name = top;
position = "{428, 716}";
},
{
name = topleft;
position = "{76, 716}";
},
{
name = topright;
position = "{779, 716}";
}
);
layerId = "C87851D2-2817-4F36-A784-A5AE84D7BDA8";
paths = (
{
closed = 1;
nodes = (
"732 412 OFFCURVE",
"728 461 OFFCURVE",
"717 506 CURVE SMOOTH",
"706 551 OFFCURVE",
"686 589 OFFCURVE",
"659 622 CURVE SMOOTH",
"632 654 OFFCURVE",
"598 680 OFFCURVE",
"557 698 CURVE SMOOTH",
"516 716 OFFCURVE",
"469 724 OFFCURVE",
"416 724 CURVE SMOOTH",
"363 724 OFFCURVE",
"315 716 OFFCURVE",
"269 698 CURVE SMOOTH",
"223 680 OFFCURVE",
"183 654 OFFCURVE",
"148 622 CURVE SMOOTH",
"113 590 OFFCURVE",
"85 551 OFFCURVE",
"62 506 CURVE SMOOTH",
"39 461 OFFCURVE",
"25 412 OFFCURVE",
"18 358 CURVE SMOOTH",
"11 304 OFFCURVE",
"14 255 OFFCURVE",
"25 210 CURVE SMOOTH",
"36 165 OFFCURVE",
"56 126 OFFCURVE",
"83 94 CURVE SMOOTH",
"110 62 OFFCURVE",
"145 37 OFFCURVE",
"186 19 CURVE SMOOTH",
"227 1 OFFCURVE",
"273 -8 OFFCURVE",
"326 -8 CURVE SMOOTH",
"379 -8 OFFCURVE",
"428 1 OFFCURVE",
"474 19 CURVE SMOOTH",
"520 37 OFFCURVE",
"560 62 OFFCURVE",
"595 94 CURVE SMOOTH",
"630 126 OFFCURVE",
"658 165 OFFCURVE",
"681 210 CURVE SMOOTH",
"704 255 OFFCURVE",
"718 304 OFFCURVE",
"725 358 CURVE SMOOTH"
);
},
{
closed = 1;
nodes = (
"620 314 OFFCURVE",
"609 275 OFFCURVE",
"593 240 CURVE SMOOTH",
"577 205 OFFCURVE",
"556 175 OFFCURVE",
"531 151 CURVE SMOOTH",
"506 127 OFFCURVE",
"477 109 OFFCURVE",
"444 96 CURVE SMOOTH",
"411 83 OFFCURVE",
"376 76 OFFCURVE",
"337 76 CURVE SMOOTH",
"299 76 OFFCURVE",
"264 83 OFFCURVE",
"234 96 CURVE SMOOTH",
"204 109 OFFCURVE",
"180 127 OFFCURVE",
"161 151 CURVE SMOOTH",
"142 175 OFFCURVE",
"129 205 OFFCURVE",
"121 240 CURVE SMOOTH",
"113 275 OFFCURVE",
"112 314 OFFCURVE",
"117 358 CURVE SMOOTH",
"122 402 OFFCURVE",
"134 441 OFFCURVE",
"150 476 CURVE SMOOTH",
"166 511 OFFCURVE",
"187 541 OFFCURVE",
"212 565 CURVE SMOOTH",
"237 589 OFFCURVE",
"266 608 OFFCURVE",
"299 621 CURVE SMOOTH",
"332 634 OFFCURVE",
"368 640 OFFCURVE",
"406 640 CURVE SMOOTH",
"445 640 OFFCURVE",
"478 634 OFFCURVE",
"508 621 CURVE SMOOTH",
"538 608 OFFCURVE",
"563 589 OFFCURVE",
"582 565 CURVE SMOOTH",
"601 541 OFFCURVE",
"614 511 OFFCURVE",
"622 476 CURVE SMOOTH",
"630 441 OFFCURVE",
"630 402 OFFCURVE",
"625 358 CURVE SMOOTH"
);
}
);
width = 743;
}
);
leftKerningGroup = C;
note = O;
rightKerningGroup = D;
unicode = 004F;
},
{
glyphname = P;
lastChange = "2017-01-26 15:07:03 +0000";
layers = (
{
anchors = (
{
name = bottom;
position = "{262, 0}";
},
{
name = top;
position = "{348, 716}";
}
);
layerId = "C87851D2-2817-4F36-A784-A5AE84D7BDA8";
paths = (
{
closed = 1;
nodes = (
"434 711 OFFCURVE",
"394 716 OFFCURVE",
"349 716 CURVE SMOOTH",
"79 716 LINE",
"74 674 LINE SMOOTH",
"73 664 OFFCURVE",
"77 657 OFFCURVE",
"87 655 CURVE SMOOTH",
"93 654 OFFCURVE",
"112 649 OFFCURVE",
"143 643 CURVE",
"72 73 LINE",
"14 61 LINE SMOOTH",
"4 59 OFFCURVE",
"-2 53 OFFCURVE",
"-3 43 CURVE SMOOTH",
"-8 0 LINE",
"232 0 LINE",
"237 43 LINE SMOOTH",
"238 53 OFFCURVE",
"235 59 OFFCURVE",
"225 61 CURVE SMOOTH",
"194 67 OFFCURVE",
"175 72 OFFCURVE",
"169 73 CURVE",
"193 268 LINE",
"294 268 LINE SMOOTH",
"379 268 OFFCURVE",
"448 290 OFFCURVE",
"501 332 CURVE SMOOTH",
"552 373 OFFCURVE",
"581 426 OFFCURVE",
"589 494 CURVE SMOOTH",
"602 600 OFFCURVE",
"561 670 OFFCURVE",
"466 701 CURVE SMOOTH"
);
},
{
closed = 1;
nodes = (
"486 449 OFFCURVE",
"467 413 OFFCURVE",
"434 386 CURVE SMOOTH",
"401 359 OFFCURVE",
"358 345 OFFCURVE",
"304 345 CURVE SMOOTH",
"202 345 LINE",
"239 640 LINE",
"340 640 LINE SMOOTH",
"397 640 OFFCURVE",
"438 628 OFFCURVE",
"463 602 CURVE SMOOTH",
"488 576 OFFCURVE",
"498 541 OFFCURVE",
"492 495 CURVE SMOOTH"
);
}
);
width = 584;
}
);
note = P;
unicode = 0050;
},
{
glyphname = Q;
lastChange = "2017-01-26 15:47:04 +0000";
layers = (
{
anchors = (
{
name = bottom;
position = "{342, 0}";
},
{
name = top;
position = "{428, 716}";
}
);
layerId = "C87851D2-2817-4F36-A784-A5AE84D7BDA8";
paths = (
{
closed = 1;
nodes = (
"731 412 OFFCURVE",
"728 461 OFFCURVE",
"717 506 CURVE SMOOTH",
"706 551 OFFCURVE",
"686 589 OFFCURVE",
"659 622 CURVE SMOOTH",
"632 654 OFFCURVE",
"598 680 OFFCURVE",
"557 698 CURVE SMOOTH",
"516 716 OFFCURVE",
"469 724 OFFCURVE",
"416 724 CURVE SMOOTH",
"363 724 OFFCURVE",
"314 716 OFFCURVE",
"268 698 CURVE SMOOTH",
"222 680 OFFCURVE",
"182 654 OFFCURVE",
"147 622 CURVE SMOOTH",
"112 590 OFFCURVE",
"84 551 OFFCURVE",
"61 506 CURVE SMOOTH",
"38 461 OFFCURVE",
"25 412 OFFCURVE",
"18 358 CURVE SMOOTH",
"11 304 OFFCURVE",
"14 255 OFFCURVE",
"25 210 CURVE SMOOTH",
"36 165 OFFCURVE",
"56 126 OFFCURVE",
"83 94 CURVE SMOOTH",
"110 62 OFFCURVE",
"144 37 OFFCURVE",
"185 19 CURVE SMOOTH",
"226 1 OFFCURVE",
"273 -8 OFFCURVE",
"326 -8 CURVE SMOOTH",
"348 -8 OFFCURVE",
"370 -6 OFFCURVE",
"391 -3 CURVE SMOOTH",
"412 0 OFFCURVE",
"432 5 OFFCURVE",
"452 11 CURVE",
"561 -126 LINE",
"568 -134 OFFCURVE",
"575 -140 OFFCURVE",
"584 -143 CURVE SMOOTH",
"593 -146 OFFCURVE",
"603 -148 OFFCURVE",
"615 -148 CURVE SMOOTH",
"695 -148 LINE",
"536 50 LINE",
"561 66 OFFCURVE",
"585 85 OFFCURVE",
"606 106 CURVE SMOOTH",
"627 127 OFFCURVE",
"646 151 OFFCURVE",
"662 177 CURVE SMOOTH",
"678 203 OFFCURVE",
"691 232 OFFCURVE",
"702 262 CURVE SMOOTH",
"713 292 OFFCURVE",
"720 324 OFFCURVE",
"724 358 CURVE SMOOTH"
);
},
{
closed = 1;
nodes = (
"620 314 OFFCURVE",
"608 275 OFFCURVE",
"592 240 CURVE SMOOTH",
"576 205 OFFCURVE",
"555 175 OFFCURVE",
"530 151 CURVE SMOOTH",
"505 127 OFFCURVE",
"476 109 OFFCURVE",
"443 96 CURVE SMOOTH",
"410 83 OFFCURVE",
"375 76 OFFCURVE",
"336 76 CURVE SMOOTH",
"298 76 OFFCURVE",
"264 83 OFFCURVE",
"234 96 CURVE SMOOTH",
"204 109 OFFCURVE",
"179 127 OFFCURVE",
"160 151 CURVE SMOOTH",
"141 175 OFFCURVE",
"128 205 OFFCURVE",
"120 240 CURVE SMOOTH",
"112 275 OFFCURVE",
"112 314 OFFCURVE",
"117 358 CURVE SMOOTH",
"122 402 OFFCURVE",
"133 441 OFFCURVE",
"149 476 CURVE SMOOTH",
"165 511 OFFCURVE",
"186 541 OFFCURVE",
"211 565 CURVE SMOOTH",
"236 589 OFFCURVE",
"265 608 OFFCURVE",
"298 621 CURVE SMOOTH",
"331 634 OFFCURVE",
"367 640 OFFCURVE",
"405 640 CURVE SMOOTH",
"444 640 OFFCURVE",
"478 634 OFFCURVE",
"508 621 CURVE SMOOTH",
"538 608 OFFCURVE",
"562 589 OFFCURVE",
"581 565 CURVE SMOOTH",
"600 541 OFFCURVE",
"613 511 OFFCURVE",
"621 476 CURVE SMOOTH",
"629 441 OFFCURVE",
"630 402 OFFCURVE",
"625 358 CURVE SMOOTH"
);
}
);
width = 743;
}
);
leftKerningGroup = C;
note = Q;
rightKerningGroup = Q;
unicode = 0051;
},
{
glyphname = R;
lastChange = "2017-01-26 15:07:03 +0000";
layers = (
{
anchors = (
{
name = bottom;
position = "{288, 0}";
},
{
name = top;
position = "{374, 716}";
}
);
layerId = "C87851D2-2817-4F36-A784-A5AE84D7BDA8";
paths = (
{
closed = 1;
nodes = (
"585 64 OFFCURVE",
"544 72 OFFCURVE",
"538 73 CURVE",
"408 285 LINE SMOOTH",
"400 298 OFFCURVE",
"391 308 OFFCURVE",
"380 315 CURVE",
"408 321 OFFCURVE",
"435 331 OFFCURVE",
"458 343 CURVE SMOOTH",
"481 355 OFFCURVE",
"502 371 OFFCURVE",
"519 388 CURVE SMOOTH",
"536 406 OFFCURVE",
"550 425 OFFCURVE",
"561 447 CURVE SMOOTH",
"572 469 OFFCURVE",
"579 493 OFFCURVE",
"582 518 CURVE SMOOTH",
"586 548 OFFCURVE",
"583 576 OFFCURVE",
"576 600 CURVE SMOOTH",
"569 624 OFFCURVE",
"555 646 OFFCURVE",
"536 663 CURVE SMOOTH",
"517 680 OFFCURVE",
"491 694 OFFCURVE",
"459 703 CURVE SMOOTH",
"427 712 OFFCURVE",
"388 716 OFFCURVE",
"343 716 CURVE SMOOTH",
"151 716 LINE",
"78 716 LINE SMOOTH",
"78 716 OFFCURVE",
"74 682 OFFCURVE",
"73 673 CURVE SMOOTH",
"72 664 OFFCURVE",
"77 657 OFFCURVE",
"86 655 CURVE SMOOTH",
"95 653 OFFCURVE",
"142 644 OFFCURVE",
"142 644 CURVE",
"72 73 LINE",
"72 73 OFFCURVE",
"22 64 OFFCURVE",
"13 62 CURVE SMOOTH",
"4 60 OFFCURVE",
"-3 52 OFFCURVE",
"-4 43 CURVE SMOOTH",
"-5 34 OFFCURVE",
"-10 0 OFFCURVE",
"-10 0 CURVE",
"63 0 LINE",
"159 0 LINE",
"159 0 LINE",
"231 0 LINE",
"231 0 OFFCURVE",
"236 34 OFFCURVE",
"237 43 CURVE SMOOTH",
"238 52 OFFCURVE",
"233 60 OFFCURVE",
"224 62 CURVE SMOOTH",
"215 64 OFFCURVE",
"168 73 OFFCURVE",
"168 73 CURVE",
"196 299 LINE",
"260 299 LINE SMOOTH",
"273 299 OFFCURVE",
"283 297 OFFCURVE",
"289 294 CURVE",
"295 290 OFFCURVE",
"300 285 OFFCURVE",
"305 277 CURVE SMOOTH",
"460 21 LINE",
"467 7 OFFCURVE",
"478 0 OFFCURVE",
"496 0 CURVE SMOOTH",
"528 0 LINE",
"582 0 LINE",
"600 0 LINE",
"600 0 OFFCURVE",
"605 34 OFFCURVE",
"606 43 CURVE SMOOTH",
"607 52 OFFCURVE",
"602 60 OFFCURVE",
"593 62 CURVE SMOOTH"
);
},
{
closed = 1;
nodes = (
"205 370 LINE",
"238 640 LINE",
"334 640 LINE SMOOTH",
"390 640 OFFCURVE",
"430 630 OFFCURVE",
"456 608 CURVE SMOOTH",
"482 586 OFFCURVE",
"491 554 OFFCURVE",
"486 511 CURVE SMOOTH",
"483 490 OFFCURVE",
"477 471 OFFCURVE",
"468 454 CURVE SMOOTH",
"459 437 OFFCURVE",
"446 422 OFFCURVE",
"430 409 CURVE",
"414 397 OFFCURVE",
"394 387 OFFCURVE",
"372 380 CURVE SMOOTH",
"350 373 OFFCURVE",
"324 370 OFFCURVE",
"296 370 CURVE SMOOTH"
);
}
);
width = 635;
}
);
note = R;
unicode = 0052;
},
{
glyphname = S;
lastChange = "2017-01-26 15:47:04 +0000";
layers = (
{
anchors = (
{
name = bottom;
position = "{228, 0}";
},
{
name = top;
position = "{314, 716}";
}
);
layerId = "C87851D2-2817-4F36-A784-A5AE84D7BDA8";
paths = (
{
closed = 1;
nodes = (
"366 389 OFFCURVE",
"326 404 OFFCURVE",
"268 424 CURVE SMOOTH",
"248 431 OFFCURVE",
"231 440 OFFCURVE",
"216 449 CURVE SMOOTH",
"183 470 OFFCURVE",
"168 497 OFFCURVE",
"172 532 CURVE SMOOTH",
"176 565 OFFCURVE",
"191 592 OFFCURVE",
"216 612 CURVE SMOOTH",
"243 634 OFFCURVE",
"277 644 OFFCURVE",
"319 644 CURVE SMOOTH",
"353 644 OFFCURVE",
"391 638 OFFCURVE",
"434 625 CURVE",
"432 568 OFFCURVE",
"432 538 OFFCURVE",
"432 536 CURVE",
"433 525 OFFCURVE",
"438 519 OFFCURVE",
"450 519 CURVE SMOOTH",
"498 519 LINE",
"519 684 LINE",
"454 711 OFFCURVE",
"389 724 OFFCURVE",
"323 724 CURVE SMOOTH",
"257 724 OFFCURVE",
"202 704 OFFCURVE",
"156 664 CURVE SMOOTH",
"113 626 OFFCURVE",
"89 581 OFFCURVE",
"82 528 CURVE SMOOTH",
"75 471 OFFCURVE",
"87 426 OFFCURVE",
"119 394 CURVE SMOOTH",
"133 380 OFFCURVE",
"149 368 OFFCURVE",
"169 359 CURVE SMOOTH",
"189 350 OFFCURVE",
"229 336 OFFCURVE",
"290 316 CURVE SMOOTH",
"310 309 OFFCURVE",
"327 301 OFFCURVE",
"342 292 CURVE SMOOTH",
"375 271 OFFCURVE",
"389 242 OFFCURVE",
"384 204 CURVE SMOOTH",
"379 165 OFFCURVE",
"363 133 OFFCURVE",
"334 109 CURVE SMOOTH",
"320 97 OFFCURVE",
"304 88 OFFCURVE",
"285 82 CURVE SMOOTH",
"266 76 OFFCURVE",
"241 72 OFFCURVE",
"210 72 CURVE SMOOTH",
"179 72 OFFCURVE",
"139 82 OFFCURVE",
"92 100 CURVE",
"92 100 OFFCURVE",
"93 115 OFFCURVE",
"94 144 CURVE SMOOTH",
"95 173 OFFCURVE",
"95 189 OFFCURVE",
"95 193 CURVE",
"94 204 OFFCURVE",
"88 210 OFFCURVE",
"77 210 CURVE SMOOTH",
"29 210 LINE",
"6 30 LINE",
"34 20 LINE",
"53 14 OFFCURVE",
"78 8 OFFCURVE",
"112 2 CURVE SMOOTH",
"146 -4 OFFCURVE",
"178 -8 OFFCURVE",
"209 -8 CURVE SMOOTH",
"283 -8 OFFCURVE",
"345 14 OFFCURVE",
"395 58 CURVE SMOOTH",
"442 99 OFFCURVE",
"469 153 OFFCURVE",
"477 218 CURVE SMOOTH",
"486 293 OFFCURVE",
"456 346 OFFCURVE",
"388 379 CURVE SMOOTH"
);
}
);
width = 515;
}
);
leftKerningGroup = S;
note = S;
rightKerningGroup = S;
unicode = 0053;
},
{
glyphname = T;
lastChange = "2017-01-26 15:47:04 +0000";
layers = (
{
anchors = (
{
name = bottom;
position = "{265, 0}";
},
{
name = center;
position = "{308, 358}";
},
{
name = top;
position = "{351, 716}";
}
);
layerId = "C87851D2-2817-4F36-A784-A5AE84D7BDA8";
paths = (
{
closed = 1;
nodes = (
"602 716 LINE",
"567 716 LINE",
"28 716 LINE",
"8 558 LINE",
"57 558 LINE SMOOTH",
"68 558 OFFCURVE",
"75 561 OFFCURVE",
"77 568 CURVE SMOOTH",
"79 575 OFFCURVE",
"85 597 OFFCURVE",
"94 635 CURVE",
"263 635 LINE",
"194 73 LINE",
"168 68 OFFCURVE",
"149 64 OFFCURVE",
"138 62 CURVE SMOOTH",
"127 60 OFFCURVE",
"120 53 OFFCURVE",
"119 43 CURVE",
"113 0 LINE",
"355 0 LINE",
"360 43 LINE SMOOTH",
"361 53 OFFCURVE",
"359 59 OFFCURVE",
"352 61 CURVE SMOOTH",
"345 63 OFFCURVE",
"329 65 OFFCURVE",
"304 70 CURVE",
"296 72 OFFCURVE",
"291 73 OFFCURVE",
"291 73 CURVE",
"360 635 LINE",
"529 635 LINE",
"529 568 LINE SMOOTH",
"529 561 OFFCURVE",
"536 558 OFFCURVE",
"548 558 CURVE SMOOTH",
"596 558 LINE",
"615 716 LINE"
);
}
);
width = 589;
}
);
leftKerningGroup = T;
note = T;
rightKerningGroup = T;
unicode = 0054;
},
{
glyphname = U;
lastChange = "2017-01-26 15:47:04 +0000";
layers = (
{
anchors = (
{
name = bottom;
position = "{335, 0}";
},
{
name = ogonek;
position = "{626, 10}";
},
{
name = top;
position = "{421, 716}";
},
{
name = topright;
position = "{765, 716}";
}
);
layerId = "C87851D2-2817-4F36-A784-A5AE84D7BDA8";
paths = (
{
closed = 1;
nodes = (
"684 716 LINE",
"588 716 LINE",
"506 716 LINE",
"501 674 LINE SMOOTH",
"500 664 OFFCURVE",
"504 657 OFFCURVE",
"514 655 CURVE SMOOTH",
"519 654 OFFCURVE",
"541 651 OFFCURVE",
"579 644 CURVE",
"535 281 LINE SMOOTH",
"528 220 OFFCURVE",
"505 171 OFFCURVE",
"467 134 CURVE SMOOTH",
"428 96 OFFCURVE",
"379 77 OFFCURVE",
"321 77 CURVE SMOOTH",
"263 77 OFFCURVE",
"219 96 OFFCURVE",
"189 134 CURVE SMOOTH",
"160 171 OFFCURVE",
"150 221 OFFCURVE",
"157 282 CURVE SMOOTH",
"202 644 LINE",
"242 651 OFFCURVE",
"264 654 OFFCURVE",
"269 655 CURVE SMOOTH",
"280 657 OFFCURVE",
"286 664 OFFCURVE",
"287 674 CURVE SMOOTH",
"292 716 LINE",
"42 716 LINE",
"37 674 LINE SMOOTH",
"36 664 OFFCURVE",
"39 657 OFFCURVE",
"49 655 CURVE SMOOTH",
"55 654 OFFCURVE",
"74 650 OFFCURVE",
"105 644 CURVE",
"61 281 LINE SMOOTH",
"51 197 OFFCURVE",
"68 128 OFFCURVE",
"112 74 CURVE SMOOTH",
"158 19 OFFCURVE",
"223 -8 OFFCURVE",
"310 -8 CURVE SMOOTH",
"397 -8 OFFCURVE",
"471 19 OFFCURVE",
"530 74 CURVE SMOOTH",
"587 128 OFFCURVE",
"621 197 OFFCURVE",
"631 281 CURVE SMOOTH",
"676 644 LINE",
"734 655 LINE SMOOTH",
"745 657 OFFCURVE",
"751 664 OFFCURVE",
"752 674 CURVE SMOOTH",
"757 716 LINE"
);
}
);
width = 729;
}
);
leftKerningGroup = U;
note = U;
rightKerningGroup = J;
unicode = 0055;
},
{
glyphname = V;
lastChange = "2017-01-26 15:07:03 +0000";
layers = (
{
anchors = (
{
name = bottom;
position = "{336, 0}";
},
{
name = top;
position = "{422, 716}";
}
);
layerId = "C87851D2-2817-4F36-A784-A5AE84D7BDA8";
paths = (
{
closed = 1;
nodes = (
"520 716 LINE",
"515 674 LINE SMOOTH",
"514 664 OFFCURVE",
"517 657 OFFCURVE",
"527 655 CURVE SMOOTH",
"533 654 OFFCURVE",
"552 650 OFFCURVE",
"583 644 CURVE",
"346 188 LINE SMOOTH",
"336 170 OFFCURVE",
"326 144 OFFCURVE",
"314 110 CURVE",
"309 146 OFFCURVE",
"305 171 OFFCURVE",
"300 188 CURVE SMOOTH",
"173 643 LINE",
"195 647 OFFCURVE",
"214 651 OFFCURVE",
"227 654 CURVE SMOOTH",
"240 657 OFFCURVE",
"248 663 OFFCURVE",
"249 673 CURVE SMOOTH",
"254 716 LINE",
"16 716 LINE",
"11 673 LINE SMOOTH",
"10 663 OFFCURVE",
"13 657 OFFCURVE",
"23 655 CURVE SMOOTH",
"29 654 OFFCURVE",
"46 649 OFFCURVE",
"73 643 CURVE",
"256 0 LINE",
"343 0 LINE",
"685 643 LINE",
"736 655 LINE SMOOTH",
"746 657 OFFCURVE",
"752 663 OFFCURVE",
"753 673 CURVE SMOOTH",
"758 716 LINE"
);
}
);
width = 731;
}
);
leftKerningGroup = V;
note = V;
rightKerningGroup = V;
unicode = 0056;
},
{
glyphname = W;
lastChange = "2017-01-26 15:47:04 +0000";
layers = (
{
anchors = (
{
name = bottom;
position = "{509, 0}";
},
{
name = top;
position = "{595, 716}";
}
);
layerId = "C87851D2-2817-4F36-A784-A5AE84D7BDA8";
paths = (
{
closed = 1;
nodes = (
"1064 716 LINE",
"869 716 LINE",
"864 674 LINE SMOOTH",
"863 664 OFFCURVE",
"867 657 OFFCURVE",
"877 655 CURVE SMOOTH",
"910 648 OFFCURVE",
"928 645 OFFCURVE",
"932 644 CURVE",
"744 196 LINE SMOOTH",
"740 187 OFFCURVE",
"737 177 OFFCURVE",
"734 167 CURVE SMOOTH",
"731 157 OFFCURVE",
"727 147 OFFCURVE",
"724 136 CURVE",
"722 158 OFFCURVE",
"720 179 OFFCURVE",
"716 196 CURVE SMOOTH",
"609 694 LINE SMOOTH",
"606 709 OFFCURVE",
"596 716 OFFCURVE",
"579 716 CURVE SMOOTH",
"551 716 LINE SMOOTH",
"543 716 OFFCURVE",
"535 714 OFFCURVE",
"529 709 CURVE SMOOTH",
"523 704 OFFCURVE",
"518 700 OFFCURVE",
"515 694 CURVE SMOOTH",
"286 196 LINE SMOOTH",
"281 185 OFFCURVE",
"273 164 OFFCURVE",
"263 134 CURVE",
"262 160 OFFCURVE",
"259 181 OFFCURVE",
"257 196 CURVE",
"179 644 LINE",
"183 645 OFFCURVE",
"202 648 OFFCURVE",
"237 655 CURVE SMOOTH",
"247 657 OFFCURVE",
"254 664 OFFCURVE",
"255 674 CURVE SMOOTH",
"260 716 LINE",
"17 716 LINE",
"12 674 LINE SMOOTH",
"11 664 OFFCURVE",
"14 657 OFFCURVE",
"24 655 CURVE SMOOTH",
"30 654 OFFCURVE",
"47 650 OFFCURVE",
"74 644 CURVE",
"195 0 LINE",
"282 0 LINE",
"532 546 LINE",
"534 551 OFFCURVE",
"536 558 OFFCURVE",
"538 564 CURVE SMOOTH",
"540 570 OFFCURVE",
"544 576 OFFCURVE",
"546 582 CURVE",
"547 568 OFFCURVE",
"549 556 OFFCURVE",
"551 546 CURVE SMOOTH",
"666 0 LINE",
"753 0 LINE",
"1033 644 LINE",
"1084 655 LINE SMOOTH",
"1094 657 OFFCURVE",
"1100 664 OFFCURVE",
"1101 674 CURVE SMOOTH",
"1106 716 LINE"
);
}
);
width = 1078;
}
);
leftKerningGroup = V;
note = W;
rightKerningGroup = V;
unicode = 0057;
},
{
glyphname = X;
lastChange = "2017-01-26 15:47:04 +0000";
layers = (
{
anchors = (
{
name = bottom;
position = "{338, 0}";
},
{
name = top;
position = "{424, 716}";
}
);
layerId = "C87851D2-2817-4F36-A784-A5AE84D7BDA8";
paths = (
{
closed = 1;
nodes = (
"669 63 OFFCURVE",
"648 67 OFFCURVE",
"610 73 CURVE",
"450 372 LINE",
"670 644 LINE",
"708 650 OFFCURVE",
"731 654 OFFCURVE",
"740 656 CURVE SMOOTH",
"749 658 OFFCURVE",
"754 664 OFFCURVE",
"755 674 CURVE SMOOTH",
"760 716 LINE",
"503 716 LINE",
"498 674 LINE SMOOTH",
"497 664 OFFCURVE",
"501 657 OFFCURVE",
"511 655 CURVE SMOOTH",
"536 650 OFFCURVE",
"555 647 OFFCURVE",
"567 644 CURVE",
"404 439 LINE SMOOTH",
"398 431 OFFCURVE",
"394 423 OFFCURVE",
"391 416 CURVE",
"269 645 LINE",
"291 649 OFFCURVE",
"308 653 OFFCURVE",
"319 655 CURVE SMOOTH",
"330 657 OFFCURVE",
"336 664 OFFCURVE",
"337 674 CURVE SMOOTH",
"342 716 LINE",
"87 716 LINE",
"82 674 LINE SMOOTH",
"81 664 OFFCURVE",
"85 657 OFFCURVE",
"95 655 CURVE SMOOTH",
"101 654 OFFCURVE",
"122 650 OFFCURVE",
"160 644 CURVE",
"313 368 LINE",
"79 73 LINE",
"36 66 OFFCURVE",
"13 63 OFFCURVE",
"11 62 CURVE",
"1 60 OFFCURVE",
"-5 53 OFFCURVE",
"-6 43 CURVE",
"-12 0 LINE",
"246 0 LINE",
"251 43 LINE SMOOTH",
"252 53 OFFCURVE",
"249 60 OFFCURVE",
"239 62 CURVE SMOOTH",
"205 69 OFFCURVE",
"186 72 OFFCURVE",
"183 73 CURVE",
"362 299 LINE",
"366 305 OFFCURVE",
"370 312 OFFCURVE",
"373 319 CURVE",
"500 73 LINE",
"500 73 OFFCURVE",
"490 72 OFFCURVE",
"473 68 CURVE SMOOTH",
"456 64 OFFCURVE",
"446 63 OFFCURVE",
"442 62 CURVE",
"432 60 OFFCURVE",
"425 53 OFFCURVE",
"424 43 CURVE SMOOTH",
"419 0 LINE",
"682 0 LINE",
"688 43 LINE",
"689 53 OFFCURVE",
"685 60 OFFCURVE",
"675 62 CURVE SMOOTH"
);
}
);
width = 735;
}
);
leftKerningGroup = X;
note = X;
rightKerningGroup = K;
unicode = 0058;
},
{
glyphname = Y;
lastChange = "2017-01-26 15:07:03 +0000";
layers = (
{
anchors = (
{
name = bottom;
position = "{296, 0}";
},
{
name = top;
position = "{382, 716}";
},
{
name = topleft;
position = "{76, 716}";
}
);
layerId = "C87851D2-2817-4F36-A784-A5AE84D7BDA8";
paths = (
{
closed = 1;
nodes = (
"438 716 LINE",
"433 674 LINE SMOOTH",
"432 664 OFFCURVE",
"435 657 OFFCURVE",
"445 655 CURVE SMOOTH",
"478 648 OFFCURVE",
"497 645 OFFCURVE",
"501 644 CURVE",
"339 416 LINE SMOOTH",
"327 399 OFFCURVE",
"315 377 OFFCURVE",
"303 352 CURVE",
"297 376 OFFCURVE",
"290 397 OFFCURVE",
"282 416 CURVE",
"176 644 LINE",
"180 645 OFFCURVE",
"198 648 OFFCURVE",
"233 655 CURVE SMOOTH",
"244 657 OFFCURVE",
"250 664 OFFCURVE",
"251 674 CURVE",
"257 716 LINE",
"16 716 LINE",
"10 674 LINE",
"9 664 OFFCURVE",
"13 657 OFFCURVE",
"22 655 CURVE SMOOTH",
"31 653 OFFCURVE",
"48 650 OFFCURVE",
"72 644 CURVE",
"246 285 LINE",
"220 73 LINE",
"161 62 LINE SMOOTH",
"151 60 OFFCURVE",
"145 53 OFFCURVE",
"144 43 CURVE SMOOTH",
"139 0 LINE",
"211 0 LINE",
"307 0 LINE",
"379 0 LINE",
"384 43 LINE SMOOTH",
"385 53 OFFCURVE",
"382 60 OFFCURVE",
"372 62 CURVE SMOOTH",
"339 69 OFFCURVE",
"321 72 OFFCURVE",
"316 73 CURVE",
"342 285 LINE",
"605 644 LINE",
"659 656 LINE SMOOTH",
"668 658 OFFCURVE",
"673 664 OFFCURVE",
"674 674 CURVE SMOOTH",
"679 716 LINE"
);
}
);
width = 651;
}
);
leftKerningGroup = Y;
note = Y;
rightKerningGroup = Y;
unicode = 0059;
},
{
glyphname = Z;
lastChange = "2017-01-26 15:47:04 +0000";
layers = (
{
anchors = (
{
name = bottom;
position = "{270, 0}";
},
{
name = top;
position = "{356, 716}";
}
);
layerId = "C87851D2-2817-4F36-A784-A5AE84D7BDA8";
paths = (
{
closed = 1;
nodes = (
"605 648 LINE SMOOTH",
"613 658 OFFCURVE",
"619 669 OFFCURVE",
"620 680 CURVE SMOOTH",
"624 716 LINE",
"100 716 LINE",
"90 638 LINE",
"79 542 LINE",
"127 542 LINE SMOOTH",
"138 542 OFFCURVE",
"146 548 OFFCURVE",
"150 559 CURVE",
"152 563 OFFCURVE",
"156 589 OFFCURVE",
"166 637 CURVE",
"487 637 LINE",
"11 66 LINE SMOOTH",
"4 57 OFFCURVE",
"-1 48 OFFCURVE",
"-2 38 CURVE SMOOTH",
"-7 0 LINE",
"529 0 LINE",
"539 79 LINE",
"550 174 LINE",
"502 174 LINE SMOOTH",
"491 174 OFFCURVE",
"483 168 OFFCURVE",
"479 157 CURVE",
"478 153 OFFCURVE",
"473 127 OFFCURVE",
"463 79 CURVE",
"130 79 LINE"
);
}
);
width = 600;
}
);
leftKerningGroup = Z;
note = Z;
rightKerningGroup = uni01F1;
unicode = 005A;
},
{
glyphname = bracketleft;
layers = (
{
layerId = "C87851D2-2817-4F36-A784-A5AE84D7BDA8";
paths = (
{
closed = 1;
nodes = (
"8 -144 LINE",
"192 -144 LINE",
"196 -110 LINE SMOOTH",
"197 -102 OFFCURVE",
"196 -96 OFFCURVE",
"192 -92 CURVE SMOOTH",
"188 -88 OFFCURVE",
"182 -86 OFFCURVE",
"175 -86 CURVE SMOOTH",
"90 -86 LINE",
"188 708 LINE",
"272 708 LINE SMOOTH",
"279 708 OFFCURVE",
"286 710 OFFCURVE",
"291 714 CURVE SMOOTH",
"296 718 OFFCURVE",
"299 725 OFFCURVE",
"300 732 CURVE SMOOTH",
"304 766 LINE",
"120 766 LINE"
);
}
);
width = 290;
}
);
note = bracketleft;
unicode = 005B;
},
{
glyphname = backslash;
layers = (
{
layerId = "C87851D2-2817-4F36-A784-A5AE84D7BDA8";
paths = (
{
closed = 1;
nodes = (
"22 736 LINE",
"230 -10 LINE SMOOTH",
"233 -22 OFFCURVE",
"238 -30 OFFCURVE",
"247 -36 CURVE SMOOTH",
"256 -42 OFFCURVE",
"265 -45 OFFCURVE",
"275 -45 CURVE SMOOTH",
"312 -45 LINE",
"103 704 LINE SMOOTH",
"100 715 OFFCURVE",
"95 722 OFFCURVE",
"88 728 CURVE SMOOTH",
"81 734 OFFCURVE",
"71 736 OFFCURVE",
"60 736 CURVE SMOOTH"
);
}
);
width = 321;
}
);
note = backslash;
unicode = 005C;
},
{
glyphname = bracketright;
layers = (
{
layerId = "C87851D2-2817-4F36-A784-A5AE84D7BDA8";
paths = (
{
closed = 1;
nodes = (
"-17 -144 LINE",
"167 -144 LINE",
"279 766 LINE",
"95 766 LINE",
"91 732 LINE SMOOTH",
"90 725 OFFCURVE",
"91 720 OFFCURVE",
"95 715 CURVE",
"99 711 OFFCURVE",
"105 708 OFFCURVE",
"112 708 CURVE SMOOTH",
"197 708 LINE",
"99 -86 LINE",
"15 -86 LINE SMOOTH",
"8 -86 OFFCURVE",
"1 -87 OFFCURVE",
"-4 -92 CURVE SMOOTH",
"-9 -97 OFFCURVE",
"-12 -103 OFFCURVE",
"-13 -110 CURVE SMOOTH"
);
}
);
width = 296;
}
);
note = bracketright;
unicode = 005D;
},
{
glyphname = asciicircum;
layers = (
{
layerId = "C87851D2-2817-4F36-A784-A5AE84D7BDA8";
paths = (
{
closed = 1;
nodes = (
"239 716 LINE",
"20 394 LINE",
"88 394 LINE SMOOTH",
"95 394 OFFCURVE",
"101 395 OFFCURVE",
"105 398 CURVE SMOOTH",
"109 401 OFFCURVE",
"113 405 OFFCURVE",
"116 410 CURVE",
"235 586 LINE SMOOTH",
"244 600 OFFCURVE",
"253 615 OFFCURVE",
"259 630 CURVE",
"260 623 OFFCURVE",
"262 616 OFFCURVE",
"264 609 CURVE SMOOTH",
"266 602 OFFCURVE",
"270 594 OFFCURVE",
"273 586 CURVE",
"349 410 LINE SMOOTH",
"351 405 OFFCURVE",
"354 401 OFFCURVE",
"358 398 CURVE SMOOTH",
"362 395 OFFCURVE",
"366 394 OFFCURVE",
"372 394 CURVE SMOOTH",
"436 394 LINE",
"297 716 LINE"
);
}
);
width = 455;
}
);
note = asciicircum;
unicode = 005E;
},
{
glyphname = underscore;
layers = (
{
layerId = "C87851D2-2817-4F36-A784-A5AE84D7BDA8";
paths = (
{
closed = 1;
nodes = (
"471 -82 LINE",
"77 -82 LINE",
"70 -142 LINE",
"464 -142 LINE"
);
}
);
width = 552;
}
);
note = underscore;
unicode = 005F;
},
{
glyphname = grave;
lastChange = "2017-01-26 15:02:32 +0000";
layers = (
{
layerId = "C87851D2-2817-4F36-A784-A5AE84D7BDA8";
paths = (
{
closed = 1;
nodes = (
"92 724 LINE",
"193 596 LINE SMOOTH",
"197 591 OFFCURVE",
"201 587 OFFCURVE",
"205 585 CURVE SMOOTH",
"209 583 OFFCURVE",
"214 582 OFFCURVE",
"221 582 CURVE SMOOTH",
"272 582 LINE",
"213 702 LINE SMOOTH",
"209 710 OFFCURVE",
"205 715 OFFCURVE",
"200 719 CURVE SMOOTH",
"195 723 OFFCURVE",
"187 724 OFFCURVE",
"176 724 CURVE SMOOTH"
);
}
);
width = 265;
}
);
note = grave;
unicode = 0060;
},
{
glyphname = a;
lastChange = "2017-01-26 15:47:04 +0000";
layers = (
{
anchors = (
{
name = bottom;
position = "{229, 0}";
},
{
name = ogonek;
position = "{435, 10}";
},
{
name = top;
position = "{289, 506}";
}
);
layerId = "C87851D2-2817-4F36-A784-A5AE84D7BDA8";
paths = (
{
closed = 1;
nodes = (
"391 0 LINE",
"472 0 LINE",
"472 43 LINE SMOOTH",
"472 52 OFFCURVE",
"466 60 OFFCURVE",
"457 62 CURVE SMOOTH",
"449 64 OFFCURVE",
"403 72 OFFCURVE",
"400 73 CURVE",
"452 490 LINE",
"416 506 OFFCURVE",
"377 513 OFFCURVE",
"328 513 CURVE SMOOTH",
"225 513 OFFCURVE",
"151 466 OFFCURVE",
"100 410 CURVE SMOOTH",
"49 354 OFFCURVE",
"8 275 OFFCURVE",
"8 171 CURVE SMOOTH",
"8 74 OFFCURVE",
"45 -7 OFFCURVE",
"140 -7 CURVE SMOOTH",
"158 -7 OFFCURVE",
"176 -4 OFFCURVE",
"193 3 CURVE SMOOTH",
"252 27 OFFCURVE",
"293 77 OFFCURVE",
"324 132 CURVE",
"315 31 LINE",
"315 11 OFFCURVE",
"324 0 OFFCURVE",
"345 0 CURVE SMOOTH"
);
},
{
closed = 1;
nodes = (
"337 267 LINE",
"320 213 OFFCURVE",
"296 162 OFFCURVE",
"266 124 CURVE SMOOTH",
"245 97 OFFCURVE",
"214 67 OFFCURVE",
"173 67 CURVE SMOOTH",
"122 67 OFFCURVE",
"96 107 OFFCURVE",
"96 187 CURVE SMOOTH",
"96 265 OFFCURVE",
"125 325 OFFCURVE",
"161 369 CURVE SMOOTH",
"195 410 OFFCURVE",
"245 447 OFFCURVE",
"316 447 CURVE SMOOTH",
"337 447 LINE SMOOTH",
"344 447 OFFCURVE",
"352 445 OFFCURVE",
"359 439 CURVE"
);
}
);
width = 517;
}
);
leftKerningGroup = a;
note = a;
unicode = 0061;
},
{
glyphname = b;
lastChange = "2017-01-26 15:07:03 +0000";
layers = (
{
anchors = (
{
name = bottom;
position = "{242, 0}";
},
{
name = top;
position = "{302, 506}";
}
);
layerId = "C87851D2-2817-4F36-A784-A5AE84D7BDA8";
paths = (
{
closed = 1;
nodes = (
"520 257 LINE",
"525 299 OFFCURVE",
"526 336 OFFCURVE",
"521 368 CURVE SMOOTH",
"516 400 OFFCURVE",
"506 427 OFFCURVE",
"492 449 CURVE SMOOTH",
"478 471 OFFCURVE",
"460 487 OFFCURVE",
"438 498 CURVE SMOOTH",
"416 509 OFFCURVE",
"389 515 OFFCURVE",
"360 515 CURVE SMOOTH",
"325 515 OFFCURVE",
"293 507 OFFCURVE",
"264 492 CURVE SMOOTH",
"235 477 OFFCURVE",
"209 458 OFFCURVE",
"185 434 CURVE",
"222 737 LINE",
"135 737 LINE",
"132 737 LINE",
"53 737 LINE SMOOTH",
"53 737 OFFCURVE",
"49 702 OFFCURVE",
"48 693 CURVE SMOOTH",
"47 684 OFFCURVE",
"52 677 OFFCURVE",
"61 675 CURVE",
"68 673 OFFCURVE",
"111 666 OFFCURVE",
"123 664 CURVE",
"54 102 LINE",
"46 29 LINE",
"44 21 LINE",
"44 21 OFFCURVE",
"175 -7 OFFCURVE",
"265 -7 CURVE SMOOTH",
"297 -7 OFFCURVE",
"326 -1 OFFCURVE",
"355 11 CURVE SMOOTH",
"384 23 OFFCURVE",
"409 39 OFFCURVE",
"432 61 CURVE SMOOTH",
"455 83 OFFCURVE",
"474 111 OFFCURVE",
"489 143 CURVE SMOOTH",
"504 175 OFFCURVE",
"515 213 OFFCURVE",
"520 254 CURVE",
"520 255 LINE"
);
},
{
closed = 1;
nodes = (
"356 96 OFFCURVE",
"339 84 OFFCURVE",
"320 75 CURVE SMOOTH",
"303 67 OFFCURVE",
"284 63 OFFCURVE",
"264 62 CURVE",
"258 62 LINE SMOOTH",
"252 62 OFFCURVE",
"245 63 OFFCURVE",
"239 63 CURVE",
"196 66 OFFCURVE",
"154 76 OFFCURVE",
"141 79 CURVE",
"146 122 LINE",
"162 249 LINE",
"177 367 LINE",
"198 391 OFFCURVE",
"221 411 OFFCURVE",
"244 424 CURVE SMOOTH",
"267 437 OFFCURVE",
"293 444 OFFCURVE",
"322 444 CURVE SMOOTH",
"342 444 OFFCURVE",
"361 440 OFFCURVE",
"376 433 CURVE SMOOTH",
"391 426 OFFCURVE",
"403 415 OFFCURVE",
"412 400 CURVE SMOOTH",
"421 385 OFFCURVE",
"427 366 OFFCURVE",
"430 342 CURVE SMOOTH",
"433 318 OFFCURVE",
"432 290 OFFCURVE",
"428 257 CURVE",
"428 254 OFFCURVE",
"427 252 OFFCURVE",
"427 249 CURVE",
"423 220 OFFCURVE",
"417 195 OFFCURVE",
"408 172 CURVE SMOOTH",
"398 148 OFFCURVE",
"386 128 OFFCURVE",
"371 112 CURVE SMOOTH"
);
}
);
width = 544;
}
);
note = b;
unicode = 0062;
},
{
glyphname = c;
lastChange = "2017-01-26 15:47:04 +0000";
layers = (
{
anchors = (
{
name = bottom;
position = "{191, 0}";
},
{
name = top;
position = "{251, 506}";
}
);
layerId = "C87851D2-2817-4F36-A784-A5AE84D7BDA8";
paths = (
{
closed = 1;
nodes = (
"377 104 LINE",
"374 110 OFFCURVE",
"369 112 OFFCURVE",
"362 112 CURVE SMOOTH",
"355 112 OFFCURVE",
"349 109 OFFCURVE",
"342 104 CURVE",
"306 76 OFFCURVE",
"267 62 OFFCURVE",
"225 62 CURVE SMOOTH",
"179 62 OFFCURVE",
"146 79 OFFCURVE",
"124 112 CURVE SMOOTH",
"102 146 OFFCURVE",
"94 194 OFFCURVE",
"101 254 CURVE SMOOTH",
"108 314 OFFCURVE",
"127 360 OFFCURVE",
"157 394 CURVE SMOOTH",
"172 411 OFFCURVE",
"189 423 OFFCURVE",
"208 431 CURVE SMOOTH",
"227 439 OFFCURVE",
"247 444 OFFCURVE",
"265 444 CURVE SMOOTH",
"283 444 OFFCURVE",
"302 443 OFFCURVE",
"321 440 CURVE",
"330 439 OFFCURVE",
"341 436 OFFCURVE",
"356 431 CURVE",
"356 430 OFFCURVE",
"356 419 OFFCURVE",
"355 398 CURVE SMOOTH",
"354 377 OFFCURVE",
"353 364 OFFCURVE",
"354 360 CURVE",
"355 351 OFFCURVE",
"359 346 OFFCURVE",
"369 346 CURVE SMOOTH",
"409 346 LINE",
"426 478 LINE",
"368 503 OFFCURVE",
"319 515 OFFCURVE",
"280 515 CURVE SMOOTH",
"205 515 OFFCURVE",
"143 490 OFFCURVE",
"94 441 CURVE SMOOTH",
"47 394 OFFCURVE",
"20 332 OFFCURVE",
"10 254 CURVE SMOOTH",
"0 173 OFFCURVE",
"14 109 OFFCURVE",
"51 62 CURVE SMOOTH",
"86 16 OFFCURVE",
"136 -7 OFFCURVE",
"201 -7 CURVE SMOOTH",
"283 -7 OFFCURVE",
"349 19 OFFCURVE",
"398 71 CURVE"
);
}
);
width = 442;
}
);
leftKerningGroup = c;
note = c;
unicode = 0063;
},
{
glyphname = d;
lastChange = "2017-01-26 15:47:04 +0000";
layers = (
{
anchors = (
{
name = bottom;
position = "{242, 0}";
},
{
name = center;
position = "{272, 253}";
},
{
name = top;
position = "{302, 506}";
},
{
name = topright;
position = "{554, 506}";
}
);
layerId = "C87851D2-2817-4F36-A784-A5AE84D7BDA8";
paths = (
{
closed = 1;
nodes = (
"193 516 OFFCURVE",
"136 491 OFFCURVE",
"90 440 CURVE SMOOTH",
"45 391 OFFCURVE",
"17 329 OFFCURVE",
"8 252 CURVE SMOOTH",
"-2 169 OFFCURVE",
"8 104 OFFCURVE",
"37 59 CURVE SMOOTH",
"65 15 OFFCURVE",
"109 -7 OFFCURVE",
"168 -7 CURVE SMOOTH",
"234 -7 OFFCURVE",
"294 22 OFFCURVE",
"349 80 CURVE",
"349 18 LINE",
"351 6 OFFCURVE",
"358 0 OFFCURVE",
"371 0 CURVE SMOOTH",
"496 0 LINE",
"501 43 LINE SMOOTH",
"502 53 OFFCURVE",
"499 60 OFFCURVE",
"489 62 CURVE SMOOTH",
"483 63 OFFCURVE",
"464 67 OFFCURVE",
"433 73 CURVE",
"515 737 LINE",
"344 737 LINE",
"338 694 LINE",
"337 684 OFFCURVE",
"341 677 OFFCURVE",
"351 675 CURVE SMOOTH",
"361 673 OFFCURVE",
"384 669 OFFCURVE",
"417 664 CURVE",
"391 456 LINE",
"360 496 OFFCURVE",
"316 516 OFFCURVE",
"260 516 CURVE SMOOTH"
);
},
{
closed = 1;
nodes = (
"186 65 OFFCURVE",
"168 69 OFFCURVE",
"153 76 CURVE SMOOTH",
"106 98 OFFCURVE",
"88 156 OFFCURVE",
"100 252 CURVE SMOOTH",
"108 314 OFFCURVE",
"127 362 OFFCURVE",
"156 396 CURVE SMOOTH",
"185 430 OFFCURVE",
"225 446 OFFCURVE",
"273 446 CURVE SMOOTH",
"321 446 OFFCURVE",
"359 426 OFFCURVE",
"383 386 CURVE",
"352 142 LINE",
"307 91 OFFCURVE",
"260 65 OFFCURVE",
"207 65 CURVE SMOOTH"
);
}
);
width = 544;
}
);
leftKerningGroup = c;
note = d;
unicode = 0064;
},
{
glyphname = e;
lastChange = "2017-01-26 15:47:04 +0000";
layers = (
{
anchors = (
{
name = bottom;
position = "{188, 0}";
},
{
name = ogonek;
position = "{362, 10}";
},
{
name = top;
position = "{248, 506}";
}
);
layerId = "C87851D2-2817-4F36-A784-A5AE84D7BDA8";
paths = (
{
closed = 1;
nodes = (
"383 121 LINE SMOOTH",
"378 127 OFFCURVE",
"372 129 OFFCURVE",
"366 129 CURVE SMOOTH",
"361 129 OFFCURVE",
"355 127 OFFCURVE",
"350 124 CURVE SMOOTH",
"337 116 OFFCURVE",
"325 106 OFFCURVE",
"312 96 CURVE SMOOTH",
"287 77 OFFCURVE",
"254 63 OFFCURVE",
"210 63 CURVE SMOOTH",
"128 63 OFFCURVE",
"93 115 OFFCURVE",
"93 200 CURVE SMOOTH",
"93 211 LINE",
"93 222 LINE",
"159 229 OFFCURVE",
"213 237 OFFCURVE",
"255 248 CURVE SMOOTH",
"297 259 OFFCURVE",
"330 272 OFFCURVE",
"354 287 CURVE SMOOTH",
"394 311 OFFCURVE",
"417 342 OFFCURVE",
"417 398 CURVE SMOOTH",
"417 410 OFFCURVE",
"414 423 OFFCURVE",
"408 437 CURVE SMOOTH",
"388 484 OFFCURVE",
"338 513 OFFCURVE",
"269 513 CURVE SMOOTH",
"178 513 OFFCURVE",
"117 468 OFFCURVE",
"77 415 CURVE SMOOTH",
"37 362 OFFCURVE",
"6 289 OFFCURVE",
"6 198 CURVE SMOOTH",
"6 167 OFFCURVE",
"10 138 OFFCURVE",
"19 113 CURVE SMOOTH",
"43 42 OFFCURVE",
"98 -7 OFFCURVE",
"192 -7 CURVE SMOOTH",
"295 -7 OFFCURVE",
"353 40 OFFCURVE",
"405 94 CURVE"
);
},
{
closed = 1;
nodes = (
"337 360 OFFCURVE",
"322 344 OFFCURVE",
"296 329 CURVE",
"279 320 OFFCURVE",
"256 311 OFFCURVE",
"225 303 CURVE SMOOTH",
"194 295 OFFCURVE",
"152 287 OFFCURVE",
"101 281 CURVE",
"106 305 OFFCURVE",
"114 327 OFFCURVE",
"124 347 CURVE SMOOTH",
"148 399 OFFCURVE",
"191 449 OFFCURVE",
"264 449 CURVE SMOOTH",
"303 449 OFFCURVE",
"337 431 OFFCURVE",
"337 394 CURVE SMOOTH"
);
}
);
width = 436;
}
);
leftKerningGroup = c;
note = e;
rightKerningGroup = e;
unicode = 0065;
},
{
glyphname = f;
lastChange = "2017-01-26 15:07:03 +0000";
layers = (
{
anchors = (
{
name = bottom;
position = "{169, 0}";
},
{
name = top;
position = "{229, 506}";
}
);
layerId = "C87851D2-2817-4F36-A784-A5AE84D7BDA8";
paths = (
{
closed = 1;
nodes = (
"243 727 OFFCURVE",
"175 652 OFFCURVE",
"162 546 CURVE SMOOTH",
"156 496 LINE",
"76 496 LINE",
"72 460 LINE SMOOTH",
"71 448 OFFCURVE",
"77 441 OFFCURVE",
"93 437 CURVE",
"148 430 LINE",
"91 -37 LINE SMOOTH",
"85 -88 OFFCURVE",
"64 -114 OFFCURVE",
"9 -114 CURVE SMOOTH",
"-10 -114 LINE SMOOTH",
"-19 -114 OFFCURVE",
"-25 -117 OFFCURVE",
"-27 -124 CURVE",
"-37 -172 LINE",
"-20 -179 OFFCURVE",
"0 -182 OFFCURVE",
"23 -182 CURVE SMOOTH",
"118 -182 OFFCURVE",
"169 -124 OFFCURVE",
"180 -38 CURVE SMOOTH",
"199 119 OFFCURVE",
"218 275 OFFCURVE",
"237 432 CURVE",
"381 432 LINE",
"389 496 LINE",
"243 496 LINE",
"248 543 LINE SMOOTH",
"257 620 OFFCURVE",
"296 658 OFFCURVE",
"364 658 CURVE SMOOTH",
"380 658 LINE SMOOTH",
"398 658 OFFCURVE",
"411 659 OFFCURVE",
"413 673 CURVE SMOOTH",
"420 717 LINE",
"402 724 OFFCURVE",
"381 727 OFFCURVE",
"358 727 CURVE SMOOTH"
);
}
);
width = 398;
}
);
note = f;
unicode = 0066;
},
{
glyphname = g;
lastChange = "2017-01-26 15:47:04 +0000";
layers = (
{
anchors = (
{
name = bottom;
position = "{214, 0}";
},
{
name = top;
position = "{274, 506}";
}
);
layerId = "C87851D2-2817-4F36-A784-A5AE84D7BDA8";
paths = (
{
closed = 1;
nodes = (
"419 376 OFFCURVE",
"419 386 OFFCURVE",
"417 395 CURVE SMOOTH",
"415 405 OFFCURVE",
"413 413 OFFCURVE",
"410 422 CURVE",
"473 433 LINE SMOOTH",
"479 434 OFFCURVE",
"484 437 OFFCURVE",
"487 442 CURVE SMOOTH",
"490 447 OFFCURVE",
"492 451 OFFCURVE",
"493 457 CURVE SMOOTH",
"497 487 LINE",
"359 487 LINE",
"332 504 OFFCURVE",
"301 513 OFFCURVE",
"264 513 CURVE SMOOTH",
"231 513 OFFCURVE",
"202 507 OFFCURVE",
"177 496 CURVE SMOOTH",
"152 485 OFFCURVE",
"131 470 OFFCURVE",
"114 452 CURVE SMOOTH",
"97 434 OFFCURVE",
"85 413 OFFCURVE",
"76 390 CURVE SMOOTH",
"67 367 OFFCURVE",
"63 344 OFFCURVE",
"63 320 CURVE SMOOTH",
"63 295 OFFCURVE",
"67 274 OFFCURVE",
"74 255 CURVE SMOOTH",
"81 236 OFFCURVE",
"91 221 OFFCURVE",
"104 209 CURVE SMOOTH",
"117 197 OFFCURVE",
"131 187 OFFCURVE",
"148 181 CURVE SMOOTH",
"165 175 OFFCURVE",
"183 171 OFFCURVE",
"202 171 CURVE SMOOTH",
"222 171 OFFCURVE",
"239 173 OFFCURVE",
"255 178 CURVE SMOOTH",
"271 183 OFFCURVE",
"285 189 OFFCURVE",
"298 198 CURVE",
"291 184 OFFCURVE",
"285 172 OFFCURVE",
"282 161 CURVE SMOOTH",
"279 150 OFFCURVE",
"277 139 OFFCURVE",
"277 129 CURVE SMOOTH",
"277 121 OFFCURVE",
"278 114 OFFCURVE",
"280 107 CURVE SMOOTH",
"282 100 OFFCURVE",
"284 93 OFFCURVE",
"287 87 CURVE",
"275 89 OFFCURVE",
"264 90 OFFCURVE",
"252 91 CURVE SMOOTH",
"240 92 OFFCURVE",
"228 93 OFFCURVE",
"216 93 CURVE SMOOTH",
"186 93 OFFCURVE",
"158 90 OFFCURVE",
"129 84 CURVE SMOOTH",
"100 78 OFFCURVE",
"75 69 OFFCURVE",
"53 57 CURVE SMOOTH",
"31 45 OFFCURVE",
"13 29 OFFCURVE",
"-1 10 CURVE SMOOTH",
"-15 -9 OFFCURVE",
"-22 -32 OFFCURVE",
"-22 -58 CURVE SMOOTH",
"-22 -77 OFFCURVE",
"-17 -94 OFFCURVE",
"-8 -109 CURVE SMOOTH",
"1 -125 OFFCURVE",
"14 -138 OFFCURVE",
"31 -149 CURVE SMOOTH",
"48 -160 OFFCURVE",
"68 -168 OFFCURVE",
"92 -174 CURVE SMOOTH",
"116 -180 OFFCURVE",
"142 -183 OFFCURVE",
"171 -183 CURVE SMOOTH",
"207 -183 OFFCURVE",
"241 -178 OFFCURVE",
"270 -169 CURVE SMOOTH",
"299 -160 OFFCURVE",
"324 -146 OFFCURVE",
"344 -130 CURVE SMOOTH",
"364 -114 OFFCURVE",
"380 -95 OFFCURVE",
"391 -74 CURVE SMOOTH",
"402 -53 OFFCURVE",
"407 -31 OFFCURVE",
"407 -7 CURVE SMOOTH",
"407 12 OFFCURVE",
"404 29 OFFCURVE",
"397 43 CURVE SMOOTH",
"390 57 OFFCURVE",
"383 71 OFFCURVE",
"375 83 CURVE SMOOTH",
"367 95 OFFCURVE",
"359 107 OFFCURVE",
"352 118 CURVE SMOOTH",
"345 129 OFFCURVE",
"342 142 OFFCURVE",
"342 156 CURVE SMOOTH",
"342 168 OFFCURVE",
"344 180 OFFCURVE",
"348 190 CURVE SMOOTH",
"352 200 OFFCURVE",
"356 211 OFFCURVE",
"362 221 CURVE SMOOTH",
"368 231 OFFCURVE",
"373 241 OFFCURVE",
"380 251 CURVE SMOOTH",
"387 261 OFFCURVE",
"393 272 OFFCURVE",
"399 283 CURVE SMOOTH",
"405 294 OFFCURVE",
"409 307 OFFCURVE",
"413 320 CURVE SMOOTH",
"417 333 OFFCURVE",
"419 348 OFFCURVE",
"419 365 CURVE SMOOTH"
);
},
{
closed = 1;
nodes = (
"326 -28 OFFCURVE",
"323 -42 OFFCURVE",
"316 -55 CURVE SMOOTH",
"309 -68 OFFCURVE",
"299 -79 OFFCURVE",
"286 -89 CURVE SMOOTH",
"273 -99 OFFCURVE",
"257 -106 OFFCURVE",
"239 -112 CURVE SMOOTH",
"221 -118 OFFCURVE",
"201 -121 OFFCURVE",
"179 -121 CURVE SMOOTH",
"142 -121 OFFCURVE",
"113 -115 OFFCURVE",
"93 -102 CURVE SMOOTH",
"73 -89 OFFCURVE",
"63 -71 OFFCURVE",
"63 -47 CURVE SMOOTH",
"63 -36 OFFCURVE",
"66 -24 OFFCURVE",
"72 -14 CURVE",
"78 -3 OFFCURVE",
"88 6 OFFCURVE",
"101 14 CURVE SMOOTH",
"114 22 OFFCURVE",
"131 28 OFFCURVE",
"151 33 CURVE SMOOTH",
"171 38 OFFCURVE",
"195 40 OFFCURVE",
"222 40 CURVE SMOOTH",
"236 40 OFFCURVE",
"251 39 OFFCURVE",
"267 38 CURVE SMOOTH",
"283 37 OFFCURVE",
"299 35 OFFCURVE",
"317 32 CURVE",
"320 25 OFFCURVE",
"322 17 OFFCURVE",
"324 10 CURVE SMOOTH",
"326 2 OFFCURVE",
"326 -5 OFFCURVE",
"326 -14 CURVE SMOOTH"
);
},
{
closed = 1;
nodes = (
"200 227 OFFCURVE",
"181 234 OFFCURVE",
"166 250 CURVE SMOOTH",
"152 266 OFFCURVE",
"144 289 OFFCURVE",
"144 319 CURVE SMOOTH",
"144 336 OFFCURVE",
"146 352 OFFCURVE",
"151 368 CURVE SMOOTH",
"156 384 OFFCURVE",
"163 398 OFFCURVE",
"172 410 CURVE SMOOTH",
"181 422 OFFCURVE",
"193 432 OFFCURVE",
"207 439 CURVE SMOOTH",
"221 446 OFFCURVE",
"236 450 OFFCURVE",
"254 450 CURVE SMOOTH",
"280 450 OFFCURVE",
"301 443 OFFCURVE",
"316 428 CURVE SMOOTH",
"331 413 OFFCURVE",
"338 390 OFFCURVE",
"338 361 CURVE SMOOTH",
"338 345 OFFCURVE",
"335 329 OFFCURVE",
"330 313 CURVE SMOOTH",
"325 297 OFFCURVE",
"318 283 OFFCURVE",
"309 270 CURVE SMOOTH",
"300 257 OFFCURVE",
"288 247 OFFCURVE",
"274 239 CURVE SMOOTH",
"260 231 OFFCURVE",
"244 227 OFFCURVE",
"226 227 CURVE SMOOTH"
);
}
);
width = 487;
}
);
leftKerningGroup = c;
note = g;
rightKerningGroup = g;
unicode = 0067;
},
{
glyphname = h;
lastChange = "2017-01-26 15:07:03 +0000";
layers = (
{
anchors = (
{
name = bottom;
position = "{261, 0}";
},
{
name = center;
position = "{291, 253}";
},
{
name = top;
position = "{321, 506}";
}
);
layerId = "C87851D2-2817-4F36-A784-A5AE84D7BDA8";
paths = (
{
closed = 1;
nodes = (
"524 62 OFFCURVE",
"505 67 OFFCURVE",
"474 73 CURVE",
"505 322 LINE SMOOTH",
"512 381 OFFCURVE",
"504 428 OFFCURVE",
"479 462 CURVE SMOOTH",
"454 497 OFFCURVE",
"414 514 OFFCURVE",
"359 514 CURVE SMOOTH",
"298 514 OFFCURVE",
"241 489 OFFCURVE",
"187 438 CURVE",
"223 736 LINE",
"52 736 LINE",
"47 694 LINE SMOOTH",
"46 684 OFFCURVE",
"50 677 OFFCURVE",
"60 675 CURVE SMOOTH",
"66 674 OFFCURVE",
"87 669 OFFCURVE",
"125 663 CURVE",
"56 98 LINE",
"44 0 LINE",
"133 0 LINE",
"154 175 LINE",
"179 373 LINE",
"227 420 OFFCURVE",
"275 443 OFFCURVE",
"324 443 CURVE SMOOTH",
"395 443 OFFCURVE",
"426 403 OFFCURVE",
"416 322 CURVE SMOOTH",
"377 0 LINE",
"538 0 LINE",
"543 43 LINE SMOOTH",
"544 53 OFFCURVE",
"540 59 OFFCURVE",
"530 61 CURVE SMOOTH"
);
}
);
width = 581;
}
);
note = h;
unicode = 0068;
},
{
glyphname = i;
lastChange = "2017-01-26 15:07:03 +0000";
layers = (
{
anchors = (
{
name = bottom;
position = "{95, 0}";
}
);
layerId = "C87851D2-2817-4F36-A784-A5AE84D7BDA8";
paths = (
{
closed = 1;
nodes = (
"184 64 OFFCURVE",
"137 73 OFFCURVE",
"137 73 CURVE",
"191 506 LINE",
"29 506 LINE",
"24 463 LINE SMOOTH",
"23 454 OFFCURVE",
"28 447 OFFCURVE",
"37 445 CURVE SMOOTH",
"46 443 OFFCURVE",
"93 434 OFFCURVE",
"93 434 CURVE",
"48 73 LINE",
"39 0 LINE",
"201 0 LINE",
"206 43 LINE SMOOTH",
"207 52 OFFCURVE",
"202 60 OFFCURVE",
"193 62 CURVE SMOOTH"
);
},
{
closed = 1;
nodes = (
"225 698 OFFCURVE",
"221 705 OFFCURVE",
"216 711 CURVE SMOOTH",
"211 717 OFFCURVE",
"205 721 OFFCURVE",
"198 724 CURVE SMOOTH",
"191 727 OFFCURVE",
"183 729 OFFCURVE",
"174 729 CURVE SMOOTH",
"165 729 OFFCURVE",
"157 727 OFFCURVE",
"149 724 CURVE SMOOTH",
"141 721 OFFCURVE",
"134 717 OFFCURVE",
"127 711 CURVE SMOOTH",
"120 705 OFFCURVE",
"115 698 OFFCURVE",
"111 690 CURVE SMOOTH",
"107 682 OFFCURVE",
"104 674 OFFCURVE",
"103 665 CURVE SMOOTH",
"102 656 OFFCURVE",
"103 648 OFFCURVE",
"105 641 CURVE SMOOTH",
"107 634 OFFCURVE",
"111 627 OFFCURVE",
"116 621 CURVE SMOOTH",
"121 615 OFFCURVE",
"128 610 OFFCURVE",
"135 607 CURVE SMOOTH",
"142 604 OFFCURVE",
"149 602 OFFCURVE",
"158 602 CURVE SMOOTH",
"167 602 OFFCURVE",
"175 604 OFFCURVE",
"183 607 CURVE SMOOTH",
"191 610 OFFCURVE",
"198 615 OFFCURVE",
"205 621 CURVE SMOOTH",
"212 627 OFFCURVE",
"218 633 OFFCURVE",
"222 641 CURVE SMOOTH",
"226 649 OFFCURVE",
"229 656 OFFCURVE",
"230 665 CURVE SMOOTH",
"231 674 OFFCURVE",
"231 682 OFFCURVE",
"228 690 CURVE SMOOTH"
);
}
);
width = 249;
}
);
note = i;
unicode = 0069;
},
{
glyphname = j;
lastChange = "2017-01-26 15:47:04 +0000";
layers = (
{
layerId = "C87851D2-2817-4F36-A784-A5AE84D7BDA8";
paths = (
{
closed = 1;
nodes = (
"281 698 OFFCURVE",
"277 705 OFFCURVE",
"272 711 CURVE SMOOTH",
"267 717 OFFCURVE",
"261 721 OFFCURVE",
"254 724 CURVE SMOOTH",
"247 727 OFFCURVE",
"239 730 OFFCURVE",
"230 730 CURVE SMOOTH",
"221 730 OFFCURVE",
"213 727 OFFCURVE",
"205 724 CURVE SMOOTH",
"197 721 OFFCURVE",
"190 717 OFFCURVE",
"183 711 CURVE SMOOTH",
"176 705 OFFCURVE",
"171 698 OFFCURVE",
"167 690 CURVE SMOOTH",
"163 682 OFFCURVE",
"160 674 OFFCURVE",
"159 665 CURVE SMOOTH",
"158 656 OFFCURVE",
"159 649 OFFCURVE",
"161 641 CURVE SMOOTH",
"163 633 OFFCURVE",
"167 627 OFFCURVE",
"172 621 CURVE SMOOTH",
"177 615 OFFCURVE",
"183 610 OFFCURVE",
"190 607 CURVE SMOOTH",
"197 604 OFFCURVE",
"205 602 OFFCURVE",
"214 602 CURVE SMOOTH",
"223 602 OFFCURVE",
"231 604 OFFCURVE",
"239 607 CURVE SMOOTH",
"247 610 OFFCURVE",
"254 615 OFFCURVE",
"261 621 CURVE SMOOTH",
"268 627 OFFCURVE",
"274 633 OFFCURVE",
"278 641 CURVE SMOOTH",
"282 649 OFFCURVE",
"285 656 OFFCURVE",
"286 665 CURVE SMOOTH",
"287 674 OFFCURVE",
"287 682 OFFCURVE",
"284 690 CURVE SMOOTH"
);
},
{
closed = 1;
nodes = (
"140 -149 OFFCURVE",
"172 -105 OFFCURVE",
"180 -38 CURVE SMOOTH",
"246 506 LINE",
"157 506 LINE",
"85 506 LINE",
"80 463 LINE SMOOTH",
"79 453 OFFCURVE",
"83 447 OFFCURVE",
"93 445 CURVE SMOOTH",
"120 439 OFFCURVE",
"138 435 OFFCURVE",
"148 433 CURVE",
"91 -37 LINE SMOOTH",
"88 -64 OFFCURVE",
"79 -84 OFFCURVE",
"67 -96 CURVE SMOOTH",
"55 -108 OFFCURVE",
"35 -114 OFFCURVE",
"9 -114 CURVE SMOOTH",
"-10 -114 LINE SMOOTH",
"-19 -114 OFFCURVE",
"-25 -117 OFFCURVE",
"-27 -124 CURVE",
"-37 -172 LINE",
"-20 -179 OFFCURVE",
"0 -182 OFFCURVE",
"23 -182 CURVE SMOOTH",
"46 -182 OFFCURVE",
"67 -178 OFFCURVE",
"86 -171 CURVE SMOOTH"
);
}
);
width = 283;
}
);
leftKerningGroup = j;
note = j;
unicode = 006A;
},
{
glyphname = k;
lastChange = "2017-01-26 15:47:04 +0000";
layers = (
{
anchors = (
{
name = bottom;
position = "{233, 0}";
},
{
name = top;
position = "{293, 506}";
}
);
layerId = "C87851D2-2817-4F36-A784-A5AE84D7BDA8";
paths = (
{
closed = 1;
nodes = (
"518 507 LINE",
"313 507 LINE",
"308 464 LINE SMOOTH",
"305 443 OFFCURVE",
"330 444 OFFCURVE",
"348 440 CURVE",
"219 317 LINE SMOOTH",
"209 308 OFFCURVE",
"198 303 OFFCURVE",
"186 303 CURVE SMOOTH",
"163 303 LINE",
"216 737 LINE",
"55 737 LINE",
"50 694 LINE SMOOTH",
"49 684 OFFCURVE",
"52 677 OFFCURVE",
"62 675 CURVE SMOOTH",
"68 674 OFFCURVE",
"87 670 OFFCURVE",
"118 664 CURVE",
"91 443 OFFCURVE",
"63 221 OFFCURVE",
"36 0 CURVE",
"126 0 LINE",
"136 81 OFFCURVE",
"146 161 OFFCURVE",
"156 242 CURVE",
"181 242 LINE SMOOTH",
"202 242 OFFCURVE",
"208 239 OFFCURVE",
"216 225 CURVE",
"357 17 LINE SMOOTH",
"365 5 OFFCURVE",
"375 0 OFFCURVE",
"388 0 CURVE SMOOTH",
"483 0 LINE",
"488 43 LINE SMOOTH",
"491 65 OFFCURVE",
"470 63 OFFCURVE",
"445 68 CURVE SMOOTH",
"420 73 LINE",
"301 250 LINE",
"294 264 OFFCURVE",
"285 275 OFFCURVE",
"275 282 CURVE",
"285 287 OFFCURVE",
"295 296 OFFCURVE",
"307 308 CURVE SMOOTH",
"441 434 LINE",
"475 440 OFFCURVE",
"495 444 OFFCURVE",
"504 446 CURVE SMOOTH",
"513 448 OFFCURVE",
"518 454 OFFCURVE",
"519 464 CURVE SMOOTH",
"524 507 LINE"
);
}
);
width = 525;
}
);
leftKerningGroup = k;
note = k;
rightKerningGroup = k;
unicode = 006B;
},
{
glyphname = l;
lastChange = "2017-01-26 15:07:03 +0000";
layers = (
{
anchors = (
{
name = bottom;
position = "{94, 0}";
},
{
name = center;
position = "{124, 253}";
},
{
name = top;
position = "{154, 506}";
},
{
name = topright;
position = "{257, 506}";
}
);
layerId = "C87851D2-2817-4F36-A784-A5AE84D7BDA8";
paths = (
{
closed = 1;
nodes = (
"184 62 OFFCURVE",
"166 67 OFFCURVE",
"134 73 CURVE",
"216 736 LINE",
"55 736 LINE",
"50 694 LINE SMOOTH",
"49 684 OFFCURVE",
"52 677 OFFCURVE",
"62 675 CURVE SMOOTH",
"68 674 OFFCURVE",
"87 669 OFFCURVE",
"118 663 CURVE",
"36 0 LINE",
"198 0 LINE",
"203 43 LINE SMOOTH",
"204 53 OFFCURVE",
"200 59 OFFCURVE",
"190 61 CURVE SMOOTH"
);
}
);
width = 247;
}
);
note = l;
unicode = 006C;
},
{
glyphname = m;
lastChange = "2017-01-26 15:47:04 +0000";
layers = (
{
anchors = (
{
name = bottom;
position = "{392, 0}";
},
{
name = top;
position = "{452, 506}";
}
);
layerId = "C87851D2-2817-4F36-A784-A5AE84D7BDA8";
paths = (
{
closed = 1;
nodes = (
"434 471 OFFCURVE",
"399 515 OFFCURVE",
"328 515 CURVE SMOOTH",
"275 515 OFFCURVE",
"224 488 OFFCURVE",
"175 436 CURVE",
"175 488 LINE",
"173 500 OFFCURVE",
"166 507 OFFCURVE",
"153 507 CURVE SMOOTH",
"28 507 LINE",
"23 464 LINE SMOOTH",
"22 454 OFFCURVE",
"25 447 OFFCURVE",
"35 445 CURVE SMOOTH",
"41 444 OFFCURVE",
"60 440 OFFCURVE",
"91 434 CURVE",
"38 0 LINE",
"127 0 LINE",
"173 378 LINE",
"212 422 OFFCURVE",
"253 444 OFFCURVE",
"294 444 CURVE SMOOTH",
"358 444 OFFCURVE",
"385 404 OFFCURVE",
"375 323 CURVE SMOOTH",
"336 0 LINE",
"425 0 LINE",
"464 323 LINE SMOOTH",
"472 390 OFFCURVE",
"517 444 OFFCURVE",
"588 444 CURVE SMOOTH",
"658 444 OFFCURVE",
"684 398 OFFCURVE",
"675 323 CURVE SMOOTH",
"635 0 LINE",
"797 0 LINE",
"802 43 LINE SMOOTH",
"803 53 OFFCURVE",
"799 60 OFFCURVE",
"789 62 CURVE SMOOTH",
"783 63 OFFCURVE",
"765 67 OFFCURVE",
"733 73 CURVE",
"764 323 LINE SMOOTH",
"779 444 OFFCURVE",
"730 515 OFFCURVE",
"612 515 CURVE SMOOTH",
"534 515 OFFCURVE",
"472 465 OFFCURVE",
"444 409 CURVE"
);
}
);
width = 843;
}
);
leftKerningGroup = k;
note = m;
unicode = 006D;
},
{
glyphname = n;
lastChange = "2017-01-26 15:47:04 +0000";
layers = (
{
anchors = (
{
name = bottom;
position = "{259, 0}";
},
{
name = top;
position = "{319, 506}";
}
);
layerId = "C87851D2-2817-4F36-A784-A5AE84D7BDA8";
paths = (
{
closed = 1;
nodes = (
"518 62 OFFCURVE",
"500 67 OFFCURVE",
"468 73 CURVE",
"499 323 LINE SMOOTH",
"513 439 OFFCURVE",
"463 515 OFFCURVE",
"353 515 CURVE SMOOTH",
"290 515 OFFCURVE",
"231 487 OFFCURVE",
"175 433 CURVE",
"175 488 LINE",
"173 500 OFFCURVE",
"166 507 OFFCURVE",
"153 507 CURVE SMOOTH",
"28 507 LINE",
"23 464 LINE SMOOTH",
"22 454 OFFCURVE",
"25 447 OFFCURVE",
"35 445 CURVE SMOOTH",
"41 444 OFFCURVE",
"60 440 OFFCURVE",
"91 434 CURVE",
"38 0 LINE",
"127 0 LINE",
"173 373 LINE",
"221 420 OFFCURVE",
"269 444 OFFCURVE",
"318 444 CURVE SMOOTH",
"389 444 OFFCURVE",
"420 403 OFFCURVE",
"410 322 CURVE SMOOTH",
"370 0 LINE",
"532 0 LINE",
"537 43 LINE SMOOTH",
"538 53 OFFCURVE",
"534 59 OFFCURVE",
"524 61 CURVE SMOOTH"
);
}
);
width = 578;
}
);
leftKerningGroup = k;
note = n;
unicode = 006E;
},
{
glyphname = o;
lastChange = "2017-01-26 15:47:04 +0000";
layers = (
{
anchors = (
{
name = bottom;
position = "{228, 0}";
},
{
name = center;
position = "{258, 253}";
},
{
name = ogonek;
position = "{434, 10}";
},
{
name = top;
position = "{288, 506}";
},
{
name = topright;
position = "{526, 506}";
}
);
layerId = "C87851D2-2817-4F36-A784-A5AE84D7BDA8";
paths = (
{
closed = 1;
nodes = (
"245 514 OFFCURVE",
"211 508 OFFCURVE",
"180 496 CURVE SMOOTH",
"149 484 OFFCURVE",
"121 467 OFFCURVE",
"97 444 CURVE SMOOTH",
"73 421 OFFCURVE",
"54 393 OFFCURVE",
"39 361 CURVE SMOOTH",
"24 329 OFFCURVE",
"13 294 OFFCURVE",
"8 254 CURVE SMOOTH",
"3 214 OFFCURVE",
"5 178 OFFCURVE",
"12 146 CURVE SMOOTH",
"19 114 OFFCURVE",
"33 87 OFFCURVE",
"51 64 CURVE SMOOTH",
"69 41 OFFCURVE",
"92 23 OFFCURVE",
"120 11 CURVE SMOOTH",
"148 -1 OFFCURVE",
"181 -7 OFFCURVE",
"218 -7 CURVE SMOOTH",
"255 -7 OFFCURVE",
"290 -1 OFFCURVE",
"321 11 CURVE SMOOTH",
"352 23 OFFCURVE",
"379 41 OFFCURVE",
"403 64 CURVE SMOOTH",
"427 87 OFFCURVE",
"446 114 OFFCURVE",
"461 146 CURVE SMOOTH",
"476 178 OFFCURVE",
"486 214 OFFCURVE",
"491 254 CURVE SMOOTH",
"496 294 OFFCURVE",
"495 329 OFFCURVE",
"488 361 CURVE SMOOTH",
"481 393 OFFCURVE",
"468 421 OFFCURVE",
"450 444 CURVE SMOOTH",
"432 467 OFFCURVE",
"408 484 OFFCURVE",
"380 496 CURVE SMOOTH",
"352 508 OFFCURVE",
"319 514 OFFCURVE",
"282 514 CURVE SMOOTH"
);
},
{
closed = 1;
nodes = (
"202 63 OFFCURVE",
"181 67 OFFCURVE",
"163 76 CURVE SMOOTH",
"145 85 OFFCURVE",
"131 97 OFFCURVE",
"120 113 CURVE SMOOTH",
"109 129 OFFCURVE",
"103 148 OFFCURVE",
"100 172 CURVE SMOOTH",
"97 196 OFFCURVE",
"96 223 OFFCURVE",
"100 253 CURVE SMOOTH",
"104 283 OFFCURVE",
"111 310 OFFCURVE",
"120 334 CURVE SMOOTH",
"129 358 OFFCURVE",
"140 378 OFFCURVE",
"155 394 CURVE SMOOTH",
"170 410 OFFCURVE",
"186 423 OFFCURVE",
"206 432 CURVE SMOOTH",
"226 441 OFFCURVE",
"249 445 OFFCURVE",
"274 445 CURVE SMOOTH",
"324 445 OFFCURVE",
"359 428 OFFCURVE",
"380 394 CURVE SMOOTH",
"401 360 OFFCURVE",
"406 313 OFFCURVE",
"399 253 CURVE SMOOTH",
"392 193 OFFCURVE",
"374 147 OFFCURVE",
"345 113 CURVE SMOOTH",
"316 79 OFFCURVE",
"277 63 OFFCURVE",
"227 63 CURVE SMOOTH"
);
}
);
width = 516;
}
);
leftKerningGroup = c;
note = o;
rightKerningGroup = b;
unicode = 006F;
},
{
glyphname = p;
lastChange = "2017-01-26 15:07:03 +0000";
layers = (
{
anchors = (
{
name = bottom;
position = "{251, 0}";
},
{
name = top;
position = "{311, 506}";
}
);
layerId = "C87851D2-2817-4F36-A784-A5AE84D7BDA8";
paths = (
{
closed = 1;
nodes = (
"194 488 LINE",
"192 500 OFFCURVE",
"186 506 OFFCURVE",
"173 506 CURVE SMOOTH",
"120 506 LINE",
"48 506 LINE",
"42 464 LINE",
"41 454 OFFCURVE",
"45 447 OFFCURVE",
"55 445 CURVE SMOOTH",
"61 444 OFFCURVE",
"80 440 OFFCURVE",
"111 434 CURVE",
"45 -98 LINE",
"-13 -110 LINE SMOOTH",
"-23 -112 OFFCURVE",
"-29 -118 OFFCURVE",
"-30 -128 CURVE",
"-36 -172 LINE",
"198 -172 LINE",
"203 -128 LINE SMOOTH",
"204 -118 OFFCURVE",
"200 -112 OFFCURVE",
"190 -110 CURVE",
"187 -109 OFFCURVE",
"178 -107 OFFCURVE",
"161 -104 CURVE SMOOTH",
"144 -101 OFFCURVE",
"135 -98 OFFCURVE",
"134 -98 CURVE",
"153 52 LINE",
"184 12 OFFCURVE",
"230 -7 OFFCURVE",
"292 -7 CURVE SMOOTH",
"354 -7 OFFCURVE",
"409 18 OFFCURVE",
"455 69 CURVE SMOOTH",
"500 118 OFFCURVE",
"527 180 OFFCURVE",
"536 256 CURVE SMOOTH",
"546 339 OFFCURVE",
"536 404 OFFCURVE",
"507 450 CURVE SMOOTH",
"479 494 OFFCURVE",
"435 516 OFFCURVE",
"376 516 CURVE SMOOTH",
"310 516 OFFCURVE",
"250 486 OFFCURVE",
"195 428 CURVE"
);
},
{
closed = 1;
nodes = (
"192 367 LINE",
"237 418 OFFCURVE",
"286 444 OFFCURVE",
"338 444 CURVE SMOOTH",
"424 444 OFFCURVE",
"459 382 OFFCURVE",
"444 257 CURVE SMOOTH",
"436 195 OFFCURVE",
"417 147 OFFCURVE",
"388 113 CURVE SMOOTH",
"359 79 OFFCURVE",
"319 62 OFFCURVE",
"271 62 CURVE SMOOTH",
"223 62 OFFCURVE",
"187 82 OFFCURVE",
"162 122 CURVE"
);
}
);
width = 562;
}
);
note = p;
unicode = 0070;
},
{
glyphname = q;
lastChange = "2017-01-26 15:47:04 +0000";
layers = (
{
anchors = (
{
name = bottom;
position = "{230, 0}";
},
{
name = top;
position = "{290, 506}";
}
);
layerId = "C87851D2-2817-4F36-A784-A5AE84D7BDA8";
paths = (
{
closed = 1;
nodes = (
"327 -98 LINE",
"289 -104 OFFCURVE",
"265 -107 OFFCURVE",
"256 -109 CURVE SMOOTH",
"247 -111 OFFCURVE",
"242 -117 OFFCURVE",
"241 -127 CURVE SMOOTH",
"236 -170 LINE",
"486 -170 LINE",
"491 -127 LINE SMOOTH",
"492 -117 OFFCURVE",
"489 -111 OFFCURVE",
"479 -109 CURVE SMOOTH",
"474 -108 OFFCURVE",
"453 -104 OFFCURVE",
"416 -98 CURVE",
"488 488 LINE",
"453 494 LINE SMOOTH",
"383 508 OFFCURVE",
"321 516 OFFCURVE",
"268 516 CURVE SMOOTH",
"203 516 OFFCURVE",
"147 493 OFFCURVE",
"100 448 CURVE SMOOTH",
"51 400 OFFCURVE",
"22 336 OFFCURVE",
"12 254 CURVE",
"12 252 LINE",
"2 169 OFFCURVE",
"11 105 OFFCURVE",
"40 60 CURVE SMOOTH",
"68 16 OFFCURVE",
"112 -6 OFFCURVE",
"172 -6 CURVE SMOOTH",
"236 -6 OFFCURVE",
"295 21 OFFCURVE",
"348 75 CURVE"
);
},
{
closed = 1;
nodes = (
"124 65 OFFCURVE",
"89 127 OFFCURVE",
"104 252 CURVE SMOOTH",
"107 279 LINE SMOOTH",
"109 295 OFFCURVE",
"115 315 OFFCURVE",
"124 337 CURVE SMOOTH",
"153 408 OFFCURVE",
"201 444 OFFCURVE",
"268 447 CURVE",
"274 447 LINE SMOOTH",
"309 447 OFFCURVE",
"348 441 OFFCURVE",
"391 430 CURVE",
"356 142 LINE",
"311 91 OFFCURVE",
"263 65 OFFCURVE",
"210 65 CURVE SMOOTH"
);
}
);
width = 519;
}
);
leftKerningGroup = c;
note = q;
rightKerningGroup = q;
unicode = 0071;
},
{
glyphname = r;
lastChange = "2017-01-26 15:47:04 +0000";
layers = (
{
anchors = (
{
name = bottom;
position = "{166, 0}";
},
{
name = top;
position = "{226, 506}";
}
);
layerId = "C87851D2-2817-4F36-A784-A5AE84D7BDA8";
paths = (
{
closed = 1;
nodes = (
"28 506 LINE",
"23 463 LINE SMOOTH",
"22 453 OFFCURVE",
"25 447 OFFCURVE",
"35 445 CURVE SMOOTH",
"41 444 OFFCURVE",
"60 439 OFFCURVE",
"91 433 CURVE",
"38 0 LINE",
"127 0 LINE",
"166 322 LINE",
"203 392 OFFCURVE",
"251 428 OFFCURVE",
"309 428 CURVE SMOOTH",
"326 428 OFFCURVE",
"340 426 OFFCURVE",
"349 423 CURVE SMOOTH",
"358 420 OFFCURVE",
"367 418 OFFCURVE",
"373 418 CURVE SMOOTH",
"379 418 OFFCURVE",
"384 423 OFFCURVE",
"387 431 CURVE",
"407 498 LINE",
"388 510 OFFCURVE",
"366 515 OFFCURVE",
"340 515 CURVE SMOOTH",
"274 515 OFFCURVE",
"218 478 OFFCURVE",
"172 403 CURVE",
"175 482 LINE",
"175 500 OFFCURVE",
"170 506 OFFCURVE",
"151 506 CURVE SMOOTH"
);
}
);
width = 392;
}
);
leftKerningGroup = k;
note = r;
rightKerningGroup = r;
unicode = 0072;
},
{
glyphname = s;
lastChange = "2017-01-26 15:47:04 +0000";
layers = (
{
anchors = (
{
name = bottom;
position = "{178, 0}";
},
{
name = top;
position = "{238, 506}";
}
);
layerId = "C87851D2-2817-4F36-A784-A5AE84D7BDA8";
paths = (
{
closed = 1;
nodes = (
"199 514 OFFCURVE",
"150 500 OFFCURVE",
"113 470 CURVE SMOOTH",
"78 443 OFFCURVE",
"59 409 OFFCURVE",
"54 368 CURVE SMOOTH",
"49 329 OFFCURVE",
"58 297 OFFCURVE",
"83 274 CURVE SMOOTH",
"94 264 OFFCURVE",
"109 255 OFFCURVE",
"126 247 CURVE SMOOTH",
"143 239 OFFCURVE",
"173 229 OFFCURVE",
"215 215 CURVE SMOOTH",
"230 210 OFFCURVE",
"243 204 OFFCURVE",
"255 198 CURVE SMOOTH",
"267 192 OFFCURVE",
"276 183 OFFCURVE",
"282 174 CURVE SMOOTH",
"288 165 OFFCURVE",
"290 151 OFFCURVE",
"288 132 CURVE SMOOTH",
"286 113 OFFCURVE",
"275 96 OFFCURVE",
"256 81 CURVE SMOOTH",
"235 64 OFFCURVE",
"208 56 OFFCURVE",
"175 56 CURVE SMOOTH",
"135 56 OFFCURVE",
"102 63 OFFCURVE",
"75 76 CURVE",
"77 116 OFFCURVE",
"77 137 OFFCURVE",
"77 140 CURVE",
"76 148 OFFCURVE",
"71 152 OFFCURVE",
"63 152 CURVE SMOOTH",
"28 152 LINE",
"12 20 LINE",
"64 1 OFFCURVE",
"117 -7 OFFCURVE",
"172 -7 CURVE SMOOTH",
"227 -7 OFFCURVE",
"273 8 OFFCURVE",
"311 39 CURVE SMOOTH",
"348 68 OFFCURVE",
"369 107 OFFCURVE",
"375 155 CURVE SMOOTH",
"380 192 OFFCURVE",
"370 222 OFFCURVE",
"345 244 CURVE SMOOTH",
"334 254 OFFCURVE",
"321 262 OFFCURVE",
"306 269 CURVE SMOOTH",
"291 276 OFFCURVE",
"276 281 OFFCURVE",
"260 287 CURVE",
"244 292 OFFCURVE",
"224 299 OFFCURVE",
"200 307 CURVE SMOOTH",
"176 315 OFFCURVE",
"158 326 OFFCURVE",
"147 342 CURVE",
"140 351 OFFCURVE",
"138 364 OFFCURVE",
"140 381 CURVE SMOOTH",
"142 398 OFFCURVE",
"153 413 OFFCURVE",
"172 427 CURVE SMOOTH",
"191 441 OFFCURVE",
"216 448 OFFCURVE",
"244 448 CURVE SMOOTH",
"245 448 LINE SMOOTH",
"267 448 OFFCURVE",
"292 445 OFFCURVE",
"321 438 CURVE",
"319 396 OFFCURVE",
"319 373 OFFCURVE",
"319 372 CURVE",
"320 363 OFFCURVE",
"325 358 OFFCURVE",
"335 358 CURVE SMOOTH",
"374 358 LINE",
"386 453 LINE",
"390 488 LINE",
"339 506 OFFCURVE",
"296 514 OFFCURVE",
"261 514 CURVE SMOOTH"
);
}
);
width = 415;
}
);
leftKerningGroup = s;
note = s;
unicode = 0073;
},
{
glyphname = t;
lastChange = "2017-01-26 15:07:03 +0000";
layers = (
{
anchors = (
{
name = bottom;
position = "{132, 0}";
},
{
name = center;
position = "{162, 253}";
},
{
name = top;
position = "{192, 506}";
},
{
name = topright;
position = "{333, 506}";
}
);
layerId = "C87851D2-2817-4F36-A784-A5AE84D7BDA8";
paths = (
{
closed = 1;
nodes = (
"182 -8 OFFCURVE",
"204 -4 OFFCURVE",
"227 4 CURVE SMOOTH",
"250 12 OFFCURVE",
"270 24 OFFCURVE",
"287 38 CURVE",
"266 80 LINE SMOOTH",
"263 86 OFFCURVE",
"260 89 OFFCURVE",
"255 89 CURVE SMOOTH",
"252 89 OFFCURVE",
"249 87 OFFCURVE",
"245 85 CURVE SMOOTH",
"241 83 OFFCURVE",
"236 80 OFFCURVE",
"231 77 CURVE SMOOTH",
"226 74 OFFCURVE",
"219 71 OFFCURVE",
"212 69 CURVE SMOOTH",
"205 67 OFFCURVE",
"197 65 OFFCURVE",
"188 65 CURVE SMOOTH",
"172 65 OFFCURVE",
"159 70 OFFCURVE",
"150 80 CURVE SMOOTH",
"141 90 OFFCURVE",
"137 107 OFFCURVE",
"140 128 CURVE SMOOTH",
"177 432 LINE",
"322 432 LINE",
"330 496 LINE",
"185 496 LINE",
"207 671 LINE",
"162 671 LINE SMOOTH",
"156 671 OFFCURVE",
"151 669 OFFCURVE",
"147 666 CURVE SMOOTH",
"143 663 OFFCURVE",
"140 659 OFFCURVE",
"139 654 CURVE",
"99 498 LINE",
"15 487 LINE",
"11 452 LINE SMOOTH",
"10 445 OFFCURVE",
"11 440 OFFCURVE",
"14 437 CURVE SMOOTH",
"17 434 OFFCURVE",
"22 432 OFFCURVE",
"27 432 CURVE SMOOTH",
"88 432 LINE",
"50 122 LINE SMOOTH",
"45 80 OFFCURVE",
"52 48 OFFCURVE",
"71 26 CURVE SMOOTH",
"90 4 OFFCURVE",
"119 -8 OFFCURVE",
"159 -8 CURVE SMOOTH"
);
}
);
width = 323;
}
);
note = t;
unicode = 0074;
},
{
glyphname = u;
lastChange = "2017-01-26 15:47:04 +0000";
layers = (
{
anchors = (
{
name = bottom;
position = "{258, 0}";
},
{
name = ogonek;
position = "{487, 10}";
},
{
name = top;
position = "{318, 506}";
},
{
name = topright;
position = "{585, 506}";
}
);
layerId = "C87851D2-2817-4F36-A784-A5AE84D7BDA8";
paths = (
{
closed = 1;
nodes = (
"197 63 OFFCURVE",
"172 73 OFFCURVE",
"157 94 CURVE SMOOTH",
"142 115 OFFCURVE",
"136 146 OFFCURVE",
"141 184 CURVE SMOOTH",
"181 506 LINE",
"20 506 LINE",
"15 464 LINE SMOOTH",
"14 454 OFFCURVE",
"17 447 OFFCURVE",
"27 445 CURVE SMOOTH",
"33 444 OFFCURVE",
"52 440 OFFCURVE",
"83 434 CURVE",
"52 184 LINE SMOOTH",
"45 125 OFFCURVE",
"53 77 OFFCURVE",
"78 44 CURVE SMOOTH",
"104 9 OFFCURVE",
"144 -8 OFFCURVE",
"198 -8 CURVE SMOOTH",
"261 -8 OFFCURVE",
"321 19 OFFCURVE",
"376 73 CURVE",
"377 18 LINE",
"379 6 OFFCURVE",
"385 0 OFFCURVE",
"398 0 CURVE SMOOTH",
"524 0 LINE",
"529 43 LINE SMOOTH",
"530 53 OFFCURVE",
"526 60 OFFCURVE",
"516 62 CURVE SMOOTH",
"510 63 OFFCURVE",
"492 67 OFFCURVE",
"460 73 CURVE",
"513 506 LINE",
"424 506 LINE",
"352 506 LINE",
"347 464 LINE SMOOTH",
"346 454 OFFCURVE",
"350 447 OFFCURVE",
"360 445 CURVE SMOOTH",
"391 439 OFFCURVE",
"410 435 OFFCURVE",
"416 434 CURVE",
"379 133 LINE",
"332 86 OFFCURVE",
"283 63 OFFCURVE",
"233 63 CURVE SMOOTH"
);
}
);
width = 575;
}
);
leftKerningGroup = k;
note = u;
unicode = 0075;
},
{
glyphname = v;
lastChange = "2017-01-26 15:47:04 +0000";
layers = (
{
anchors = (
{
name = bottom;
position = "{250, 0}";
},
{
name = top;
position = "{310, 506}";
}
);
layerId = "C87851D2-2817-4F36-A784-A5AE84D7BDA8";
paths = (
{
closed = 1;
nodes = (
"541 506 LINE",
"351 506 LINE",
"346 464 LINE SMOOTH",
"345 454 OFFCURVE",
"348 447 OFFCURVE",
"358 445 CURVE SMOOTH",
"388 439 OFFCURVE",
"407 436 OFFCURVE",
"414 434 CURVE",
"273 162 LINE SMOOTH",
"265 147 OFFCURVE",
"255 122 OFFCURVE",
"244 90 CURVE",
"241 123 OFFCURVE",
"238 147 OFFCURVE",
"234 162 CURVE SMOOTH",
"160 434 LINE",
"192 440 OFFCURVE",
"211 444 OFFCURVE",
"217 445 CURVE SMOOTH",
"227 447 OFFCURVE",
"233 454 OFFCURVE",
"234 464 CURVE SMOOTH",
"239 506 LINE",
"12 506 LINE",
"7 464 LINE SMOOTH",
"6 454 OFFCURVE",
"10 447 OFFCURVE",
"20 445 CURVE",
"21 445 OFFCURVE",
"28 444 OFFCURVE",
"41 441 CURVE",
"54 439 OFFCURVE",
"62 436 OFFCURVE",
"68 435 CURVE",
"192 0 LINE",
"272 0 LINE",
"503 435 LINE",
"533 441 OFFCURVE",
"549 444 OFFCURVE",
"553 445 CURVE",
"563 447 OFFCURVE",
"569 454 OFFCURVE",
"570 464 CURVE SMOOTH",
"575 506 LINE"
);
}
);
width = 560;
}
);
leftKerningGroup = v;
note = v;
rightKerningGroup = v;
unicode = 0076;
},
{
glyphname = w;
lastChange = "2017-01-26 15:47:04 +0000";
layers = (
{
anchors = (
{
name = bottom;
position = "{387, 0}";
},
{
name = top;
position = "{447, 506}";
}
);
layerId = "C87851D2-2817-4F36-A784-A5AE84D7BDA8";
paths = (
{
closed = 1;
nodes = (
"623 506 LINE",
"618 464 LINE SMOOTH",
"617 454 OFFCURVE",
"621 447 OFFCURVE",
"631 445 CURVE SMOOTH",
"665 438 OFFCURVE",
"684 435 OFFCURVE",
"689 434 CURVE",
"573 162 LINE SMOOTH",
"564 140 OFFCURVE",
"555 117 OFFCURVE",
"549 94 CURVE",
"545 125 OFFCURVE",
"543 148 OFFCURVE",
"540 162 CURVE SMOOTH",
"476 490 LINE",
"473 502 OFFCURVE",
"466 508 OFFCURVE",
"453 508 CURVE SMOOTH",
"414 508 LINE SMOOTH",
"401 508 OFFCURVE",
"392 502 OFFCURVE",
"387 490 CURVE SMOOTH",
"240 162 LINE SMOOTH",
"226 130 OFFCURVE",
"217 107 OFFCURVE",
"212 94 CURVE",
"212 109 OFFCURVE",
"210 132 OFFCURVE",
"207 162 CURVE",
"160 434 LINE",
"191 440 OFFCURVE",
"210 444 OFFCURVE",
"216 445 CURVE SMOOTH",
"227 447 OFFCURVE",
"233 454 OFFCURVE",
"234 464 CURVE SMOOTH",
"239 506 LINE",
"13 506 LINE",
"8 464 LINE SMOOTH",
"7 454 OFFCURVE",
"10 447 OFFCURVE",
"20 445 CURVE",
"23 444 OFFCURVE",
"34 442 OFFCURVE",
"53 438 CURVE",
"61 436 OFFCURVE",
"66 435 OFFCURVE",
"69 435 CURVE",
"157 0 LINE",
"224 0 LINE SMOOTH",
"234 0 OFFCURVE",
"241 6 OFFCURVE",
"246 17 CURVE SMOOTH",
"402 360 LINE",
"406 368 OFFCURVE",
"409 375 OFFCURVE",
"411 383 CURVE SMOOTH",
"413 390 OFFCURVE",
"416 398 OFFCURVE",
"419 407 CURVE",
"420 401 OFFCURVE",
"420 394 OFFCURVE",
"421 385 CURVE SMOOTH",
"422 377 OFFCURVE",
"423 368 OFFCURVE",
"425 360 CURVE",
"495 17 LINE SMOOTH",
"497 6 OFFCURVE",
"502 0 OFFCURVE",
"511 0 CURVE SMOOTH",
"581 0 LINE",
"775 435 LINE",
"778 436 OFFCURVE",
"786 437 OFFCURVE",
"800 440 CURVE SMOOTH",
"814 443 OFFCURVE",
"822 444 OFFCURVE",
"826 445 CURVE",
"836 447 OFFCURVE",
"843 454 OFFCURVE",
"844 464 CURVE SMOOTH",
"849 506 LINE"
);
}
);
width = 834;
}
);
leftKerningGroup = v;
note = w;
rightKerningGroup = v;
unicode = 0077;
},
{
glyphname = x;
lastChange = "2017-01-26 15:47:04 +0000";
layers = (
{
anchors = (
{
name = bottom;
position = "{247, 0}";
},
{
name = top;
position = "{307, 506}";
}
);
layerId = "C87851D2-2817-4F36-A784-A5AE84D7BDA8";
paths = (
{
closed = 1;
nodes = (
"338 264 LINE",
"479 434 LINE",
"504 439 OFFCURVE",
"521 443 OFFCURVE",
"532 445 CURVE SMOOTH",
"543 447 OFFCURVE",
"549 454 OFFCURVE",
"550 464 CURVE",
"556 506 LINE",
"357 506 LINE",
"352 464 LINE SMOOTH",
"351 454 OFFCURVE",
"355 447 OFFCURVE",
"365 445 CURVE",
"366 445 OFFCURVE",
"369 444 OFFCURVE",
"375 443 CURVE SMOOTH",
"381 442 OFFCURVE",
"386 441 OFFCURVE",
"390 440 CURVE",
"303 331 LINE SMOOTH",
"296 322 OFFCURVE",
"291 312 OFFCURVE",
"287 303 CURVE",
"214 440 LINE",
"227 443 OFFCURVE",
"235 445 OFFCURVE",
"236 445 CURVE",
"247 447 OFFCURVE",
"252 454 OFFCURVE",
"253 464 CURVE",
"259 506 LINE",
"60 506 LINE",
"55 464 LINE SMOOTH",
"54 454 OFFCURVE",
"58 447 OFFCURVE",
"68 445 CURVE SMOOTH",
"74 444 OFFCURVE",
"90 440 OFFCURVE",
"118 434 CURVE",
"217 260 LINE",
"66 71 LINE",
"61 70 OFFCURVE",
"53 68 OFFCURVE",
"41 66 CURVE SMOOTH",
"29 64 OFFCURVE",
"21 63 OFFCURVE",
"16 62 CURVE SMOOTH",
"6 60 OFFCURVE",
"0 53 OFFCURVE",
"-1 43 CURVE SMOOTH",
"-6 0 LINE",
"192 0 LINE",
"198 43 LINE",
"199 53 OFFCURVE",
"195 60 OFFCURVE",
"185 62 CURVE",
"184 62 OFFCURVE",
"177 63 OFFCURVE",
"167 65 CURVE SMOOTH",
"162 66 OFFCURVE",
"159 67 OFFCURVE",
"156 68 CURVE",
"255 191 LINE SMOOTH",
"261 199 OFFCURVE",
"265 207 OFFCURVE",
"269 217 CURVE",
"348 66 LINE",
"334 63 OFFCURVE",
"325 63 OFFCURVE",
"322 62 CURVE",
"311 60 OFFCURVE",
"305 53 OFFCURVE",
"304 43 CURVE SMOOTH",
"299 0 LINE",
"498 0 LINE",
"503 43 LINE SMOOTH",
"504 53 OFFCURVE",
"500 60 OFFCURVE",
"488 62 CURVE SMOOTH",
"476 64 OFFCURVE",
"461 67 OFFCURVE",
"444 71 CURVE"
);
}
);
width = 553;
}
);
leftKerningGroup = x;
note = x;
rightKerningGroup = k;
unicode = 0078;
},
{
glyphname = y;
lastChange = "2017-01-26 15:47:04 +0000";
layers = (
{
anchors = (
{
name = bottom;
position = "{250, 0}";
},
{
name = top;
position = "{310, 506}";
}
);
layerId = "C87851D2-2817-4F36-A784-A5AE84D7BDA8";
paths = (
{
closed = 1;
nodes = (
"538 506 LINE",
"350 506 LINE",
"345 464 LINE SMOOTH",
"344 454 OFFCURVE",
"348 447 OFFCURVE",
"357 445 CURVE SMOOTH",
"366 443 OFFCURVE",
"384 439 OFFCURVE",
"410 434 CURVE",
"268 170 LINE SMOOTH",
"263 160 OFFCURVE",
"256 144 OFFCURVE",
"248 124 CURVE",
"246 140 OFFCURVE",
"244 156 OFFCURVE",
"240 169 CURVE SMOOTH",
"160 434 LINE",
"192 440 OFFCURVE",
"211 444 OFFCURVE",
"216 445 CURVE SMOOTH",
"226 447 OFFCURVE",
"232 454 OFFCURVE",
"233 464 CURVE SMOOTH",
"238 506 LINE",
"11 506 LINE",
"6 464 LINE SMOOTH",
"5 454 OFFCURVE",
"9 447 OFFCURVE",
"19 445 CURVE SMOOTH",
"25 444 OFFCURVE",
"39 441 OFFCURVE",
"63 436 CURVE",
"191 30 LINE",
"74 -172 LINE",
"140 -172 LINE SMOOTH",
"155 -172 OFFCURVE",
"167 -165 OFFCURVE",
"175 -150 CURVE SMOOTH",
"498 434 LINE",
"501 434 OFFCURVE",
"510 437 OFFCURVE",
"525 440 CURVE SMOOTH",
"540 443 OFFCURVE",
"549 444 OFFCURVE",
"552 445 CURVE",
"562 447 OFFCURVE",
"568 454 OFFCURVE",
"569 464 CURVE SMOOTH",
"574 506 LINE"
);
}
);
width = 559;
}
);
leftKerningGroup = v;
note = y;
rightKerningGroup = v;
unicode = 0079;
},
{
glyphname = z;
lastChange = "2017-01-26 15:47:04 +0000";
layers = (
{
anchors = (
{
name = bottom;
position = "{199, 0}";
},
{
name = top;
position = "{259, 506}";
}
);
layerId = "C87851D2-2817-4F36-A784-A5AE84D7BDA8";
paths = (
{
closed = 1;
nodes = (
"127 506 LINE",
"77 506 LINE",
"59 363 LINE",
"95 363 LINE SMOOTH",
"103 363 OFFCURVE",
"108 368 OFFCURVE",
"111 376 CURVE",
"112 380 OFFCURVE",
"116 399 OFFCURVE",
"124 436 CURVE",
"341 436 LINE",
"20 69 LINE SMOOTH",
"10 58 OFFCURVE",
"5 47 OFFCURVE",
"4 37 CURVE SMOOTH",
"-1 0 LINE",
"386 0 LINE",
"404 148 LINE",
"369 148 LINE SMOOTH",
"360 148 OFFCURVE",
"355 144 OFFCURVE",
"352 136 CURVE",
"351 132 OFFCURVE",
"346 111 OFFCURVE",
"338 70 CURVE",
"113 70 LINE",
"431 434 LINE SMOOTH",
"441 445 OFFCURVE",
"447 456 OFFCURVE",
"448 468 CURVE",
"453 506 LINE"
);
}
);
width = 458;
}
);
leftKerningGroup = z;
note = z;
rightKerningGroup = uni01F2;
unicode = 007A;
},
{
glyphname = braceleft;
layers = (
{
layerId = "C87851D2-2817-4F36-A784-A5AE84D7BDA8";
paths = (
{
closed = 1;
nodes = (
"75 195 OFFCURVE",
"72 179 OFFCURVE",
"67 163 CURVE SMOOTH",
"62 147 OFFCURVE",
"57 130 OFFCURVE",
"52 114 CURVE SMOOTH",
"47 98 OFFCURVE",
"42 80 OFFCURVE",
"37 64 CURVE SMOOTH",
"32 48 OFFCURVE",
"29 31 OFFCURVE",
"27 14 CURVE SMOOTH",
"24 -9 OFFCURVE",
"26 -31 OFFCURVE",
"30 -50 CURVE SMOOTH",
"34 -69 OFFCURVE",
"43 -86 OFFCURVE",
"55 -100 CURVE SMOOTH",
"67 -114 OFFCURVE",
"82 -125 OFFCURVE",
"102 -133 CURVE SMOOTH",
"122 -141 OFFCURVE",
"145 -144 OFFCURVE",
"172 -144 CURVE SMOOTH",
"199 -144 LINE",
"204 -104 LINE SMOOTH",
"205 -97 OFFCURVE",
"203 -93 OFFCURVE",
"199 -90 CURVE SMOOTH",
"195 -87 OFFCURVE",
"190 -86 OFFCURVE",
"186 -86 CURVE SMOOTH",
"176 -86 LINE SMOOTH",
"150 -86 OFFCURVE",
"131 -77 OFFCURVE",
"118 -60 CURVE SMOOTH",
"105 -43 OFFCURVE",
"101 -21 OFFCURVE",
"105 8 CURVE SMOOTH",
"107 27 OFFCURVE",
"111 45 OFFCURVE",
"115 62 CURVE SMOOTH",
"119 79 OFFCURVE",
"124 97 OFFCURVE",
"129 113 CURVE SMOOTH",
"134 129 OFFCURVE",
"139 146 OFFCURVE",
"143 162 CURVE SMOOTH",
"147 178 OFFCURVE",
"151 195 OFFCURVE",
"153 212 CURVE",
"155 224 OFFCURVE",
"153 235 OFFCURVE",
"151 246 CURVE SMOOTH",
"149 257 OFFCURVE",
"145 266 OFFCURVE",
"139 275 CURVE SMOOTH",
"133 284 OFFCURVE",
"126 291 OFFCURVE",
"118 297 CURVE SMOOTH",
"110 303 OFFCURVE",
"100 308 OFFCURVE",
"89 311 CURVE",
"100 314 OFFCURVE",
"111 319 OFFCURVE",
"121 325 CURVE SMOOTH",
"131 331 OFFCURVE",
"140 338 OFFCURVE",
"148 347 CURVE",
"156 355 OFFCURVE",
"162 365 OFFCURVE",
"167 376 CURVE SMOOTH",
"172 387 OFFCURVE",
"175 398 OFFCURVE",
"177 411 CURVE",
"179 428 OFFCURVE",
"180 445 OFFCURVE",
"180 461 CURVE SMOOTH",
"180 477 OFFCURVE",
"179 494 OFFCURVE",
"178 510 CURVE SMOOTH",
"177 526 OFFCURVE",
"176 544 OFFCURVE",
"176 561 CURVE SMOOTH",
"176 578 OFFCURVE",
"177 596 OFFCURVE",
"179 615 CURVE SMOOTH",
"183 644 OFFCURVE",
"193 666 OFFCURVE",
"210 683 CURVE SMOOTH",
"227 700 OFFCURVE",
"248 708 OFFCURVE",
"274 708 CURVE SMOOTH",
"284 708 LINE SMOOTH",
"288 708 OFFCURVE",
"292 709 OFFCURVE",
"297 712 CURVE SMOOTH",
"302 715 OFFCURVE",
"305 720 OFFCURVE",
"306 727 CURVE SMOOTH",
"311 766 LINE",
"284 766 LINE SMOOTH",
"257 766 OFFCURVE",
"232 763 OFFCURVE",
"211 755 CURVE SMOOTH",
"190 747 OFFCURVE",
"172 736 OFFCURVE",
"156 722 CURVE SMOOTH",
"140 708 OFFCURVE",
"127 691 OFFCURVE",
"118 672 CURVE SMOOTH",
"109 653 OFFCURVE",
"103 632 OFFCURVE",
"100 609 CURVE SMOOTH",
"98 592 OFFCURVE",
"97 575 OFFCURVE",
"98 558 CURVE SMOOTH",
"99 541 OFFCURVE",
"100 524 OFFCURVE",
"101 508 CURVE SMOOTH",
"102 492 OFFCURVE",
"102 476 OFFCURVE",
"103 460 CURVE SMOOTH",
"104 444 OFFCURVE",
"103 427 OFFCURVE",
"101 410 CURVE SMOOTH",
"98 389 OFFCURVE",
"91 371 OFFCURVE",
"78 358 CURVE SMOOTH",
"65 345 OFFCURVE",
"46 338 OFFCURVE",
"24 338 CURVE",
"18 284 LINE",
"40 284 OFFCURVE",
"56 278 OFFCURVE",
"66 264 CURVE SMOOTH",
"76 250 OFFCURVE",
"80 233 OFFCURVE",
"77 212 CURVE SMOOTH"
);
}
);
width = 296;
}
);
note = braceleft;
unicode = 007B;
},
{
glyphname = bar;
layers = (
{
layerId = "C87851D2-2817-4F36-A784-A5AE84D7BDA8";
paths = (
{
closed = 1;
nodes = (
"68 766 LINE",
"68 -172 LINE",
"137 -172 LINE",
"137 766 LINE"
);
}
);
width = 206;
}
);
note = bar;
unicode = 007C;
},
{
glyphname = braceright;
layers = (
{
layerId = "C87851D2-2817-4F36-A784-A5AE84D7BDA8";
paths = (
{
closed = 1;
nodes = (
"195 233 OFFCURVE",
"203 250 OFFCURVE",
"216 264 CURVE SMOOTH",
"229 278 OFFCURVE",
"248 284 OFFCURVE",
"270 284 CURVE",
"276 338 LINE",
"254 338 OFFCURVE",
"238 345 OFFCURVE",
"228 358 CURVE SMOOTH",
"218 371 OFFCURVE",
"214 389 OFFCURVE",
"217 410 CURVE SMOOTH",
"219 427 OFFCURVE",
"222 444 OFFCURVE",
"227 460 CURVE SMOOTH",
"232 476 OFFCURVE",
"236 493 OFFCURVE",
"241 509 CURVE SMOOTH",
"246 525 OFFCURVE",
"251 541 OFFCURVE",
"256 558 CURVE SMOOTH",
"261 575 OFFCURVE",
"265 592 OFFCURVE",
"267 609 CURVE SMOOTH",
"270 632 OFFCURVE",
"269 653 OFFCURVE",
"264 672 CURVE SMOOTH",
"259 691 OFFCURVE",
"251 708 OFFCURVE",
"239 722 CURVE SMOOTH",
"227 736 OFFCURVE",
"212 747 OFFCURVE",
"192 755 CURVE SMOOTH",
"172 763 OFFCURVE",
"148 766 OFFCURVE",
"121 766 CURVE SMOOTH",
"95 766 LINE",
"90 727 LINE SMOOTH",
"89 720 OFFCURVE",
"91 715 OFFCURVE",
"95 712 CURVE SMOOTH",
"99 709 OFFCURVE",
"104 708 OFFCURVE",
"108 708 CURVE SMOOTH",
"118 708 LINE SMOOTH",
"144 708 OFFCURVE",
"162 700 OFFCURVE",
"175 683 CURVE SMOOTH",
"188 666 OFFCURVE",
"193 643 OFFCURVE",
"189 614 CURVE SMOOTH",
"187 595 OFFCURVE",
"183 577 OFFCURVE",
"179 560 CURVE SMOOTH",
"175 543 OFFCURVE",
"170 526 OFFCURVE",
"165 510 CURVE SMOOTH",
"160 494 OFFCURVE",
"155 476 OFFCURVE",
"151 460 CURVE SMOOTH",
"147 444 OFFCURVE",
"143 428 OFFCURVE",
"141 411 CURVE",
"139 398 OFFCURVE",
"140 387 OFFCURVE",
"142 376 CURVE SMOOTH",
"144 365 OFFCURVE",
"149 356 OFFCURVE",
"155 347 CURVE",
"161 339 OFFCURVE",
"168 331 OFFCURVE",
"176 325 CURVE SMOOTH",
"184 319 OFFCURVE",
"193 314 OFFCURVE",
"204 311 CURVE",
"193 308 OFFCURVE",
"182 303 OFFCURVE",
"172 297 CURVE SMOOTH",
"162 291 OFFCURVE",
"154 284 OFFCURVE",
"146 275 CURVE SMOOTH",
"138 266 OFFCURVE",
"131 257 OFFCURVE",
"126 246 CURVE SMOOTH",
"121 235 OFFCURVE",
"119 224 OFFCURVE",
"117 212 CURVE",
"115 195 OFFCURVE",
"114 178 OFFCURVE",
"114 162 CURVE SMOOTH",
"114 146 OFFCURVE",
"115 129 OFFCURVE",
"116 113 CURVE SMOOTH",
"117 97 OFFCURVE",
"118 79 OFFCURVE",
"118 62 CURVE SMOOTH",
"118 45 OFFCURVE",
"117 27 OFFCURVE",
"115 8 CURVE SMOOTH",
"111 -21 OFFCURVE",
"101 -43 OFFCURVE",
"84 -60 CURVE SMOOTH",
"67 -77 OFFCURVE",
"46 -85 OFFCURVE",
"20 -85 CURVE SMOOTH",
"10 -85 LINE SMOOTH",
"6 -85 OFFCURVE",
"2 -87 OFFCURVE",
"-3 -90 CURVE SMOOTH",
"-8 -93 OFFCURVE",
"-11 -97 OFFCURVE",
"-12 -104 CURVE SMOOTH",
"-17 -144 LINE",
"10 -144 LINE SMOOTH",
"37 -144 OFFCURVE",
"62 -141 OFFCURVE",
"83 -133 CURVE SMOOTH",
"104 -125 OFFCURVE",
"123 -114 OFFCURVE",
"138 -100 CURVE SMOOTH",
"153 -86 OFFCURVE",
"166 -69 OFFCURVE",
"175 -50 CURVE SMOOTH",
"184 -31 OFFCURVE",
"190 -9 OFFCURVE",
"193 14 CURVE SMOOTH",
"195 31 OFFCURVE",
"197 48 OFFCURVE",
"196 64 CURVE SMOOTH",
"195 80 OFFCURVE",
"194 98 OFFCURVE",
"193 114 CURVE SMOOTH",
"192 130 OFFCURVE",
"191 147 OFFCURVE",
"190 163 CURVE SMOOTH",
"189 179 OFFCURVE",
"190 195 OFFCURVE",
"192 212 CURVE SMOOTH"
);
}
);
width = 303;
}
);
note = braceright;
unicode = 007D;
},
{
glyphname = asciitilde;
lastChange = "2017-01-26 15:47:04 +0000";
layers = (
{
layerId = "C87851D2-2817-4F36-A784-A5AE84D7BDA8";
paths = (
{
closed = 1;
nodes = (
"364 306 OFFCURVE",
"351 309 OFFCURVE",
"337 315 CURVE SMOOTH",
"323 321 OFFCURVE",
"309 327 OFFCURVE",
"294 333 CURVE SMOOTH",
"279 339 OFFCURVE",
"263 345 OFFCURVE",
"247 351 CURVE SMOOTH",
"231 357 OFFCURVE",
"214 359 OFFCURVE",
"197 359 CURVE SMOOTH",
"175 359 OFFCURVE",
"156 356 OFFCURVE",
"138 348 CURVE",
"120 341 OFFCURVE",
"104 329 OFFCURVE",
"91 316 CURVE SMOOTH",
"78 303 OFFCURVE",
"67 287 OFFCURVE",
"59 268 CURVE SMOOTH",
"51 249 OFFCURVE",
"45 229 OFFCURVE",
"42 207 CURVE",
"114 207 LINE",
"117 231 OFFCURVE",
"126 250 OFFCURVE",
"140 264 CURVE SMOOTH",
"154 278 OFFCURVE",
"171 284 OFFCURVE",
"193 284 CURVE SMOOTH",
"205 284 OFFCURVE",
"218 282 OFFCURVE",
"232 276 CURVE SMOOTH",
"246 270 OFFCURVE",
"260 264 OFFCURVE",
"275 258 CURVE SMOOTH",
"290 252 OFFCURVE",
"306 245 OFFCURVE",
"322 240 CURVE SMOOTH",
"338 235 OFFCURVE",
"355 232 OFFCURVE",
"372 232 CURVE SMOOTH",
"393 232 OFFCURVE",
"413 237 OFFCURVE",
"431 244 CURVE SMOOTH",
"449 251 OFFCURVE",
"465 261 OFFCURVE",
"478 274 CURVE SMOOTH",
"491 287 OFFCURVE",
"502 303 OFFCURVE",
"510 322 CURVE SMOOTH",
"518 341 OFFCURVE",
"524 362 OFFCURVE",
"527 384 CURVE",
"455 384 LINE",
"452 361 OFFCURVE",
"443 342 OFFCURVE",
"429 328 CURVE SMOOTH",
"415 314 OFFCURVE",
"398 306 OFFCURVE",
"376 306 CURVE SMOOTH"
);
}
);
width = 571;
}
);
leftKerningGroup = emdash;
note = asciitilde;
rightKerningGroup = emdash;
unicode = 007E;
},
{
glyphname = exclamdown;
layers = (
{
layerId = "C87851D2-2817-4F36-A784-A5AE84D7BDA8";
paths = (
{
closed = 1;
nodes = (
"20 -172 LINE",
"104 -172 LINE",
"138 99 LINE SMOOTH",
"140 114 OFFCURVE",
"141 129 OFFCURVE",
"142 143 CURVE SMOOTH",
"143 157 OFFCURVE",
"144 172 OFFCURVE",
"145 186 CURVE SMOOTH",
"146 200 OFFCURVE",
"147 215 OFFCURVE",
"147 230 CURVE SMOOTH",
"147 245 OFFCURVE",
"148 263 OFFCURVE",
"148 280 CURVE",
"87 280 LINE",
"83 263 OFFCURVE",
"79 245 OFFCURVE",
"76 230 CURVE SMOOTH",
"73 215 OFFCURVE",
"70 200 OFFCURVE",
"67 186 CURVE SMOOTH",
"64 172 OFFCURVE",
"61 157 OFFCURVE",
"59 143 CURVE SMOOTH",
"57 129 OFFCURVE",
"55 114 OFFCURVE",
"53 99 CURVE SMOOTH"
);
},
{
closed = 1;
nodes = (
"74 443 OFFCURVE",
"74 436 OFFCURVE",
"76 428 CURVE SMOOTH",
"78 420 OFFCURVE",
"82 414 OFFCURVE",
"87 408 CURVE SMOOTH",
"92 402 OFFCURVE",
"98 397 OFFCURVE",
"105 394 CURVE SMOOTH",
"112 391 OFFCURVE",
"120 389 OFFCURVE",
"129 389 CURVE SMOOTH",
"138 389 OFFCURVE",
"146 391 OFFCURVE",
"154 394 CURVE SMOOTH",
"162 397 OFFCURVE",
"170 402 OFFCURVE",
"176 408 CURVE SMOOTH",
"182 414 OFFCURVE",
"188 420 OFFCURVE",
"192 428 CURVE SMOOTH",
"196 436 OFFCURVE",
"199 443 OFFCURVE",
"200 452 CURVE SMOOTH",
"201 461 OFFCURVE",
"200 469 OFFCURVE",
"198 477 CURVE SMOOTH",
"196 484 OFFCURVE",
"192 491 OFFCURVE",
"187 497 CURVE SMOOTH",
"182 503 OFFCURVE",
"175 507 OFFCURVE",
"168 510 CURVE SMOOTH",
"161 513 OFFCURVE",
"154 514 OFFCURVE",
"145 514 CURVE SMOOTH",
"136 514 OFFCURVE",
"127 513 OFFCURVE",
"119 510 CURVE SMOOTH",
"111 507 OFFCURVE",
"104 503 OFFCURVE",
"98 497 CURVE SMOOTH",
"92 491 OFFCURVE",
"86 485 OFFCURVE",
"82 477 CURVE SMOOTH",
"78 469 OFFCURVE",
"76 461 OFFCURVE",
"75 452 CURVE SMOOTH"
);
}
);
width = 231;
}
);
note = exclamdown;
unicode = 00A1;
},
{
glyphname = cent;
lastChange = "2017-01-26 15:47:04 +0000";
layers = (
{
layerId = "C87851D2-2817-4F36-A784-A5AE84D7BDA8";
paths = (
{
closed = 1;
nodes = (
"386 103 LINE",
"383 109 OFFCURVE",
"379 112 OFFCURVE",
"372 112 CURVE SMOOTH",
"365 112 OFFCURVE",
"358 109 OFFCURVE",
"351 104 CURVE SMOOTH",
"344 99 OFFCURVE",
"336 92 OFFCURVE",
"326 86 CURVE SMOOTH",
"316 80 OFFCURVE",
"304 74 OFFCURVE",
"289 69 CURVE SMOOTH",
"274 64 OFFCURVE",
"261 62 OFFCURVE",
"250 62 CURVE SMOOTH",
"230 62 LINE",
"230 63 LINE",
"302 443 LINE",
"303 444 LINE",
"310 443 OFFCURVE",
"319 442 OFFCURVE",
"331 440 CURVE",
"340 439 OFFCURVE",
"351 435 OFFCURVE",
"366 430 CURVE",
"364 386 OFFCURVE",
"363 364 OFFCURVE",
"364 360 CURVE",
"365 351 OFFCURVE",
"369 346 OFFCURVE",
"379 346 CURVE SMOOTH",
"419 346 LINE",
"435 476 LINE",
"391 495 OFFCURVE",
"351 507 OFFCURVE",
"316 512 CURVE",
"338 628 LINE",
"305 628 LINE SMOOTH",
"298 628 OFFCURVE",
"292 625 OFFCURVE",
"287 620 CURVE SMOOTH",
"282 615 OFFCURVE",
"279 609 OFFCURVE",
"277 602 CURVE",
"260 512 LINE",
"198 506 OFFCURVE",
"146 483 OFFCURVE",
"104 440 CURVE SMOOTH",
"57 393 OFFCURVE",
"29 331 OFFCURVE",
"19 253 CURVE SMOOTH",
"9 172 OFFCURVE",
"23 108 OFFCURVE",
"60 61 CURVE SMOOTH",
"85 28 OFFCURVE",
"119 7 OFFCURVE",
"161 -2 CURVE",
"139 -117 LINE",
"172 -117 LINE SMOOTH",
"179 -117 OFFCURVE",
"185 -115 OFFCURVE",
"190 -110 CURVE SMOOTH",
"195 -105 OFFCURVE",
"199 -99 OFFCURVE",
"200 -93 CURVE SMOOTH",
"216 -7 LINE",
"296 -5 OFFCURVE",
"360 21 OFFCURVE",
"407 71 CURVE"
);
},
{
closed = 1;
nodes = (
"115 282 OFFCURVE",
"121 309 OFFCURVE",
"130 333 CURVE SMOOTH",
"154 392 OFFCURVE",
"192 428 OFFCURVE",
"246 440 CURVE",
"201 204 OFFCURVE",
"177 82 OFFCURVE",
"175 74 CURVE",
"158 83 OFFCURVE",
"144 95 OFFCURVE",
"133 111 CURVE SMOOTH",
"111 145 OFFCURVE",
"104 193 OFFCURVE",
"111 253 CURVE SMOOTH"
);
}
);
width = 450;
}
);
leftKerningGroup = c;
note = cent;
unicode = 00A2;
},
{
glyphname = sterling;
layers = (
{
layerId = "C87851D2-2817-4F36-A784-A5AE84D7BDA8";
paths = (
{
closed = 1;
nodes = (
"29 307 LINE",
"127 307 LINE",
"109 162 LINE SMOOTH",
"107 147 OFFCURVE",
"103 134 OFFCURVE",
"97 122 CURVE SMOOTH",
"91 110 OFFCURVE",
"83 100 OFFCURVE",
"74 92 CURVE SMOOTH",
"65 84 OFFCURVE",
"55 77 OFFCURVE",
"44 71 CURVE SMOOTH",
"33 65 OFFCURVE",
"22 61 OFFCURVE",
"10 58 CURVE",
"2 0 LINE",
"484 0 LINE SMOOTH",
"490 0 OFFCURVE",
"496 2 OFFCURVE",
"501 4 CURVE SMOOTH",
"506 6 OFFCURVE",
"510 9 OFFCURVE",
"514 13 CURVE SMOOTH",
"518 17 OFFCURVE",
"521 21 OFFCURVE",
"523 25 CURVE SMOOTH",
"525 29 OFFCURVE",
"527 34 OFFCURVE",
"528 39 CURVE",
"532 77 LINE",
"194 77 LINE SMOOTH",
"184 77 OFFCURVE",
"175 76 OFFCURVE",
"165 75 CURVE SMOOTH",
"155 74 OFFCURVE",
"146 73 OFFCURVE",
"136 71 CURVE",
"155 86 OFFCURVE",
"169 103 OFFCURVE",
"181 121 CURVE SMOOTH",
"193 139 OFFCURVE",
"200 161 OFFCURVE",
"203 186 CURVE SMOOTH",
"218 307 LINE",
"413 307 LINE SMOOTH",
"420 307 OFFCURVE",
"426 310 OFFCURVE",
"432 315 CURVE SMOOTH",
"438 320 OFFCURVE",
"441 325 OFFCURVE",
"442 331 CURVE",
"446 367 LINE",
"226 367 LINE",
"242 499 LINE SMOOTH",
"245 522 OFFCURVE",
"249 542 OFFCURVE",
"257 560 CURVE SMOOTH",
"265 578 OFFCURVE",
"275 594 OFFCURVE",
"287 607 CURVE SMOOTH",
"299 620 OFFCURVE",
"314 630 OFFCURVE",
"331 637 CURVE SMOOTH",
"348 644 OFFCURVE",
"367 648 OFFCURVE",
"388 648 CURVE SMOOTH",
"403 648 OFFCURVE",
"415 646 OFFCURVE",
"426 642 CURVE SMOOTH",
"437 638 OFFCURVE",
"445 634 OFFCURVE",
"453 628 CURVE SMOOTH",
"461 622 OFFCURVE",
"468 616 OFFCURVE",
"474 608 CURVE SMOOTH",
"480 600 OFFCURVE",
"485 592 OFFCURVE",
"491 584 CURVE",
"494 579 OFFCURVE",
"498 576 OFFCURVE",
"502 574 CURVE SMOOTH",
"506 572 OFFCURVE",
"510 571 OFFCURVE",
"515 571 CURVE SMOOTH",
"518 571 OFFCURVE",
"521 571 OFFCURVE",
"525 572 CURVE SMOOTH",
"529 573 OFFCURVE",
"532 574 OFFCURVE",
"536 576 CURVE",
"575 599 LINE",
"569 616 OFFCURVE",
"561 633 OFFCURVE",
"551 648 CURVE SMOOTH",
"541 663 OFFCURVE",
"529 676 OFFCURVE",
"515 687 CURVE SMOOTH",
"501 698 OFFCURVE",
"484 707 OFFCURVE",
"465 714 CURVE",
"446 720 OFFCURVE",
"423 724 OFFCURVE",
"397 724 CURVE SMOOTH",
"360 724 OFFCURVE",
"328 718 OFFCURVE",
"299 706 CURVE SMOOTH",
"270 694 OFFCURVE",
"245 678 OFFCURVE",
"224 658 CURVE SMOOTH",
"203 638 OFFCURVE",
"186 614 OFFCURVE",
"174 586 CURVE SMOOTH",
"162 558 OFFCURVE",
"154 528 OFFCURVE",
"150 497 CURVE SMOOTH",
"134 367 LINE",
"67 367 LINE SMOOTH",
"57 367 OFFCURVE",
"49 364 OFFCURVE",
"43 358 CURVE SMOOTH",
"37 352 OFFCURVE",
"34 345 OFFCURVE",
"33 336 CURVE SMOOTH"
);
}
);
width = 580;
}
);
note = sterling;
unicode = 00A3;
},
{
glyphname = currency;
layers = (
{
layerId = "C87851D2-2817-4F36-A784-A5AE84D7BDA8";
paths = (
{
closed = 1;
nodes = (
"84 317 OFFCURVE",
"84 298 OFFCURVE",
"88 281 CURVE SMOOTH",
"92 264 OFFCURVE",
"97 249 OFFCURVE",
"105 234 CURVE",
"20 158 LINE",
"59 112 LINE",
"145 188 LINE",
"158 178 OFFCURVE",
"174 172 OFFCURVE",
"190 166 CURVE SMOOTH",
"206 160 OFFCURVE",
"223 158 OFFCURVE",
"242 158 CURVE SMOOTH",
"261 158 OFFCURVE",
"280 160 OFFCURVE",
"298 166 CURVE SMOOTH",
"316 172 OFFCURVE",
"333 180 OFFCURVE",
"349 190 CURVE",
"416 114 LINE",
"467 160 LINE",
"400 235 LINE",
"411 249 OFFCURVE",
"421 265 OFFCURVE",
"429 282 CURVE SMOOTH",
"437 299 OFFCURVE",
"441 317 OFFCURVE",
"443 336 CURVE SMOOTH",
"445 355 OFFCURVE",
"446 374 OFFCURVE",
"442 391 CURVE SMOOTH",
"438 408 OFFCURVE",
"433 423 OFFCURVE",
"424 438 CURVE",
"508 514 LINE",
"469 560 LINE",
"384 484 LINE",
"371 494 OFFCURVE",
"355 501 OFFCURVE",
"339 507 CURVE SMOOTH",
"323 513 OFFCURVE",
"305 515 OFFCURVE",
"286 515 CURVE SMOOTH",
"267 515 OFFCURVE",
"248 512 OFFCURVE",
"230 506 CURVE SMOOTH",
"212 500 OFFCURVE",
"195 492 OFFCURVE",
"179 482 CURVE",
"113 558 LINE",
"62 514 LINE",
"129 437 LINE",
"118 422 OFFCURVE",
"109 407 OFFCURVE",
"101 390 CURVE SMOOTH",
"93 373 OFFCURVE",
"88 355 OFFCURVE",
"86 336 CURVE SMOOTH"
);
},
{
closed = 1;
nodes = (
"154 352 OFFCURVE",
"158 366 OFFCURVE",
"166 380 CURVE SMOOTH",
"174 394 OFFCURVE",
"183 406 OFFCURVE",
"195 416 CURVE SMOOTH",
"207 426 OFFCURVE",
"219 434 OFFCURVE",
"233 440 CURVE SMOOTH",
"247 446 OFFCURVE",
"262 449 OFFCURVE",
"278 449 CURVE SMOOTH",
"294 449 OFFCURVE",
"308 446 OFFCURVE",
"321 440 CURVE SMOOTH",
"334 434 OFFCURVE",
"345 426 OFFCURVE",
"354 416 CURVE SMOOTH",
"363 406 OFFCURVE",
"370 394 OFFCURVE",
"374 380 CURVE SMOOTH",
"378 366 OFFCURVE",
"380 352 OFFCURVE",
"378 336 CURVE SMOOTH",
"376 321 OFFCURVE",
"372 307 OFFCURVE",
"364 293 CURVE SMOOTH",
"356 279 OFFCURVE",
"346 267 OFFCURVE",
"335 257 CURVE SMOOTH",
"324 247 OFFCURVE",
"311 239 OFFCURVE",
"296 233 CURVE SMOOTH",
"281 227 OFFCURVE",
"267 224 OFFCURVE",
"251 224 CURVE SMOOTH",
"235 224 OFFCURVE",
"221 227 OFFCURVE",
"208 233 CURVE SMOOTH",
"195 239 OFFCURVE",
"184 247 OFFCURVE",
"175 257 CURVE SMOOTH",
"166 267 OFFCURVE",
"159 279 OFFCURVE",
"155 293 CURVE SMOOTH",
"151 307 OFFCURVE",
"150 321 OFFCURVE",
"152 336 CURVE SMOOTH"
);
}
);
width = 529;
}
);
note = currency;
unicode = 00A4;
},
{
glyphname = yen;
layers = (
{
layerId = "C87851D2-2817-4F36-A784-A5AE84D7BDA8";
paths = (
{
closed = 1;
nodes = (
"43 312 LINE",
"37 262 LINE",
"207 262 LINE",
"200 209 LINE",
"30 209 LINE",
"24 158 LINE",
"194 158 LINE",
"175 0 LINE",
"264 0 LINE",
"284 158 LINE",
"454 158 LINE",
"460 209 LINE",
"290 209 LINE",
"296 262 LINE",
"466 262 LINE",
"473 312 LINE",
"319 312 LINE",
"573 716 LINE",
"498 716 LINE SMOOTH",
"490 716 OFFCURVE",
"483 715 OFFCURVE",
"477 710 CURVE SMOOTH",
"471 705 OFFCURVE",
"465 700 OFFCURVE",
"462 694 CURVE",
"290 411 LINE",
"284 400 OFFCURVE",
"279 389 OFFCURVE",
"275 379 CURVE SMOOTH",
"271 369 OFFCURVE",
"267 360 OFFCURVE",
"263 350 CURVE",
"262 360 OFFCURVE",
"260 369 OFFCURVE",
"258 379 CURVE SMOOTH",
"256 389 OFFCURVE",
"253 399 OFFCURVE",
"250 411 CURVE",
"147 694 LINE",
"144 701 OFFCURVE",
"141 706 OFFCURVE",
"136 710 CURVE SMOOTH",
"131 714 OFFCURVE",
"125 716 OFFCURVE",
"116 716 CURVE SMOOTH",
"42 716 LINE",
"196 312 LINE"
);
}
);
width = 568;
}
);
note = yen;
unicode = 00A5;
},
{
glyphname = brokenbar;
layers = (
{
layerId = "C87851D2-2817-4F36-A784-A5AE84D7BDA8";
paths = (
{
closed = 1;
nodes = (
"121 766 LINE",
"72 370 LINE",
"141 370 LINE",
"190 766 LINE"
);
},
{
closed = 1;
nodes = (
"55 226 LINE",
"6 -172 LINE",
"75 -172 LINE",
"124 226 LINE"
);
}
);
width = 207;
}
);
note = brokenbar;
unicode = 00A6;
},
{
glyphname = section;
layers = (
{
layerId = "C87851D2-2817-4F36-A784-A5AE84D7BDA8";
paths = (
{
closed = 1;
nodes = (
"449 665 LINE",
"432 683 OFFCURVE",
"411 698 OFFCURVE",
"386 708 CURVE SMOOTH",
"361 718 OFFCURVE",
"331 724 OFFCURVE",
"298 724 CURVE SMOOTH",
"269 724 OFFCURVE",
"243 720 OFFCURVE",
"220 712 CURVE SMOOTH",
"197 704 OFFCURVE",
"177 693 OFFCURVE",
"160 680 CURVE SMOOTH",
"143 667 OFFCURVE",
"129 651 OFFCURVE",
"119 633 CURVE SMOOTH",
"109 615 OFFCURVE",
"102 596 OFFCURVE",
"100 577 CURVE SMOOTH",
"97 552 OFFCURVE",
"100 531 OFFCURVE",
"108 513 CURVE SMOOTH",
"116 495 OFFCURVE",
"128 481 OFFCURVE",
"143 468 CURVE",
"111 456 OFFCURVE",
"86 440 OFFCURVE",
"69 419 CURVE SMOOTH",
"52 398 OFFCURVE",
"42 375 OFFCURVE",
"39 349 CURVE SMOOTH",
"36 328 OFFCURVE",
"39 310 OFFCURVE",
"45 294 CURVE SMOOTH",
"51 278 OFFCURVE",
"61 265 OFFCURVE",
"73 253 CURVE SMOOTH",
"85 241 OFFCURVE",
"99 231 OFFCURVE",
"115 223 CURVE SMOOTH",
"131 215 OFFCURVE",
"149 206 OFFCURVE",
"166 199 CURVE SMOOTH",
"183 192 OFFCURVE",
"201 185 OFFCURVE",
"217 178 CURVE SMOOTH",
"233 171 OFFCURVE",
"248 162 OFFCURVE",
"261 154 CURVE SMOOTH",
"274 146 OFFCURVE",
"283 136 OFFCURVE",
"290 125 CURVE SMOOTH",
"297 114 OFFCURVE",
"300 101 OFFCURVE",
"298 86 CURVE SMOOTH",
"296 73 OFFCURVE",
"292 62 OFFCURVE",
"286 52 CURVE SMOOTH",
"280 42 OFFCURVE",
"273 33 OFFCURVE",
"263 25 CURVE SMOOTH",
"253 17 OFFCURVE",
"241 11 OFFCURVE",
"227 7 CURVE SMOOTH",
"213 3 OFFCURVE",
"199 1 OFFCURVE",
"182 1 CURVE SMOOTH",
"161 1 OFFCURVE",
"144 3 OFFCURVE",
"130 8 CURVE SMOOTH",
"116 13 OFFCURVE",
"105 18 OFFCURVE",
"96 24 CURVE SMOOTH",
"87 30 OFFCURVE",
"79 35 OFFCURVE",
"73 40 CURVE SMOOTH",
"67 45 OFFCURVE",
"61 46 OFFCURVE",
"55 46 CURVE SMOOTH",
"49 46 OFFCURVE",
"45 45 OFFCURVE",
"41 43 CURVE SMOOTH",
"37 41 OFFCURVE",
"33 37 OFFCURVE",
"30 33 CURVE SMOOTH",
"5 -1 LINE",
"23 -19 OFFCURVE",
"46 -33 OFFCURVE",
"73 -45 CURVE SMOOTH",
"100 -57 OFFCURVE",
"131 -63 OFFCURVE",
"166 -63 CURVE SMOOTH",
"197 -63 OFFCURVE",
"225 -58 OFFCURVE",
"250 -50 CURVE SMOOTH",
"275 -42 OFFCURVE",
"296 -30 OFFCURVE",
"314 -16 CURVE SMOOTH",
"332 -2 OFFCURVE",
"346 16 OFFCURVE",
"357 36 CURVE SMOOTH",
"368 56 OFFCURVE",
"374 77 OFFCURVE",
"377 100 CURVE SMOOTH",
"380 123 OFFCURVE",
"377 144 OFFCURVE",
"369 160 CURVE SMOOTH",
"361 176 OFFCURVE",
"349 190 OFFCURVE",
"334 202 CURVE",
"364 215 OFFCURVE",
"386 232 OFFCURVE",
"402 253 CURVE SMOOTH",
"418 274 OFFCURVE",
"428 299 OFFCURVE",
"431 326 CURVE SMOOTH",
"433 346 OFFCURVE",
"431 364 OFFCURVE",
"425 379 CURVE SMOOTH",
"419 394 OFFCURVE",
"410 408 OFFCURVE",
"398 420 CURVE SMOOTH",
"386 432 OFFCURVE",
"373 442 OFFCURVE",
"357 451 CURVE SMOOTH",
"341 460 OFFCURVE",
"325 468 OFFCURVE",
"308 476 CURVE SMOOTH",
"291 484 OFFCURVE",
"275 492 OFFCURVE",
"259 499 CURVE SMOOTH",
"243 506 OFFCURVE",
"228 513 OFFCURVE",
"216 521 CURVE SMOOTH",
"204 529 OFFCURVE",
"195 537 OFFCURVE",
"188 547 CURVE SMOOTH",
"181 557 OFFCURVE",
"177 567 OFFCURVE",
"179 580 CURVE",
"180 590 OFFCURVE",
"184 601 OFFCURVE",
"190 610 CURVE SMOOTH",
"196 619 OFFCURVE",
"203 627 OFFCURVE",
"213 634 CURVE SMOOTH",
"223 641 OFFCURVE",
"235 647 OFFCURVE",
"248 651 CURVE SMOOTH",
"261 655 OFFCURVE",
"276 657 OFFCURVE",
"292 657 CURVE SMOOTH",
"309 657 OFFCURVE",
"324 656 OFFCURVE",
"336 652 CURVE SMOOTH",
"348 648 OFFCURVE",
"358 643 OFFCURVE",
"367 639 CURVE SMOOTH",
"376 635 OFFCURVE",
"383 631 OFFCURVE",
"389 627 CURVE SMOOTH",
"395 623 OFFCURVE",
"400 621 OFFCURVE",
"405 621 CURVE SMOOTH",
"413 621 OFFCURVE",
"420 625 OFFCURVE",
"425 632 CURVE SMOOTH"
);
},
{
closed = 1;
nodes = (
"122 379 OFFCURVE",
"128 393 OFFCURVE",
"138 405 CURVE SMOOTH",
"148 417 OFFCURVE",
"166 428 OFFCURVE",
"189 438 CURVE",
"202 431 OFFCURVE",
"215 426 OFFCURVE",
"228 420 CURVE SMOOTH",
"241 414 OFFCURVE",
"254 408 OFFCURVE",
"266 402 CURVE SMOOTH",
"278 396 OFFCURVE",
"290 390 OFFCURVE",
"301 384 CURVE SMOOTH",
"312 378 OFFCURVE",
"321 371 OFFCURVE",
"329 363 CURVE SMOOTH",
"337 355 OFFCURVE",
"343 346 OFFCURVE",
"347 337 CURVE SMOOTH",
"351 328 OFFCURVE",
"351 317 OFFCURVE",
"350 305 CURVE",
"348 289 OFFCURVE",
"343 275 OFFCURVE",
"333 263 CURVE SMOOTH",
"323 251 OFFCURVE",
"309 240 OFFCURVE",
"290 231 CURVE",
"271 241 OFFCURVE",
"251 251 OFFCURVE",
"230 260 CURVE SMOOTH",
"209 269 OFFCURVE",
"190 278 OFFCURVE",
"173 288 CURVE SMOOTH",
"156 298 OFFCURVE",
"142 308 OFFCURVE",
"132 320 CURVE SMOOTH",
"122 332 OFFCURVE",
"118 346 OFFCURVE",
"120 363 CURVE SMOOTH"
);
}
);
width = 468;
}
);
note = section;
unicode = 00A7;
},
{
glyphname = dieresis;
lastChange = "2017-01-26 15:02:12 +0000";
layers = (
{
layerId = "C87851D2-2817-4F36-A784-A5AE84D7BDA8";
paths = (
{
closed = 1;
nodes = (
"175 589 OFFCURVE",
"204 614 OFFCURVE",
"208 645 CURVE SMOOTH",
"212 676 OFFCURVE",
"189 701 OFFCURVE",
"158 701 CURVE SMOOTH",
"127 701 OFFCURVE",
"98 676 OFFCURVE",
"95 645 CURVE SMOOTH",
"92 614 OFFCURVE",
"114 589 OFFCURVE",
"144 589 CURVE SMOOTH"
);
},
{
closed = 1;
nodes = (
"354 589 OFFCURVE",
"383 614 OFFCURVE",
"387 645 CURVE SMOOTH",
"391 676 OFFCURVE",
"368 701 OFFCURVE",
"337 701 CURVE SMOOTH",
"306 701 OFFCURVE",
"277 676 OFFCURVE",
"274 645 CURVE SMOOTH",
"271 614 OFFCURVE",
"293 589 OFFCURVE",
"323 589 CURVE SMOOTH"
);
}
);
width = 389;
}
);
note = dieresis;
unicode = 00A8;
},
{
glyphname = copyright;
lastChange = "2017-01-26 15:47:04 +0000";
layers = (
{
layerId = "C87851D2-2817-4F36-A784-A5AE84D7BDA8";
paths = (
{
closed = 1;
nodes = (
"474 220 LINE SMOOTH",
"467 216 OFFCURVE",
"459 211 OFFCURVE",
"451 208 CURVE SMOOTH",
"443 205 OFFCURVE",
"433 202 OFFCURVE",
"422 200 CURVE SMOOTH",
"411 198 OFFCURVE",
"397 198 OFFCURVE",
"381 198 CURVE SMOOTH",
"360 198 OFFCURVE",
"342 201 OFFCURVE",
"325 208 CURVE SMOOTH",
"308 215 OFFCURVE",
"294 226 OFFCURVE",
"283 240 CURVE SMOOTH",
"272 254 OFFCURVE",
"265 270 OFFCURVE",
"260 290 CURVE SMOOTH",
"255 310 OFFCURVE",
"254 333 OFFCURVE",
"257 359 CURVE SMOOTH",
"260 384 OFFCURVE",
"267 406 OFFCURVE",
"277 426 CURVE SMOOTH",
"287 446 OFFCURVE",
"298 464 OFFCURVE",
"313 478 CURVE SMOOTH",
"328 492 OFFCURVE",
"345 502 OFFCURVE",
"365 510 CURVE SMOOTH",
"385 518 OFFCURVE",
"407 521 OFFCURVE",
"430 521 CURVE SMOOTH",
"450 521 OFFCURVE",
"466 519 OFFCURVE",
"478 515 CURVE SMOOTH",
"490 511 OFFCURVE",
"500 508 OFFCURVE",
"508 503 CURVE",
"516 499 OFFCURVE",
"521 494 OFFCURVE",
"526 490 CURVE SMOOTH",
"531 486 OFFCURVE",
"535 485 OFFCURVE",
"540 485 CURVE SMOOTH",
"544 485 OFFCURVE",
"548 486 OFFCURVE",
"551 488 CURVE SMOOTH",
"554 490 OFFCURVE",
"556 492 OFFCURVE",
"558 494 CURVE",
"585 526 LINE",
"568 544 OFFCURVE",
"548 560 OFFCURVE",
"524 571 CURVE SMOOTH",
"500 582 OFFCURVE",
"470 588 OFFCURVE",
"434 588 CURVE SMOOTH",
"401 588 OFFCURVE",
"370 582 OFFCURVE",
"341 571 CURVE SMOOTH",
"312 560 OFFCURVE",
"286 544 OFFCURVE",
"263 524 CURVE SMOOTH",
"240 504 OFFCURVE",
"222 480 OFFCURVE",
"207 452 CURVE SMOOTH",
"192 424 OFFCURVE",
"182 393 OFFCURVE",
"178 359 CURVE SMOOTH",
"174 326 OFFCURVE",
"175 295 OFFCURVE",
"182 267 CURVE SMOOTH",
"189 239 OFFCURVE",
"201 215 OFFCURVE",
"218 195 CURVE SMOOTH",
"235 175 OFFCURVE",
"256 158 OFFCURVE",
"281 147 CURVE SMOOTH",
"306 136 OFFCURVE",
"335 130 OFFCURVE",
"368 130 CURVE SMOOTH",
"407 130 OFFCURVE",
"441 136 OFFCURVE",
"470 148 CURVE SMOOTH",
"499 160 OFFCURVE",
"524 178 OFFCURVE",
"546 200 CURVE",
"520 232 LINE",
"518 234 OFFCURVE",
"516 235 OFFCURVE",
"515 236 CURVE SMOOTH",
"514 237 OFFCURVE",
"512 238 OFFCURVE",
"508 238 CURVE SMOOTH",
"506 238 OFFCURVE",
"504 237 OFFCURVE",
"502 236 CURVE SMOOTH",
"500 235 OFFCURVE",
"498 234 OFFCURVE",
"495 232 CURVE"
);
},
{
closed = 1;
nodes = (
"25 324 OFFCURVE",
"25 292 OFFCURVE",
"30 261 CURVE SMOOTH",
"35 230 OFFCURVE",
"44 201 OFFCURVE",
"57 174 CURVE SMOOTH",
"70 147 OFFCURVE",
"85 122 OFFCURVE",
"105 100 CURVE SMOOTH",
"125 78 OFFCURVE",
"147 59 OFFCURVE",
"172 43 CURVE SMOOTH",
"197 27 OFFCURVE",
"224 15 OFFCURVE",
"254 6 CURVE SMOOTH",
"284 -3 OFFCURVE",
"316 -7 OFFCURVE",
"350 -7 CURVE SMOOTH",
"384 -7 OFFCURVE",
"416 -3 OFFCURVE",
"448 6 CURVE SMOOTH",
"480 15 OFFCURVE",
"511 27 OFFCURVE",
"540 43 CURVE SMOOTH",
"569 59 OFFCURVE",
"596 78 OFFCURVE",
"621 100 CURVE SMOOTH",
"646 122 OFFCURVE",
"669 147 OFFCURVE",
"688 174 CURVE SMOOTH",
"707 201 OFFCURVE",
"723 230 OFFCURVE",
"735 261 CURVE SMOOTH",
"747 292 OFFCURVE",
"756 325 OFFCURVE",
"760 358 CURVE SMOOTH",
"764 392 OFFCURVE",
"764 424 OFFCURVE",
"759 455 CURVE SMOOTH",
"754 486 OFFCURVE",
"745 516 OFFCURVE",
"733 543 CURVE SMOOTH",
"721 570 OFFCURVE",
"705 595 OFFCURVE",
"685 617 CURVE SMOOTH",
"665 639 OFFCURVE",
"643 658 OFFCURVE",
"618 674 CURVE SMOOTH",
"593 690 OFFCURVE",
"565 702 OFFCURVE",
"535 711 CURVE SMOOTH",
"505 720 OFFCURVE",
"473 724 OFFCURVE",
"439 724 CURVE SMOOTH",
"405 724 OFFCURVE",
"373 720 OFFCURVE",
"341 711 CURVE SMOOTH",
"309 702 OFFCURVE",
"278 690 OFFCURVE",
"249 674 CURVE SMOOTH",
"220 658 OFFCURVE",
"193 639 OFFCURVE",
"168 617 CURVE SMOOTH",
"143 595 OFFCURVE",
"121 570 OFFCURVE",
"102 543 CURVE SMOOTH",
"83 516 OFFCURVE",
"66 486 OFFCURVE",
"54 455 CURVE SMOOTH",
"42 424 OFFCURVE",
"33 392 OFFCURVE",
"29 358 CURVE SMOOTH"
);
},
{
closed = 1;
nodes = (
"84 403 OFFCURVE",
"98 445 OFFCURVE",
"119 484 CURVE SMOOTH",
"140 523 OFFCURVE",
"167 557 OFFCURVE",
"199 586 CURVE SMOOTH",
"231 615 OFFCURVE",
"267 638 OFFCURVE",
"307 655 CURVE SMOOTH",
"347 672 OFFCURVE",
"390 680 OFFCURVE",
"434 680 CURVE SMOOTH",
"463 680 OFFCURVE",
"491 677 OFFCURVE",
"517 669 CURVE SMOOTH",
"543 661 OFFCURVE",
"567 651 OFFCURVE",
"589 637 CURVE SMOOTH",
"611 623 OFFCURVE",
"630 606 OFFCURVE",
"647 586 CURVE SMOOTH",
"664 566 OFFCURVE",
"677 545 OFFCURVE",
"688 521 CURVE SMOOTH",
"699 497 OFFCURVE",
"706 472 OFFCURVE",
"710 444 CURVE SMOOTH",
"714 416 OFFCURVE",
"715 388 OFFCURVE",
"711 358 CURVE SMOOTH",
"706 313 OFFCURVE",
"692 272 OFFCURVE",
"671 233 CURVE SMOOTH",
"650 194 OFFCURVE",
"623 160 OFFCURVE",
"591 131 CURVE SMOOTH",
"559 102 OFFCURVE",
"523 80 OFFCURVE",
"482 63 CURVE SMOOTH",
"441 46 OFFCURVE",
"399 38 OFFCURVE",
"355 38 CURVE SMOOTH",
"326 38 OFFCURVE",
"298 41 OFFCURVE",
"272 49 CURVE SMOOTH",
"246 57 OFFCURVE",
"222 67 OFFCURVE",
"200 81 CURVE SMOOTH",
"178 95 OFFCURVE",
"160 112 OFFCURVE",
"143 131 CURVE SMOOTH",
"126 150 OFFCURVE",
"113 172 OFFCURVE",
"102 196 CURVE SMOOTH",
"91 220 OFFCURVE",
"84 245 OFFCURVE",
"80 272 CURVE SMOOTH",
"76 299 OFFCURVE",
"75 328 OFFCURVE",
"79 358 CURVE SMOOTH"
);
}
);
width = 790;
}
);
leftKerningGroup = O;
note = copyright;
rightKerningGroup = O;
unicode = 00A9;
},
{
glyphname = ordfeminine;
lastChange = "2017-01-26 15:47:04 +0000";
layers = (
{
layerId = "C87851D2-2817-4F36-A784-A5AE84D7BDA8";
paths = (
{
closed = 1;
nodes = (
"285 420 LINE",
"308 610 LINE SMOOTH",
"310 627 OFFCURVE",
"310 643 OFFCURVE",
"307 657 CURVE SMOOTH",
"304 671 OFFCURVE",
"297 683 OFFCURVE",
"289 693 CURVE SMOOTH",
"281 703 OFFCURVE",
"269 710 OFFCURVE",
"256 716 CURVE SMOOTH",
"243 722 OFFCURVE",
"227 725 OFFCURVE",
"209 725 CURVE SMOOTH",
"185 725 OFFCURVE",
"162 722 OFFCURVE",
"141 714 CURVE SMOOTH",
"120 706 OFFCURVE",
"100 694 OFFCURVE",
"81 678 CURVE",
"89 656 LINE SMOOTH",
"90 653 OFFCURVE",
"92 650 OFFCURVE",
"95 648 CURVE SMOOTH",
"98 646 OFFCURVE",
"102 644 OFFCURVE",
"107 644 CURVE SMOOTH",
"112 644 OFFCURVE",
"118 645 OFFCURVE",
"123 648 CURVE SMOOTH",
"128 651 OFFCURVE",
"133 654 OFFCURVE",
"140 658 CURVE SMOOTH",
"147 662 OFFCURVE",
"154 665 OFFCURVE",
"163 668 CURVE SMOOTH",
"172 671 OFFCURVE",
"182 672 OFFCURVE",
"195 672 CURVE SMOOTH",
"214 672 OFFCURVE",
"229 667 OFFCURVE",
"237 657 CURVE SMOOTH",
"245 647 OFFCURVE",
"248 631 OFFCURVE",
"245 610 CURVE SMOOTH",
"243 592 LINE",
"207 591 OFFCURVE",
"177 588 OFFCURVE",
"152 582 CURVE SMOOTH",
"127 576 OFFCURVE",
"107 569 OFFCURVE",
"91 560 CURVE SMOOTH",
"75 551 OFFCURVE",
"64 541 OFFCURVE",
"56 530 CURVE SMOOTH",
"48 519 OFFCURVE",
"43 507 OFFCURVE",
"42 496 CURVE",
"40 482 OFFCURVE",
"42 471 OFFCURVE",
"45 461 CURVE SMOOTH",
"48 451 OFFCURVE",
"53 443 OFFCURVE",
"60 436 CURVE SMOOTH",
"67 429 OFFCURVE",
"77 423 OFFCURVE",
"87 420 CURVE SMOOTH",
"97 417 OFFCURVE",
"108 416 OFFCURVE",
"121 416 CURVE SMOOTH",
"132 416 OFFCURVE",
"143 416 OFFCURVE",
"153 418 CURVE SMOOTH",
"163 420 OFFCURVE",
"171 423 OFFCURVE",
"180 427 CURVE SMOOTH",
"189 431 OFFCURVE",
"198 436 OFFCURVE",
"206 441 CURVE SMOOTH",
"214 446 OFFCURVE",
"223 452 OFFCURVE",
"232 459 CURVE",
"235 435 LINE",
"237 429 OFFCURVE",
"239 425 OFFCURVE",
"242 423 CURVE SMOOTH",
"245 421 OFFCURVE",
"249 420 OFFCURVE",
"255 420 CURVE SMOOTH"
);
},
{
closed = 1;
nodes = (
"134 462 OFFCURVE",
"123 464 OFFCURVE",
"115 470 CURVE SMOOTH",
"107 476 OFFCURVE",
"103 486 OFFCURVE",
"105 500 CURVE SMOOTH",
"106 507 OFFCURVE",
"109 513 OFFCURVE",
"114 519 CURVE SMOOTH",
"119 525 OFFCURVE",
"126 529 OFFCURVE",
"137 534 CURVE",
"148 538 OFFCURVE",
"161 542 OFFCURVE",
"178 545 CURVE SMOOTH",
"195 548 OFFCURVE",
"215 549 OFFCURVE",
"238 550 CURVE",
"232 498 LINE",
"219 486 OFFCURVE",
"205 477 OFFCURVE",
"192 471 CURVE SMOOTH",
"179 465 OFFCURVE",
"164 462 OFFCURVE",
"147 462 CURVE SMOOTH"
);
}
);
width = 345;
}
);
leftKerningGroup = ordfeminine;
note = ordfeminine;
rightKerningGroup = ordfeminine;
unicode = 00AA;
},
{
glyphname = guillemotleft;
layers = (
{
layerId = "C87851D2-2817-4F36-A784-A5AE84D7BDA8";
paths = (
{
closed = 1;
nodes = (
"26 259 LINE",
"127 64 LINE",
"158 78 LINE",
"168 82 OFFCURVE",
"173 90 OFFCURVE",
"174 99 CURVE",
"174 108 LINE SMOOTH",
"174 111 OFFCURVE",
"172 113 OFFCURVE",
"171 116 CURVE",
"108 247 LINE",
"105 254 OFFCURVE",
"100 260 OFFCURVE",
"96 265 CURVE",
"101 269 OFFCURVE",
"106 275 OFFCURVE",
"112 283 CURVE SMOOTH",
"208 414 LINE",
"212 419 OFFCURVE",
"214 424 OFFCURVE",
"215 430 CURVE",
"216 434 OFFCURVE",
"215 438 OFFCURVE",
"213 442 CURVE SMOOTH",
"211 446 OFFCURVE",
"208 449 OFFCURVE",
"204 451 CURVE SMOOTH",
"176 465 LINE",
"28 271 LINE"
);
},
{
closed = 1;
nodes = (
"174 259 LINE",
"275 65 LINE",
"306 79 LINE",
"316 83 OFFCURVE",
"321 90 OFFCURVE",
"322 99 CURVE",
"322 108 LINE SMOOTH",
"322 111 OFFCURVE",
"320 113 OFFCURVE",
"319 116 CURVE",
"256 247 LINE",
"253 254 OFFCURVE",
"248 260 OFFCURVE",
"244 265 CURVE",
"249 269 OFFCURVE",
"254 275 OFFCURVE",
"260 283 CURVE SMOOTH",
"356 414 LINE",
"360 419 OFFCURVE",
"362 424 OFFCURVE",
"363 430 CURVE",
"364 434 OFFCURVE",
"363 438 OFFCURVE",
"361 442 CURVE SMOOTH",
"359 446 OFFCURVE",
"356 449 OFFCURVE",
"352 451 CURVE SMOOTH",
"324 465 LINE",
"176 271 LINE"
);
}
);
width = 394;
}
);
note = guillemotleft;
unicode = 00AB;
},
{
glyphname = logicalnot;
lastChange = "2017-01-26 15:47:04 +0000";
layers = (
{
layerId = "C87851D2-2817-4F36-A784-A5AE84D7BDA8";
paths = (
{
closed = 1;
nodes = (
"54 370 LINE",
"46 302 LINE",
"400 302 LINE",
"382 158 LINE",
"458 158 LINE",
"484 370 LINE"
);
}
);
width = 536;
}
);
leftKerningGroup = emdash;
note = logicalnot;
unicode = 00AC;
},
{
glyphname = uni00AD;
layers = (
{
layerId = "C87851D2-2817-4F36-A784-A5AE84D7BDA8";
paths = (
{
closed = 1;
nodes = (
"62 338 LINE",
"52 262 LINE",
"300 262 LINE",
"309 338 LINE"
);
}
);
width = 360;
}
);
note = uni00AD;
unicode = 00AD;
},
{
glyphname = registered;
lastChange = "2017-01-26 15:47:04 +0000";
layers = (
{
layerId = "C87851D2-2817-4F36-A784-A5AE84D7BDA8";
paths = (
{
closed = 1;
nodes = (
"25 324 OFFCURVE",
"25 292 OFFCURVE",
"30 261 CURVE SMOOTH",
"35 230 OFFCURVE",
"44 201 OFFCURVE",
"57 174 CURVE SMOOTH",
"70 147 OFFCURVE",
"85 122 OFFCURVE",
"105 100 CURVE SMOOTH",
"125 78 OFFCURVE",
"147 59 OFFCURVE",
"172 43 CURVE SMOOTH",
"197 27 OFFCURVE",
"224 15 OFFCURVE",
"254 6 CURVE SMOOTH",
"284 -3 OFFCURVE",
"316 -7 OFFCURVE",
"350 -7 CURVE SMOOTH",
"384 -7 OFFCURVE",
"416 -3 OFFCURVE",
"448 6 CURVE SMOOTH",
"480 15 OFFCURVE",
"511 27 OFFCURVE",
"540 43 CURVE SMOOTH",
"569 59 OFFCURVE",
"596 78 OFFCURVE",
"621 100 CURVE SMOOTH",
"646 122 OFFCURVE",
"669 147 OFFCURVE",
"688 174 CURVE SMOOTH",
"707 201 OFFCURVE",
"723 230 OFFCURVE",
"735 261 CURVE SMOOTH",
"747 292 OFFCURVE",
"756 325 OFFCURVE",
"760 358 CURVE SMOOTH",
"764 392 OFFCURVE",
"764 424 OFFCURVE",
"759 455 CURVE SMOOTH",
"754 486 OFFCURVE",
"745 516 OFFCURVE",
"733 543 CURVE SMOOTH",
"721 570 OFFCURVE",
"705 595 OFFCURVE",
"685 617 CURVE SMOOTH",
"665 639 OFFCURVE",
"643 658 OFFCURVE",
"618 674 CURVE SMOOTH",
"593 690 OFFCURVE",
"565 702 OFFCURVE",
"535 711 CURVE SMOOTH",
"505 720 OFFCURVE",
"473 724 OFFCURVE",
"439 724 CURVE SMOOTH",
"405 724 OFFCURVE",
"373 720 OFFCURVE",
"341 711 CURVE SMOOTH",
"309 702 OFFCURVE",
"278 690 OFFCURVE",
"249 674 CURVE SMOOTH",
"220 658 OFFCURVE",
"193 639 OFFCURVE",
"168 617 CURVE SMOOTH",
"143 595 OFFCURVE",
"121 570 OFFCURVE",
"102 543 CURVE SMOOTH",
"83 516 OFFCURVE",
"66 486 OFFCURVE",
"54 455 CURVE SMOOTH",
"42 424 OFFCURVE",
"33 392 OFFCURVE",
"29 358 CURVE SMOOTH"
);
},
{
closed = 1;
nodes = (
"84 403 OFFCURVE",
"98 445 OFFCURVE",
"119 484 CURVE SMOOTH",
"140 523 OFFCURVE",
"167 557 OFFCURVE",
"199 586 CURVE SMOOTH",
"231 615 OFFCURVE",
"267 638 OFFCURVE",
"307 655 CURVE SMOOTH",
"347 672 OFFCURVE",
"390 680 OFFCURVE",
"434 680 CURVE SMOOTH",
"463 680 OFFCURVE",
"491 677 OFFCURVE",
"517 669 CURVE SMOOTH",
"543 661 OFFCURVE",
"567 651 OFFCURVE",
"589 637 CURVE SMOOTH",
"611 623 OFFCURVE",
"630 606 OFFCURVE",
"647 586 CURVE SMOOTH",
"664 566 OFFCURVE",
"677 545 OFFCURVE",
"688 521 CURVE SMOOTH",
"699 497 OFFCURVE",
"706 472 OFFCURVE",
"710 444 CURVE SMOOTH",
"714 416 OFFCURVE",
"715 388 OFFCURVE",
"711 358 CURVE SMOOTH",
"706 313 OFFCURVE",
"692 272 OFFCURVE",
"671 233 CURVE SMOOTH",
"650 194 OFFCURVE",
"623 160 OFFCURVE",
"591 131 CURVE SMOOTH",
"559 102 OFFCURVE",
"523 80 OFFCURVE",
"482 63 CURVE SMOOTH",
"441 46 OFFCURVE",
"399 38 OFFCURVE",
"355 38 CURVE SMOOTH",
"326 38 OFFCURVE",
"298 41 OFFCURVE",
"272 49 CURVE SMOOTH",
"246 57 OFFCURVE",
"222 67 OFFCURVE",
"200 81 CURVE SMOOTH",
"178 95 OFFCURVE",
"160 112 OFFCURVE",
"143 131 CURVE SMOOTH",
"126 150 OFFCURVE",
"113 172 OFFCURVE",
"102 196 CURVE SMOOTH",
"91 220 OFFCURVE",
"84 245 OFFCURVE",
"80 272 CURVE SMOOTH",
"76 299 OFFCURVE",
"75 328 OFFCURVE",
"79 358 CURVE SMOOTH"
);
},
{
closed = 1;
nodes = (
"317 313 LINE",
"357 313 LINE SMOOTH",
"366 313 OFFCURVE",
"372 312 OFFCURVE",
"376 310 CURVE SMOOTH",
"380 308 OFFCURVE",
"383 304 OFFCURVE",
"385 300 CURVE SMOOTH",
"467 148 LINE SMOOTH",
"471 140 OFFCURVE",
"479 136 OFFCURVE",
"490 136 CURVE SMOOTH",
"564 136 LINE",
"471 303 LINE",
"468 310 OFFCURVE",
"465 315 OFFCURVE",
"461 320 CURVE SMOOTH",
"457 325 OFFCURVE",
"453 330 OFFCURVE",
"448 333 CURVE",
"484 341 OFFCURVE",
"512 356 OFFCURVE",
"533 378 CURVE SMOOTH",
"554 400 OFFCURVE",
"566 427 OFFCURVE",
"570 458 CURVE SMOOTH",
"575 499 OFFCURVE",
"565 530 OFFCURVE",
"540 551 CURVE SMOOTH",
"515 572 OFFCURVE",
"473 582 OFFCURVE",
"416 582 CURVE SMOOTH",
"272 582 LINE",
"217 136 LINE",
"295 136 LINE"
);
},
{
closed = 1;
nodes = (
"324 370 LINE",
"342 522 LINE",
"408 522 LINE SMOOTH",
"425 522 OFFCURVE",
"440 521 OFFCURVE",
"451 518 CURVE SMOOTH",
"462 515 OFFCURVE",
"472 510 OFFCURVE",
"478 504 CURVE SMOOTH",
"484 498 OFFCURVE",
"489 490 OFFCURVE",
"491 481 CURVE SMOOTH",
"493 472 OFFCURVE",
"493 460 OFFCURVE",
"491 448 CURVE SMOOTH",
"489 435 OFFCURVE",
"487 425 OFFCURVE",
"482 415 CURVE SMOOTH",
"477 405 OFFCURVE",
"471 398 OFFCURVE",
"462 391 CURVE SMOOTH",
"453 384 OFFCURVE",
"442 379 OFFCURVE",
"429 375 CURVE SMOOTH",
"416 371 OFFCURVE",
"400 370 OFFCURVE",
"382 370 CURVE SMOOTH"
);
}
);
width = 790;
}
);
leftKerningGroup = O;
note = registered;
rightKerningGroup = O;
unicode = 00AE;
},
{
glyphname = macron;
lastChange = "2017-01-26 15:06:04 +0000";
layers = (
{
layerId = "C87851D2-2817-4F36-A784-A5AE84D7BDA8";
paths = (
{
closed = 1;
nodes = (
"107 674 LINE",
"100 616 LINE",
"387 616 LINE",
"394 674 LINE"
);
}
);
width = 400;
}
);
note = macron;
unicode = 00AF;
},
{
glyphname = degree;
lastChange = "2017-01-26 15:47:04 +0000";
layers = (
{
layerId = "C87851D2-2817-4F36-A784-A5AE84D7BDA8";
paths = (
{
closed = 1;
nodes = (
"44 542 OFFCURVE",
"46 522 OFFCURVE",
"52 502 CURVE SMOOTH",
"58 482 OFFCURVE",
"67 465 OFFCURVE",
"80 451 CURVE SMOOTH",
"93 437 OFFCURVE",
"108 424 OFFCURVE",
"127 416 CURVE SMOOTH",
"146 408 OFFCURVE",
"167 404 OFFCURVE",
"190 404 CURVE SMOOTH",
"213 404 OFFCURVE",
"235 408 OFFCURVE",
"256 416 CURVE SMOOTH",
"277 424 OFFCURVE",
"296 437 OFFCURVE",
"312 451 CURVE SMOOTH",
"328 465 OFFCURVE",
"342 482 OFFCURVE",
"353 502 CURVE SMOOTH",
"364 522 OFFCURVE",
"370 542 OFFCURVE",
"373 564 CURVE SMOOTH",
"376 586 OFFCURVE",
"374 607 OFFCURVE",
"368 627 CURVE SMOOTH",
"362 647 OFFCURVE",
"353 664 OFFCURVE",
"340 678 CURVE SMOOTH",
"327 692 OFFCURVE",
"311 704 OFFCURVE",
"292 712 CURVE SMOOTH",
"273 720 OFFCURVE",
"253 725 OFFCURVE",
"230 725 CURVE SMOOTH",
"207 725 OFFCURVE",
"185 720 OFFCURVE",
"164 712 CURVE SMOOTH",
"143 704 OFFCURVE",
"124 692 OFFCURVE",
"108 678 CURVE SMOOTH",
"92 664 OFFCURVE",
"78 647 OFFCURVE",
"67 627 CURVE SMOOTH",
"56 607 OFFCURVE",
"50 586 OFFCURVE",
"47 564 CURVE SMOOTH"
);
},
{
closed = 1;
nodes = (
"112 577 OFFCURVE",
"116 591 OFFCURVE",
"123 603 CURVE SMOOTH",
"130 615 OFFCURVE",
"138 626 OFFCURVE",
"148 635 CURVE SMOOTH",
"158 644 OFFCURVE",
"169 652 OFFCURVE",
"182 657 CURVE SMOOTH",
"195 662 OFFCURVE",
"208 664 OFFCURVE",
"222 664 CURVE SMOOTH",
"236 664 OFFCURVE",
"249 662 OFFCURVE",
"260 657 CURVE SMOOTH",
"271 652 OFFCURVE",
"281 644 OFFCURVE",
"289 635 CURVE SMOOTH",
"297 626 OFFCURVE",
"303 615 OFFCURVE",
"306 603 CURVE SMOOTH",
"309 591 OFFCURVE",
"311 577 OFFCURVE",
"309 563 CURVE SMOOTH",
"307 549 OFFCURVE",
"302 536 OFFCURVE",
"296 524 CURVE SMOOTH",
"290 512 OFFCURVE",
"281 501 OFFCURVE",
"271 492 CURVE SMOOTH",
"261 483 OFFCURVE",
"250 476 OFFCURVE",
"237 471 CURVE SMOOTH",
"224 466 OFFCURVE",
"211 463 OFFCURVE",
"197 463 CURVE SMOOTH",
"183 463 OFFCURVE",
"171 466 OFFCURVE",
"159 471 CURVE SMOOTH",
"147 476 OFFCURVE",
"138 483 OFFCURVE",
"130 492 CURVE SMOOTH",
"122 501 OFFCURVE",
"117 512 OFFCURVE",
"113 524 CURVE SMOOTH",
"109 536 OFFCURVE",
"108 549 OFFCURVE",
"110 563 CURVE SMOOTH"
);
}
);
width = 402;
}
);
leftKerningGroup = quotedbl;
note = degree;
rightKerningGroup = quotedbl;
unicode = 00B0;
},
{
glyphname = plusminus;
layers = (
{
layerId = "C87851D2-2817-4F36-A784-A5AE84D7BDA8";
paths = (
{
closed = 1;
nodes = (
"349 601 LINE",
"276 601 LINE",
"253 413 LINE",
"51 413 LINE",
"42 345 LINE",
"245 345 LINE",
"222 161 LINE",
"295 161 LINE",
"318 345 LINE",
"521 345 LINE",
"530 413 LINE",
"326 413 LINE"
);
},
{
closed = 1;
nodes = (
"13 108 LINE",
"5 40 LINE",
"484 40 LINE",
"492 108 LINE"
);
}
);
width = 543;
}
);
note = plusminus;
unicode = 00B1;
},
{
glyphname = twosuperior;
layers = (
{
layerId = "C87851D2-2817-4F36-A784-A5AE84D7BDA8";
paths = (
{
closed = 1;
nodes = (
"216 585 LINE SMOOTH",
"227 595 OFFCURVE",
"238 604 OFFCURVE",
"248 614 CURVE SMOOTH",
"283 648 OFFCURVE",
"303 681 OFFCURVE",
"307 714 CURVE SMOOTH",
"311 745 OFFCURVE",
"304 771 OFFCURVE",
"285 790 CURVE SMOOTH",
"266 809 OFFCURVE",
"240 818 OFFCURVE",
"205 818 CURVE SMOOTH",
"171 818 OFFCURVE",
"141 810 OFFCURVE",
"116 792 CURVE SMOOTH",
"91 774 OFFCURVE",
"73 747 OFFCURVE",
"64 712 CURVE",
"99 706 LINE",
"102 705 OFFCURVE",
"105 706 OFFCURVE",
"108 706 CURVE SMOOTH",
"117 706 OFFCURVE",
"125 710 OFFCURVE",
"132 720 CURVE",
"146 750 OFFCURVE",
"167 766 OFFCURVE",
"196 766 CURVE SMOOTH",
"211 766 OFFCURVE",
"223 761 OFFCURVE",
"232 752 CURVE SMOOTH",
"241 743 OFFCURVE",
"244 729 OFFCURVE",
"242 712 CURVE SMOOTH",
"238 682 OFFCURVE",
"214 648 OFFCURVE",
"169 608 CURVE SMOOTH",
"45 498 LINE SMOOTH",
"37 491 OFFCURVE",
"32 482 OFFCURVE",
"31 472 CURVE",
"28 450 LINE",
"284 450 LINE",
"295 547 LINE",
"268 547 LINE SMOOTH",
"261 547 OFFCURVE",
"257 544 OFFCURVE",
"255 537 CURVE",
"254 535 OFFCURVE",
"252 527 OFFCURVE",
"249 510 CURVE",
"171 510 LINE SMOOTH",
"159 510 OFFCURVE",
"144 507 OFFCURVE",
"125 502 CURVE"
);
}
);
width = 332;
}
);
note = twosuperior;
unicode = 00B2;
},
{
glyphname = threesuperior;
layers = (
{
layerId = "C87851D2-2817-4F36-A784-A5AE84D7BDA8";
paths = (
{
closed = 1;
nodes = (
"179 818 OFFCURVE",
"164 816 OFFCURVE",
"149 812 CURVE SMOOTH",
"134 808 OFFCURVE",
"121 801 OFFCURVE",
"109 792 CURVE SMOOTH",
"97 783 OFFCURVE",
"87 772 OFFCURVE",
"78 759 CURVE SMOOTH",
"69 746 OFFCURVE",
"63 730 OFFCURVE",
"58 712 CURVE",
"91 706 LINE",
"95 706 LINE",
"100 706 LINE SMOOTH",
"105 706 OFFCURVE",
"109 707 OFFCURVE",
"112 709 CURVE SMOOTH",
"115 711 OFFCURVE",
"118 716 OFFCURVE",
"121 721 CURVE",
"127 734 OFFCURVE",
"136 745 OFFCURVE",
"146 753 CURVE SMOOTH",
"156 761 OFFCURVE",
"169 764 OFFCURVE",
"185 764 CURVE SMOOTH",
"201 764 OFFCURVE",
"213 761 OFFCURVE",
"222 752 CURVE SMOOTH",
"231 743 OFFCURVE",
"234 731 OFFCURVE",
"232 714 CURVE SMOOTH",
"230 697 OFFCURVE",
"222 682 OFFCURVE",
"209 672 CURVE SMOOTH",
"196 662 OFFCURVE",
"175 657 OFFCURVE",
"146 657 CURVE",
"141 614 LINE",
"157 614 OFFCURVE",
"169 612 OFFCURVE",
"180 610 CURVE SMOOTH",
"191 608 OFFCURVE",
"199 605 OFFCURVE",
"205 600 CURVE SMOOTH",
"211 595 OFFCURVE",
"215 589 OFFCURVE",
"217 582 CURVE SMOOTH",
"219 575 OFFCURVE",
"219 566 OFFCURVE",
"218 556 CURVE",
"217 549 OFFCURVE",
"214 542 OFFCURVE",
"211 535 CURVE SMOOTH",
"208 528 OFFCURVE",
"203 523 OFFCURVE",
"197 518 CURVE SMOOTH",
"191 513 OFFCURVE",
"184 508 OFFCURVE",
"176 505 CURVE SMOOTH",
"168 502 OFFCURVE",
"158 500 OFFCURVE",
"148 500 CURVE SMOOTH",
"137 500 OFFCURVE",
"129 502 OFFCURVE",
"122 505 CURVE SMOOTH",
"115 508 OFFCURVE",
"109 511 OFFCURVE",
"105 516 CURVE SMOOTH",
"101 521 OFFCURVE",
"97 526 OFFCURVE",
"95 531 CURVE SMOOTH",
"93 536 OFFCURVE",
"90 542 OFFCURVE",
"89 546 CURVE",
"86 554 OFFCURVE",
"80 557 OFFCURVE",
"70 557 CURVE SMOOTH",
"65 557 OFFCURVE",
"60 556 OFFCURVE",
"55 554 CURVE SMOOTH",
"26 542 LINE",
"29 526 OFFCURVE",
"34 513 OFFCURVE",
"40 501 CURVE SMOOTH",
"46 489 OFFCURVE",
"53 479 OFFCURVE",
"62 471 CURVE SMOOTH",
"71 463 OFFCURVE",
"83 456 OFFCURVE",
"96 452 CURVE SMOOTH",
"109 448 OFFCURVE",
"126 446 OFFCURVE",
"145 446 CURVE SMOOTH",
"161 446 OFFCURVE",
"176 448 OFFCURVE",
"192 453 CURVE SMOOTH",
"208 458 OFFCURVE",
"222 465 OFFCURVE",
"235 475 CURVE SMOOTH",
"248 485 OFFCURVE",
"258 496 OFFCURVE",
"267 510 CURVE SMOOTH",
"276 524 OFFCURVE",
"281 540 OFFCURVE",
"283 558 CURVE SMOOTH",
"286 579 OFFCURVE",
"282 596 OFFCURVE",
"272 609 CURVE SMOOTH",
"262 622 OFFCURVE",
"247 632 OFFCURVE",
"226 638 CURVE",
"268 653 OFFCURVE",
"291 681 OFFCURVE",
"296 724 CURVE",
"298 737 OFFCURVE",
"296 751 OFFCURVE",
"292 762 CURVE SMOOTH",
"288 773 OFFCURVE",
"282 782 OFFCURVE",
"273 791 CURVE",
"264 799 OFFCURVE",
"253 806 OFFCURVE",
"240 811 CURVE SMOOTH",
"227 816 OFFCURVE",
"212 818 OFFCURVE",
"195 818 CURVE SMOOTH"
);
}
);
width = 316;
}
);
note = threesuperior;
unicode = 00B3;
},
{
glyphname = acute;
lastChange = "2017-01-26 15:02:43 +0000";
layers = (
{
layerId = "C87851D2-2817-4F36-A784-A5AE84D7BDA8";
paths = (
{
closed = 1;
nodes = (
"301 724 LINE",
"214 724 LINE SMOOTH",
"203 724 OFFCURVE",
"195 723 OFFCURVE",
"189 719 CURVE",
"183 716 OFFCURVE",
"178 710 OFFCURVE",
"172 702 CURVE SMOOTH",
"83 582 LINE",
"136 582 LINE SMOOTH",
"143 582 OFFCURVE",
"149 583 OFFCURVE",
"154 585 CURVE SMOOTH",
"159 587 OFFCURVE",
"164 591 OFFCURVE",
"169 596 CURVE SMOOTH"
);
}
);
width = 287;
}
);
note = acute;
unicode = 00B4;
},
{
glyphname = mu;
lastChange = "2017-01-26 15:47:04 +0000";
layers = (
{
layerId = "C87851D2-2817-4F36-A784-A5AE84D7BDA8";
paths = (
{
closed = 1;
nodes = (
"190 506 LINE",
"101 506 LINE",
"22 -134 LINE",
"21 -146 OFFCURVE",
"23 -155 OFFCURVE",
"29 -162 CURVE SMOOTH",
"35 -169 OFFCURVE",
"44 -172 OFFCURVE",
"57 -172 CURVE SMOOTH",
"101 -172 LINE",
"118 -32 LINE SMOOTH",
"120 -19 OFFCURVE",
"121 -5 OFFCURVE",
"122 9 CURVE SMOOTH",
"123 23 OFFCURVE",
"123 38 OFFCURVE",
"122 52 CURVE",
"133 37 OFFCURVE",
"147 24 OFFCURVE",
"165 16 CURVE SMOOTH",
"183 8 OFFCURVE",
"204 3 OFFCURVE",
"229 3 CURVE SMOOTH",
"258 3 OFFCURVE",
"285 9 OFFCURVE",
"310 20 CURVE SMOOTH",
"335 31 OFFCURVE",
"360 49 OFFCURVE",
"385 73 CURVE",
"385 18 LINE",
"387 6 OFFCURVE",
"394 0 OFFCURVE",
"407 0 CURVE SMOOTH",
"460 0 LINE",
"522 506 LINE",
"433 506 LINE",
"387 133 LINE",
"365 111 OFFCURVE",
"342 94 OFFCURVE",
"317 82 CURVE SMOOTH",
"292 70 OFFCURVE",
"268 63 OFFCURVE",
"242 63 CURVE SMOOTH",
"207 63 OFFCURVE",
"182 73 OFFCURVE",
"166 93 CURVE SMOOTH",
"150 113 OFFCURVE",
"145 142 OFFCURVE",
"149 178 CURVE SMOOTH"
);
}
);
width = 562;
}
);
leftKerningGroup = m;
note = mu;
rightKerningGroup = m;
unicode = 00B5;
},
{
glyphname = paragraph;
layers = (
{
layerId = "C87851D2-2817-4F36-A784-A5AE84D7BDA8";
paths = (
{
closed = 1;
nodes = (
"680 716 LINE",
"275 716 LINE SMOOTH",
"240 716 OFFCURVE",
"208 711 OFFCURVE",
"179 702 CURVE SMOOTH",
"150 693 OFFCURVE",
"126 680 OFFCURVE",
"104 663 CURVE SMOOTH",
"82 646 OFFCURVE",
"64 627 OFFCURVE",
"51 603 CURVE SMOOTH",
"38 579 OFFCURVE",
"30 553 OFFCURVE",
"26 524 CURVE SMOOTH",
"23 497 OFFCURVE",
"24 472 OFFCURVE",
"32 448 CURVE SMOOTH",
"40 424 OFFCURVE",
"53 405 OFFCURVE",
"70 387 CURVE SMOOTH",
"87 369 OFFCURVE",
"110 355 OFFCURVE",
"136 345 CURVE SMOOTH",
"162 335 OFFCURVE",
"192 330 OFFCURVE",
"227 330 CURVE",
"174 -101 LINE",
"253 -101 LINE",
"344 640 LINE",
"482 640 LINE",
"391 -101 LINE",
"470 -101 LINE",
"561 640 LINE",
"670 640 LINE"
);
}
);
width = 676;
}
);
note = paragraph;
unicode = 00B6;
},
{
glyphname = periodcentered;
layers = (
{
layerId = "C87851D2-2817-4F36-A784-A5AE84D7BDA8";
paths = (
{
closed = 1;
nodes = (
"51 286 OFFCURVE",
"51 277 OFFCURVE",
"54 268 CURVE SMOOTH",
"57 259 OFFCURVE",
"61 251 OFFCURVE",
"67 244 CURVE SMOOTH",
"73 237 OFFCURVE",
"80 232 OFFCURVE",
"89 228 CURVE SMOOTH",
"98 224 OFFCURVE",
"107 222 OFFCURVE",
"117 222 CURVE SMOOTH",
"127 222 OFFCURVE",
"137 224 OFFCURVE",
"147 228 CURVE SMOOTH",
"157 232 OFFCURVE",
"165 237 OFFCURVE",
"173 244 CURVE SMOOTH",
"181 251 OFFCURVE",
"187 259 OFFCURVE",
"192 268 CURVE SMOOTH",
"197 277 OFFCURVE",
"201 286 OFFCURVE",
"202 296 CURVE SMOOTH",
"203 306 OFFCURVE",
"202 317 OFFCURVE",
"199 326 CURVE SMOOTH",
"196 335 OFFCURVE",
"192 343 OFFCURVE",
"186 350 CURVE SMOOTH",
"180 357 OFFCURVE",
"173 362 OFFCURVE",
"164 366 CURVE SMOOTH",
"155 370 OFFCURVE",
"145 372 OFFCURVE",
"135 372 CURVE SMOOTH",
"125 372 OFFCURVE",
"115 370 OFFCURVE",
"106 366 CURVE SMOOTH",
"97 362 OFFCURVE",
"88 357 OFFCURVE",
"80 350 CURVE SMOOTH",
"72 343 OFFCURVE",
"66 335 OFFCURVE",
"61 326 CURVE SMOOTH",
"56 317 OFFCURVE",
"53 306 OFFCURVE",
"52 296 CURVE SMOOTH"
);
}
);
width = 252;
}
);
note = periodcentered;
unicode = 00B7;
},
{
glyphname = cedilla;
lastChange = "2017-01-26 15:03:28 +0000";
layers = (
{
layerId = "C87851D2-2817-4F36-A784-A5AE84D7BDA8";
paths = (
{
closed = 1;
nodes = (
"25 -124 OFFCURVE",
"21 -126 OFFCURVE",
"18 -132 CURVE",
"7 -160 LINE",
"17 -165 OFFCURVE",
"27 -168 OFFCURVE",
"39 -171 CURVE SMOOTH",
"51 -174 OFFCURVE",
"64 -176 OFFCURVE",
"78 -176 CURVE SMOOTH",
"94 -176 OFFCURVE",
"108 -174 OFFCURVE",
"122 -171 CURVE SMOOTH",
"136 -168 OFFCURVE",
"148 -163 OFFCURVE",
"158 -157 CURVE SMOOTH",
"168 -151 OFFCURVE",
"177 -143 OFFCURVE",
"183 -135 CURVE SMOOTH",
"189 -127 OFFCURVE",
"194 -117 OFFCURVE",
"195 -106 CURVE SMOOTH",
"197 -88 OFFCURVE",
"192 -74 OFFCURVE",
"180 -62 CURVE SMOOTH",
"168 -50 OFFCURVE",
"147 -42 OFFCURVE",
"118 -35 CURVE",
"135 5 LINE",
"79 5 LINE",
"49 -66 LINE",
"61 -68 OFFCURVE",
"72 -69 OFFCURVE",
"82 -71 CURVE SMOOTH",
"92 -73 OFFCURVE",
"100 -75 OFFCURVE",
"106 -78 CURVE SMOOTH",
"112 -81 OFFCURVE",
"118 -86 OFFCURVE",
"121 -90 CURVE SMOOTH",
"124 -94 OFFCURVE",
"125 -100 OFFCURVE",
"124 -106 CURVE",
"123 -115 OFFCURVE",
"119 -121 OFFCURVE",
"111 -127 CURVE SMOOTH",
"103 -133 OFFCURVE",
"92 -135 OFFCURVE",
"78 -135 CURVE SMOOTH",
"71 -135 OFFCURVE",
"65 -134 OFFCURVE",
"60 -133 CURVE SMOOTH",
"55 -132 OFFCURVE",
"50 -131 OFFCURVE",
"47 -129 CURVE SMOOTH",
"44 -127 OFFCURVE",
"41 -126 OFFCURVE",
"38 -125 CURVE SMOOTH",
"35 -124 OFFCURVE",
"33 -124 OFFCURVE",
"31 -124 CURVE SMOOTH"
);
}
);
width = 276;
}
);
note = cedilla;
unicode = 00B8;
},
